<svg width="501" height="217" viewBox="0 0 501 217" fill="none" xmlns="http://www.w3.org/2000/svg">
<path d="M192.974 99.9141C198.994 99.7521 206.465 100.046 212.466 100.333C220.482 100.715 226.289 109.005 221.891 116.457C219.218 120.985 216.388 121.387 211.633 122.694C214.216 127.723 222.57 142.119 225.895 145.807C224.252 145.885 222.407 145.866 220.747 145.886C219.776 144.384 218.827 142.689 217.918 141.134C214.843 135.579 210.678 128.388 207.365 122.932C204.014 122.806 200.093 122.925 196.7 122.949C196.915 130.391 196.675 138.372 196.763 145.902L192.812 145.877C192.79 141.355 192.572 100.646 192.974 99.9141ZM196.724 121.676C201.67 121.575 211.176 122.334 215.092 120.174C219.048 117.089 220.199 112.652 218.488 107.93C215.753 100.385 205.392 100.562 198.785 100.923C198.103 100.923 197.268 100.817 196.776 101.236C196.421 106.887 196.764 115.764 196.724 121.676Z" fill="#2C2B29"/>
<path d="M83.2627 99.9051C91.409 100.207 110.474 97.4995 112.981 108.008C115.133 117.03 109.37 120.664 101.668 122.666C104.339 128.368 112.361 140.95 115.879 145.838C114.151 145.896 112.564 145.859 110.835 145.814C109.871 144.358 109.026 142.929 108.139 141.429C104.762 135.585 100.895 128.47 97.3122 122.869L86.4813 122.96C86.7435 130.17 86.5268 138.67 86.5464 145.973C85.4349 145.909 84.2434 145.886 83.1238 145.845C83.1502 141.308 82.7909 100.811 83.2627 99.9051ZM86.406 100.998C86.6902 106.769 86.6873 115.81 86.5249 121.68C91.2965 121.561 101.469 122.387 105.041 120.14C109.056 117.632 110.055 113.35 108.892 108.947C106.611 100.316 95.723 100.568 88.6131 100.921L86.406 100.998Z" fill="#2C2B29"/>
<path d="M278.611 14.0352C278.848 18.7997 275.477 25.3609 275.563 26.7084C276.292 26.465 277.013 24.5044 278.173 23.7445L278.444 23.8584C278.405 25.1769 276.458 29.7701 275.881 31.2253C278.645 28.829 279.807 25.8313 283.557 23.0059C281.639 26.0887 279.198 29.4487 277.5 32.2237L277.642 32.5537C278.388 32.4233 279.919 31.2319 280.66 30.7832C285.731 27.7063 287.527 26.827 293.167 26.4307C290.68 28.0689 287.95 29.4988 285.35 30.9119C283.948 31.6735 279.525 33.65 278.579 34.4565L278.598 34.8661C280.078 35.5151 288.351 35.0356 290.538 34.9561C287.174 36.3508 282.943 36.41 279.293 36.5869C282.989 40.868 287.304 42.8026 291.707 45.8996C288.972 45.3061 285.308 44.2303 282.94 42.8459C278.51 40.2558 276.387 37.3786 270.822 39.3519C266.708 40.8112 263.291 42.75 259.455 44.7708L243.003 53.4975C249.475 52.959 252.667 51.2113 258.545 49.1005C264.201 47.0697 268.168 46.4481 274.142 46.6232C267.53 49.5785 262.016 52.9426 254.592 54.1793C250.363 54.8841 245.71 55.0424 241.445 55.3962C237.4 55.7316 223.57 59.4089 220.307 57.2941L220.278 56.8756C221.48 55.6169 234.416 55.9562 238.405 52.1138C245.772 45.0191 247.599 32.974 254.162 24.9951C256.627 21.9987 259.895 19.5711 262.985 17.2512C260.133 21.8025 259.776 25.1363 257.711 29.0222C253.783 36.4215 246.05 46.4649 240.326 52.4458C246.398 49.169 246.745 48.0583 251.288 43.2087C255.15 39.0864 264.066 31.9533 269.406 30.3859C266.008 32.8147 264.807 34.5373 261.887 37.2193C259.027 39.8439 255.201 43.2836 252.151 45.6265C250.884 46.3619 250.338 46.8857 249.25 47.856C250.517 47.2666 251.552 46.8047 252.743 46.0635C257.64 42.8875 267.197 39.4471 270.71 35.6052C275.543 30.3164 269.743 26.1156 269.125 21.5053C268.983 20.4331 268.836 16.3071 269.57 15.4033C269.851 15.5108 270.12 15.6635 270.172 16.0101C270.776 19.9637 271.297 22.5778 273.056 26.1861C273.762 23.9428 277.436 15.9004 278.611 14.0352Z" fill="#2C2B29"/>
<path d="M166.938 179.003C165.559 178.978 163.146 179.028 161.912 178.669L161.738 178.383L161.955 177.934C165.013 177.07 167.845 176.08 170.691 174.647C173.19 173.389 175.752 169.647 177.579 169.579C178.892 170.75 177.243 172.185 176.202 172.844C174.151 174.144 172.695 175.399 171.009 177.131C172.91 177.221 174.047 177.179 175.951 177.045C177.632 175.755 180.266 172.556 181.861 172.081L182.235 172.194C182.499 173.877 180.072 175.882 178.843 177.045C181.067 177.094 186.854 177.036 188.347 178.408L188.196 178.782C186.239 179.328 181.187 178.07 177.553 178.505C174.234 181.65 171.336 184.755 167.774 187.651C170.427 186.752 173.001 184.309 175.711 184.786C176.412 185.321 176.226 185.03 176.424 185.87C176.2 186.617 176.013 187.223 175.867 187.988C177.649 188.494 182.103 184.398 183.92 184.8C184.402 186.104 182.061 187.389 181.812 188.792C182.59 189.449 183.786 188.562 184.597 188.453C185.843 188.416 187.582 188.091 187.919 188.079C187.351 188.394 186.797 188.61 186.568 189.215C184.49 190.174 181.68 191.059 179.92 189.01C179.101 188.056 174.608 192.003 173.176 189.583C173.208 188.606 174.165 187.451 174.642 186.317L174.458 186.047C172.594 185.852 169.314 190.01 166.485 190.284C163.925 187.878 162.07 192.921 157.653 189.176C154.917 189.944 154.41 190.314 152.332 188.193C151.671 188.45 151.003 188.687 150.328 188.905C147.79 189.72 146.849 189.587 144.59 188.425C142.691 189.271 136.723 191.179 134.941 190.149C134.89 188.539 138.19 187.462 139.065 185.865C134.989 185.006 125.842 196.69 123.126 196.567L123.077 196.152C123.776 194.462 129.506 189.479 131.365 187.559C129.289 188.107 128.274 188.299 126.158 187.982C125.442 188.592 124.668 189.132 123.848 189.592C123.053 190.041 122.612 190.153 121.742 189.916C120.968 189.471 120.715 188.694 120.341 187.881C119.132 187.223 114.512 192.569 112.289 190.97C109.236 188.774 113.231 186.36 114.491 184.673L114.613 184.508C111.345 186.219 106.228 189.71 101.971 189.404C101.794 189.391 100.729 188.625 100.504 188.458C99.0582 188.213 96.152 190.612 94.5236 189.577C93.359 188.836 94.2543 188.158 94.0515 187.298C91.7169 187.8 88.5807 190.427 85.73 190.672C83.8162 190.836 83.9138 189.736 82.4931 189.331C82.0374 189.201 79.9472 190.06 79.0688 189.789C78.4142 189.681 77.4609 188.289 76.8198 188.393C74.7621 188.728 71.3175 190.461 69.7562 188.531C69.0351 185.007 73.5242 184.178 75.947 183.477C81.0949 185.061 77.6906 187.268 80.0966 188.225C83.3287 188.042 89.2821 181.427 91.5063 179.002C90.1475 178.903 87.5316 179.079 86.4184 178.514L86.4125 178.153C87.4088 177.37 92.1893 176.514 94.5522 175.119C97.5333 173.359 98.5587 171.92 101.263 169.942C101.711 169.615 102.189 169.788 102.628 169.967L102.812 170.472C102.296 172.227 97.6656 175.023 95.6021 177.122C97.3158 177.296 99.6206 177.188 101.387 177.154C102.734 177.705 103.227 177.733 104.643 177.889C103.751 177.984 102.555 178.064 101.725 178.329C96.7388 178.372 94.7046 177.506 91.1445 181.499C89.8603 182.939 85.7614 187.061 85.2646 188.678L85.416 189.06C88.1133 189.641 96.0747 182.382 98.3268 184.53C98.4379 186.287 96.3232 187.487 95.0456 188.362C97.798 187.723 101.884 185.426 103.187 185.465L103.47 185.728C103.281 186.964 102.677 187.342 102.988 187.98C109.062 188.35 112.466 181.192 115.665 184.376C116.15 186.231 113.791 187.763 113.856 189.111C115.857 189.617 119.319 185.91 122.442 185.42L123.535 185.782C124.263 185.18 124.913 184.335 125.724 184.276C127.777 185.032 126.37 185.865 127.668 186.889C132.37 187.035 135.224 181.162 137.936 179.92L138.512 180.067C139.132 182.154 136.439 183.219 136.64 184.279C138.636 184.707 139.465 183.816 140.581 185.339C140.802 186.626 139.908 187.507 140.411 187.945C144.388 187.468 146.532 184.657 151.107 183.508C157.158 185.335 152.754 187.425 155.357 188.311C158.959 187.782 164.034 181.641 166.938 179.003ZM170.671 178.403C168.623 179.057 160.481 186.787 160.989 188.838C161.845 189.066 162.332 188.862 163.217 188.454C167.917 186.394 171.447 182.175 174.753 178.318C173.349 178.377 172.076 178.417 170.671 178.403ZM74.121 187.551C75.3096 187.095 75.9735 186.917 76.9049 186.014L77.0165 185.537C76.1958 185.054 76.2834 185.216 75.1883 185.224C73.8184 185.636 72.9026 185.838 72.1551 187.177L72.3131 187.632C73.0212 187.891 73.3869 187.734 74.121 187.551ZM149.542 187.534C150.526 187.098 151.496 186.772 152.181 185.944L152.207 185.552C151.701 185.133 151.12 185.217 150.463 185.222C148.924 185.658 148.432 185.692 147.583 187.068L147.638 187.514C148.419 187.874 148.55 187.759 149.542 187.534Z" fill="#2C2B29"/>
<path d="M314.948 108.253C315.767 106.212 317.186 101.357 318.455 100.208C319.392 99.8183 320.444 99.8124 321.383 100.192C322.885 100.806 336.747 141.025 339.061 145.845L335.06 145.965C333.609 143.216 328.685 127.853 327.391 127.065C327.367 127.05 327.342 127.035 327.32 127.02C326.041 127.437 310.501 127.21 308.688 126.917C307.467 131.392 305.075 136.091 303.791 140.607C303.493 141.654 303.079 145.098 302.558 145.608C301.685 145.872 301.538 145.85 300.623 145.763C300.325 144.936 303.512 138.012 304.04 136.665C307.739 127.218 311.374 117.748 314.948 108.253ZM315.584 109.526C314.074 113.563 310.882 122.491 309.133 126.027C314.537 125.877 321.929 125.766 327.352 125.919C324.495 118.002 321.545 110.119 318.504 102.271C317.494 104.499 316.567 107.191 315.584 109.526Z" fill="#2C2B29"/>
<path d="M314.948 108.253L315.584 109.526C314.074 113.563 310.882 122.491 309.133 126.027C314.537 125.877 321.929 125.766 327.352 125.919C326.992 126.174 326.948 126.192 326.689 126.543L326.735 126.957C326.931 126.963 327.127 126.997 327.32 127.02C326.041 127.437 310.501 127.21 308.688 126.917C307.467 131.392 305.075 136.091 303.791 140.607C303.493 141.654 303.079 145.098 302.558 145.608C301.685 145.872 301.538 145.85 300.623 145.763C300.325 144.936 303.512 138.012 304.04 136.665C307.739 127.218 311.374 117.748 314.948 108.253Z" fill="#2C2B29"/>
<path d="M313.861 183.509C316.616 184.235 317.35 185.237 317.592 188.1L317.819 188.257C319.182 188.265 320.906 187.242 321.846 186.253C324.025 183.962 333.418 171.467 336.16 172.357L336.354 172.999C335.549 178.679 322.861 182.635 322.949 190.091L323.849 190.708C323.563 191.194 323.289 191.12 322.589 191.319C320.146 189.544 322.232 188.494 317.562 189.658C316.777 189.853 315.647 188.758 315.026 188.165C312.1 189.497 309.979 190.323 307.372 188.024C306.357 188.236 303.226 188.792 302.47 189.202C299.42 190.849 295.679 194.985 293.845 189.281C292.201 190.143 289.368 191.937 287.671 190.456C286.379 188.252 289.508 185.671 290.917 184.404C289.163 185.045 287.385 186.57 285.682 187.577C283.131 189.069 278.231 190.495 275.347 189.795C270.568 188.634 273.953 181.066 278.334 182.939C279.202 183.309 279.322 183.232 279.767 184.108C279.449 186.052 275.78 186.989 275.225 188.22C276.558 189.295 281.866 187.63 283.468 186.977C285.345 186.212 289.479 181.875 291.533 184.15C292.228 185.814 290.322 187.27 290.093 189.002L290.455 189.203C297.778 187.738 303.236 172.133 307.663 174.093C308.759 176.974 294.887 186.165 296.775 190.246L297.282 190.321C298.067 189.94 298.952 189.575 299.574 188.976C299.51 187.43 298.713 186.769 299.72 185.311C300.887 184.642 302.35 184.684 303.336 185.656C303.5 186.234 303.558 186.636 303.989 187.067C306.604 187.167 310.464 184.442 313.861 183.509ZM312.127 187.58C313.284 187.122 313.998 186.921 314.886 186.021L314.96 185.577C314.206 185.113 314.214 185.264 313.203 185.225C311.794 185.681 311.078 185.817 310.3 187.159L310.378 187.552C311.286 187.879 311.068 187.767 312.127 187.58Z" fill="#2C2B29"/>
<path d="M381.026 103.067C380.924 101.774 380.567 99.7825 382.433 99.6496C383.296 99.5882 384.781 100.718 385.268 101.353C387.697 104.523 390.013 107.789 392.362 111.021L406.368 130.265C407.714 132.108 411.796 137.942 413.237 139.365L413.868 139.131C414.034 139.588 414.091 139.829 414.188 140.305C414.24 141.722 414.494 144.654 413.878 145.869L413.55 145.905C411.794 144.56 407.704 138.62 406.16 136.501L390.082 114.505C388.353 112.143 383.622 105.419 381.826 103.54L381.026 103.067Z" fill="#2C2B29"/>
<path d="M39.349 100.054C49.9344 100.146 59.4177 98.7522 67.5721 107.016C75.961 115.518 75.137 130.736 66.6952 138.86C65.6035 139.91 62.5964 142.165 61.1696 142.514C60.5437 142.534 60.0858 142.57 59.4654 142.64C60.1775 142.079 60.3861 141.895 60.7548 141.066C71.9316 133.525 72.0874 116.791 62.8787 107.581C56.2121 100.914 47.9383 100.792 39.1387 100.946L39.349 100.054Z" fill="#2C2B29"/>
<path d="M35.043 100.045C36.4786 100.04 37.914 100.043 39.3494 100.054L39.139 100.946C38.9387 104.117 39.0671 108.525 39.07 111.774L39.0918 132.525C39.0952 136.312 39.2087 140.823 39.0238 144.558L43.3067 144.576C44.0158 144.813 44.6821 145.037 45.4037 145.234L45.0645 145.072L45.4006 145.283C44.3793 145.398 42.7411 145.531 41.794 145.782C39.8256 145.896 37.1699 145.869 35.1538 145.903L35.1489 115.79C35.1482 111.355 35.3597 104.31 35.043 100.045Z" fill="#2C2B29"/>
<path d="M152.516 99.92C154.396 99.853 157.085 100.021 159.02 100.084C158.028 100.524 157.558 100.757 156.468 100.962C155.985 103.946 156.755 112.976 156.5 116.408C156.391 117.878 156.642 119.8 156.283 121.409L156.498 122.093C156.305 123.853 156.455 126.697 156.425 128.555C156.342 133.801 156.653 139.316 156.361 144.538L160.424 144.571L160.506 144.61C161.721 145.175 162.634 145.148 163.957 145.219C162.033 145.195 161.058 145.29 159.171 145.783C157.433 145.907 154.378 145.851 152.556 145.869C152.597 144.327 152.578 142.726 152.57 141.182C152.496 127.435 152.688 113.664 152.516 99.92Z" fill="#2C2B29"/>
<path d="M428.026 100.005L431.402 100.037L432.358 100.454L432.19 100.971C431.441 102.05 432.251 139.273 431.879 144.533L436.536 144.591C437.329 144.789 438.134 144.981 438.916 145.21C437.759 145.532 436.255 145.469 435.034 145.777C433.352 145.919 429.878 145.855 428.068 145.874L428.026 100.005Z" fill="#2C2B29"/>
<path d="M259.227 105.011L260.333 105.524C248.846 118.705 256.47 142.802 274.596 144.483C276.198 144.632 277.928 144.603 279.545 144.605C280.053 144.755 281.047 145.079 281.533 145.136L281.67 145.247L281.514 145.304C281.022 145.484 280.885 145.507 280.511 145.884C279.657 146.362 274.146 146.343 272.859 146.257C266.605 145.837 260.925 143.023 256.779 138.366C252.588 133.618 250.477 127.386 250.92 121.067C251.331 114.318 254.291 109.398 259.227 105.011Z" fill="#2C2B29"/>
<path d="M446.258 100.267C460.056 101.909 467.828 112.264 466.142 125.961C465.487 131.558 462.612 136.658 458.163 140.115C456.749 141.203 455.203 142.111 453.564 142.817C453.041 142.345 453.197 142.332 453.08 141.436C459.498 137.033 462.431 131.948 462.407 124.042C462.363 110.912 453.777 102.552 441.016 101.005C442.146 100.151 444.714 100.324 446.258 100.267Z" fill="#2C2B29"/>
<path d="M238.105 99.8818L240.775 100.015L240.833 133.036C240.834 134.539 240.922 144.749 240.719 145.682L240.251 145.88L236.943 145.9C236.771 136.056 236.784 111.46 236.993 100.349C236.998 100.113 237.744 99.9851 238.105 99.8818Z" fill="#2C2B29"/>
<path d="M358.09 186.984C363.513 182.213 368.444 176.618 374.055 171.975C375.237 170.996 376.064 169.076 377.433 168.24L377.893 168.364C378.074 169.038 378.116 169.476 377.7 170.121C375.687 173.235 364.777 185.686 364.731 188.06C365.249 188.699 364.975 188.535 365.736 188.712C368.346 186.847 370.905 184.947 373.451 183.011C375.251 181.64 379.31 177.738 381.252 177.351L381.518 177.547C380.9 180.462 365.633 190.989 367.355 193.974C368.478 194.243 370.949 193.747 372.216 193.56C374.562 192.925 377.262 192.38 379.17 190.932C379.924 190.36 380.1 190.033 380.697 190.282C381.056 190.977 381.015 190.673 380.86 191.422C379.628 193.064 375.474 194.572 373.522 194.84C368.339 196.284 362.309 197.348 366.932 189.938C365.134 191.006 360.797 194.811 358.919 194.457C358.559 192.247 365.587 183.723 367.333 180.276C365.812 181.441 364.909 182.806 363.586 184.079C360.988 186.577 356.663 190.583 353.481 191.961C353.109 191.888 352.693 192.185 352.16 192.197C353.802 190.328 357.008 189.572 358.09 186.984Z" fill="#2C2B29"/>
<path d="M372.216 193.56C374.562 192.925 377.262 192.38 379.17 190.932C379.924 190.36 380.1 190.033 380.696 190.282C381.056 190.977 381.014 190.673 380.86 191.422C379.628 193.064 375.474 194.572 373.522 194.841C373.992 194.038 375.247 193.836 376.335 193.439C373.742 193.456 374.151 194.515 372.216 193.56Z" fill="#2C2B29"/>
<path d="M401.941 184.234C403.699 182.654 414.044 170.278 415.859 172.393C415.996 175.914 402.246 183.827 402.004 187.604C402.183 187.864 402.229 187.996 402.618 187.998C405.964 188.011 408.929 186.211 411.776 184.662C411.945 184.729 412.094 184.788 412.224 184.839C412.236 186.087 410.042 187.517 410.424 188.774C411.715 189.087 414.915 187.652 416.101 187.055C418.376 185.909 419.046 183.609 421.877 184.866C420.932 186.332 418.873 185.769 418.523 188.775C419.012 189.68 419.526 189.289 420.387 189.387L420.399 189.73C418.374 190.634 417.799 188.241 416.654 187.996L416.309 188.44C413.658 190.185 410.443 191.104 407.811 188.992L407.701 188.904C406.087 189.18 403.269 189.887 401.88 188.966C400.943 188.346 401.243 187.975 400.018 187.936C397.716 189.304 396.657 191.262 393.876 188.688C392.376 189.063 390.363 189.422 388.925 189.74C382.374 191.189 380.385 185.474 386.271 182.738C387.188 182.311 389.196 183.005 389.651 184.127C389.326 186.459 385.74 186.796 385.006 188.17C385.652 188.688 387.102 188.548 387.951 188.487C392.846 188.138 395.087 184.863 399.179 183.595C399.776 183.41 401.322 183.974 401.941 184.234ZM397.21 188.1C398.134 187.466 399.761 186.484 399.92 185.324C399.431 184.815 399.45 184.985 398.501 184.961C397.457 185.581 396.082 186.346 395.887 187.644C396.288 188.138 396.535 188.122 397.21 188.1Z" fill="#2C2B29"/>
<path d="M259.99 174.958C261.394 174.306 262.138 173.937 263.4 173.082C265.108 171.926 267.551 169.361 269.369 168.775L269.958 168.993C270.756 170.78 265.257 173.677 263.982 174.953C261.111 177.828 257.96 180.61 255.35 183.735C258.476 184.157 260.648 184.378 263.855 184.451C265.083 182.621 267.385 180.44 268.958 178.754L269.821 179.683C268.19 181.405 267.111 182.659 265.631 184.499C267.023 184.418 270.944 183.938 272.003 184.556L271.947 184.825C269.374 185.963 267.319 186.008 264.596 186.093C262.441 188.155 261.343 189.97 260.105 192.709C262.258 192.082 267.001 189.515 268.395 190.19C268.212 192.068 260.215 194.822 258.723 193.711C258.102 191.619 261.015 187.848 262.194 186.059C252.503 184.422 255.604 184.435 249.619 190.378C249.489 190.333 249.303 190.189 249.186 190.111C249.404 189.301 249.621 188.633 249.893 187.84C250.644 186.979 251.385 185.957 252.082 185.039L248.021 184.482C248.457 183.534 249.093 182.646 249.675 181.775L250.137 182.847C252.459 186.124 260.181 176.936 260.392 175.922C259.99 175.508 260.115 175.627 259.99 174.958Z" fill="#2C2B29"/>
<path d="M56.2324 182.575C59.2683 179.195 63.3885 176.669 65.7808 172.616C66.2994 171.738 67.7392 169.639 68.861 169.866C69.0073 171.348 63.2628 183.782 63.8328 185.286C65.8126 185.331 70.6176 179.202 72.7212 177.312C73.8342 177.111 74.0705 177.051 75.0575 176.505C74.8266 176.944 74.6077 177.39 74.4007 177.84C72.3171 180.337 58.6661 194.708 56.2334 194.328C55.4164 193.039 64.7136 181.985 62.9986 179.176C61.6024 179.103 56.2936 184.622 54.1486 185.895C53.8475 185.171 55.6698 183.707 56.2324 182.575Z" fill="#2C2B29"/>
<path d="M439.602 187.723C442.024 186.781 444.805 185.478 447.388 185.699C447.674 186.382 447.794 186.55 448.207 187.145C450.825 188.145 453.824 180.531 456.83 182.775C460.555 185.557 453.961 186.975 453.376 187.876L453.518 188.364C455.272 189.671 461.962 186.351 463.956 186.643L464.168 186.951L463.973 187.369C461.96 189.08 457.15 190.068 454.506 189.858C452.613 189.708 452.344 189.414 451.189 188.068C449.817 188.751 446.828 190.179 445.26 189.895C443.87 189.644 444.986 188.483 444.482 187.633C442.496 187.735 438.215 191.013 437.173 189.082C437.139 188.133 437.753 187.264 438.23 186.416C436.657 187.433 435.693 187.957 434.008 188.782C431.699 188.573 430.206 190.072 427.621 189.683L427.462 189.459L427.777 189.204C430.025 188.963 432.701 187.781 434.671 186.661C436.867 185.413 439.279 182.684 441.911 183.226C442.584 183.765 442.376 183.481 442.667 184.339C442.435 185.859 440.874 186.618 439.602 187.723Z" fill="#2C2B29"/>
<path d="M223.798 176.618C224.48 176.726 226.08 177.038 226.328 177.698C227.413 180.577 222.512 181.61 222.179 184.135C222.994 185.223 223.21 184.264 224.104 185.205C223.96 185.895 223.33 186.337 222.79 186.834C223.406 187.954 224.001 189.086 224.575 190.228C224.504 191.116 224.635 190.8 224.129 191.463C222.467 191.557 222.411 189.087 221.01 188.384L220.678 188.654C218.702 189.635 214.256 191.579 212.563 189.438C211.155 185.705 217.665 183.137 220.262 182.189C220.775 179.655 221.366 177.82 223.798 176.618ZM215.101 189.235C217.172 188.587 219.172 187.729 221.069 186.674C220.765 185.669 220.639 184.575 219.957 184.004C218.248 184.681 213.547 186.252 214.088 188.611C214.479 188.934 214.623 189.113 215.101 189.235Z" fill="#2C2B29"/>
<path d="M268.085 100.398C277.544 97.7878 284.034 99.3589 292.421 103.798L289.74 107.268C283.691 102.028 278.417 100.29 270.499 100.9C269.78 100.962 269.063 101.075 268.361 101.237L268.085 100.398Z" fill="#2C2B29"/>
<path d="M293.955 36.0841C294.493 35.9936 294.928 36.3261 295.285 36.685L295.261 37.0231C293.923 37.7749 292.563 38.4702 291.017 38.524L290.922 38.5267C291.562 39.2513 294.317 39.4368 295.459 40.3874L295.457 40.7591C294.045 41.54 291.115 40.5942 289.349 40.2791C291.24 41.4081 293.673 41.9444 294.755 43.699C294.811 44.4649 294.862 44.1858 294.28 44.8909C288.17 42.5535 286.572 41.5906 281.678 37.5789C284.916 37.3561 290.958 36.9377 293.955 36.0841Z" fill="#2C2B29"/>
<path d="M353.481 191.961L353.381 192.152C351.116 193.572 345.16 196.506 343.022 193.988C342.344 190.927 356.309 180.464 357.953 180.753C358.066 181.104 358.188 181.683 357.848 181.971C353.587 185.582 347.64 188.117 345.302 193.473C351.256 192.403 353.242 190.563 358.09 186.984C357.009 189.572 353.802 190.328 352.161 192.197C352.694 192.185 353.11 191.888 353.481 191.961Z" fill="#2C2B29"/>
<path d="M413.237 139.365L413.296 118.574C413.315 112.715 413.577 106.144 412.361 100.438C413.144 99.9356 413.809 99.8869 414.67 100.288C415.177 101.338 414.201 106.526 414.189 108.217C414.13 115.72 414.208 123.215 414.245 130.714C414.255 132.964 414.438 138.325 414.189 140.306C414.091 139.829 414.034 139.588 413.868 139.131L413.237 139.365Z" fill="#2C2B29"/>
<path d="M381.027 103.067L381.827 103.541C382.343 116.834 380.958 130.759 382.546 143.998C382.649 144.846 382.729 145.009 382.25 145.684C381.448 145.779 381.342 145.769 380.565 145.582C380.474 145.455 380.369 145.305 380.244 145.132C380.579 142.49 381.044 139.577 381.051 136.915C381.073 127.44 381.051 117.964 380.968 108.49C380.954 106.684 380.836 104.863 381.027 103.067Z" fill="#2C2B29"/>
<path d="M349.829 150.02C350.194 149.134 350.598 148.505 350.27 147.564C349.646 145.782 346.346 144.407 347.161 142.322C348.474 138.966 352.095 138.887 353.32 142.395C353.42 142.684 353.516 142.975 353.604 143.266C352.963 146.148 352.183 148.537 350.424 150.986C350.174 150.715 350.006 150.35 349.829 150.02Z" fill="#2C2B29"/>
<path d="M286.566 19.7012C289.09 19.9915 287.16 22.4912 286.446 23.6381C287.358 23.9957 289.55 22.323 291.262 23.0733L291.323 23.5692C290.621 24.6356 287.872 25.7066 286.622 26.2654C284.457 27.1234 282.803 28.4039 281.162 30.0173C282.388 27.5762 284.9 21.0804 286.566 19.7012Z" fill="#2C2B29"/>
<path d="M160.424 144.571C169.491 144.606 173.241 144.9 182.139 143.092C181.804 143.821 181.338 145.117 180.712 145.504C178.544 146.055 162.385 145.834 159.171 145.783C161.058 145.29 162.033 145.196 163.957 145.219C162.634 145.148 161.721 145.175 160.506 144.61L160.424 144.571Z" fill="#2C2B29"/>
<path d="M128.203 140.369C129.289 140.111 130.431 140.46 131.187 141.281C131.944 142.103 132.198 143.27 131.851 144.332C131.505 145.394 130.611 146.185 129.516 146.402C127.865 146.729 126.257 145.674 125.899 144.03C125.542 142.386 126.566 140.758 128.203 140.369Z" fill="#2C2B29"/>
<path d="M56.2322 182.575C55.6696 183.707 53.8472 185.171 54.1483 185.895C52.4659 187.977 38.9303 195.941 37.3389 193.212C37.7016 192.685 39.9139 192.06 40.6612 191.837C46.7613 190.02 51.1643 186.316 56.2322 182.575Z" fill="#2C2B29"/>
<path d="M418.523 188.775C423.291 189.669 428.1 184.405 430.177 185.006C430.274 186.203 428.403 187.346 427.904 188.795L427.855 188.936C427.828 189.025 427.801 189.114 427.777 189.204L427.461 189.459L427.62 189.683C430.206 190.072 431.698 188.573 434.007 188.782C432.63 189.364 430.233 190.308 428.755 190.23L428.611 190.221C427.4 190.154 425.947 189.082 425.84 189.081C423.024 189.059 419.998 191.573 417.369 189.372C416.774 188.873 417.175 188.774 416.31 188.44L416.654 187.996C417.799 188.241 418.374 190.634 420.399 189.73L420.387 189.387C419.526 189.289 419.013 189.68 418.523 188.775Z" fill="#2C2B29"/>
<path d="M159.02 100.084L173.307 100.093C175.473 100.089 177.651 100.014 179.813 100.062C181.196 100.093 181.453 100.963 181.801 102.056L181.613 102.386C180.158 102.583 178.421 101.687 177.168 101.514C170.831 100.639 162.862 100.904 156.468 100.963C157.557 100.758 158.028 100.524 159.02 100.084Z" fill="#2C2B29"/>
<path d="M72.7207 177.312C75.0572 175.3 83.1412 167.536 85.53 167.352C85.488 168.946 81.6745 171.594 80.3533 172.716C78.5229 174.27 76.3246 176.553 74.4002 177.84C74.6072 177.39 74.8261 176.945 75.057 176.505C74.07 177.051 73.8337 177.111 72.7207 177.312Z" fill="#2C2B29"/>
<path d="M281 15.7705C281.521 15.9144 281.611 15.9914 282.054 16.2998C282.563 17.6673 281.462 19.8342 280.909 21.2626C282.208 20.0812 283.13 19.1117 284.686 18.2618L285.051 18.4014C285.021 19.1415 284.652 19.5162 284.209 20.1163C282.866 21.3727 281.066 22.7934 279.63 23.9903C279.601 22.0237 279.569 20.9264 279.266 18.9972C279.804 17.705 280.166 16.899 281 15.7705Z" fill="#2C2B29"/>
<path d="M172.917 120.135L172.859 123.09C172.406 123.314 171.477 122.864 170.911 122.736C166.232 121.677 161.249 122.241 156.498 122.093L156.283 121.409C161.245 120.937 168.008 121.635 172.917 120.135Z" fill="#2C2B29"/>
<path d="M184.597 188.453C185.63 188.074 186.553 187.651 187.558 187.226C190.239 186.092 190.982 183.719 193.932 184.838L193.95 185.146C192.949 185.742 191.384 186.484 190.781 187.371C190.631 188.239 190.55 187.971 190.916 188.665C191.9 189.07 192.5 188.914 193.477 188.543L194.271 189.773C191.251 190.547 191.279 190.34 188.755 188.881C188.05 188.474 187.449 188.899 186.567 189.215C186.797 188.61 187.351 188.394 187.919 188.079C187.582 188.091 185.843 188.416 184.597 188.453Z" fill="#2C2B29"/>
<path d="M60.755 141.066C60.3864 141.895 60.1777 142.079 59.4657 142.639C60.086 142.569 60.5439 142.534 61.1699 142.514C56.6813 145.518 47.0533 145.872 41.7939 145.782C42.7411 145.531 44.3792 145.398 45.4005 145.283L45.0644 145.072L45.4037 145.234C44.6821 145.037 44.0158 144.813 43.3066 144.576C50.972 144.677 53.9071 144.631 60.755 141.066Z" fill="#2C2B29"/>
<path d="M272.654 14.4006C277.003 14.4532 274.64 19.7641 273.676 22.2011L273.16 22.1605C271.763 20.3815 270.895 16.1969 272.654 14.4006Z" fill="#2C2B29"/>
<path d="M436.536 144.591C443.95 144.666 446.418 144.612 453.079 141.436C453.197 142.332 453.04 142.345 453.564 142.817C450.415 145.382 438.997 145.854 435.034 145.777C436.255 145.469 437.759 145.532 438.916 145.21C438.133 144.981 437.329 144.789 436.536 144.591Z" fill="#2C2B29"/>
<path d="M249.619 190.378C248.623 192.247 242.343 197.21 240.005 196.428L239.919 195.992C240.807 195.05 242.809 194.468 243.984 193.551C246.15 191.861 248.012 189.825 249.893 187.84C249.621 188.633 249.404 189.301 249.186 190.111C249.303 190.189 249.489 190.334 249.619 190.378Z" fill="#2C2B29"/>
<path d="M205.189 52.8642C206.684 52.5948 206.954 53.0058 208.244 53.4993C210.941 54.5314 213.909 54.7851 216.684 55.5416C217.503 55.7647 218.434 55.9555 218.579 56.836C215.993 57.3605 206.273 54.9549 205.189 52.8642Z" fill="#2C2B29"/>
<path d="M279.545 144.605C283.466 144.123 285.993 143.392 289.515 141.444C290.65 140.816 293.197 138.084 294.009 137.949C294.544 141.023 283.561 145.791 280.511 145.884C280.885 145.507 281.022 145.484 281.514 145.303L281.671 145.246L281.534 145.136C281.047 145.079 280.054 144.755 279.545 144.605Z" fill="#2C2B29"/>
<path d="M292.032 28.8891C292.622 28.8292 292.977 28.8642 293.559 28.8992L293.708 29.1472C293.16 29.4687 292.282 29.8636 292.01 30.3421C292.913 30.6254 294.058 30.805 294.545 31.4344L294.307 31.8447C293.432 32.2718 292.47 32.255 291.494 32.3144C289.557 32.3406 288.009 32.2792 286.071 32.1578C288.038 30.8145 289.733 29.4276 292.032 28.8891Z" fill="#2C2B29"/>
<path d="M268.958 178.754C269.98 177.488 274.616 172.334 276.13 171.885L276.421 172.213C276.157 173.735 271.23 178.263 269.821 179.683L268.958 178.754Z" fill="#2C2B29"/>
<path d="M322.948 190.091C326.512 189.38 329.384 186.18 330.95 186.462C331.517 188.672 324.455 191.867 322.589 191.319C323.288 191.12 323.562 191.194 323.849 190.708L322.948 190.091Z" fill="#2C2B29"/>
<path d="M101.387 177.153C104.033 177.153 110.711 176.974 112.804 178.22L113.038 178.633C112.089 179.262 104.206 178.32 101.725 178.329C102.555 178.064 103.751 177.984 104.643 177.889C103.227 177.733 102.733 177.705 101.387 177.153Z" fill="#2C2B29"/>
<path d="M249.675 181.775C251.182 179.157 257.179 176.139 259.99 174.958C260.115 175.627 259.99 175.508 260.391 175.922C257.307 176.465 251.465 179.845 250.137 182.847L249.675 181.775Z" fill="#2C2B29"/>
<path d="M193.478 188.543C194.935 188.074 198.934 186.32 200.002 186.742C199.797 188.474 195.813 189.334 194.271 189.773L193.478 188.543Z" fill="#2C2B29"/>
<path d="M431.402 100.037C433.702 100.069 444.856 99.96 446.258 100.267C444.714 100.325 442.146 100.151 441.016 101.005C439.634 100.719 433.822 100.931 432.19 100.971L432.359 100.454L431.402 100.037Z" fill="#2C2B29"/>
<path d="M259.228 105.011C260.585 103.535 266.096 100.871 268.085 100.398L268.361 101.238C264.717 102.384 263.337 103.139 260.333 105.524L259.228 105.011Z" fill="#2C2B29"/>
<path d="M288.385 33.0784C288.566 33.0806 288.747 33.0862 288.928 33.0948C289.799 33.1373 294.321 33.5916 294.86 34.1805L294.781 34.6595L293.707 35.2175C293.081 35.2308 292.709 35.1972 292.188 34.7789C291.002 33.8238 289.395 34.2206 287.663 33.6795L287.644 33.3959L288.385 33.0784Z" fill="#2C2B29"/>
<path d="M414.245 180.486C415.336 180.425 416.153 180.362 416.557 181.488C416.217 182.385 416.251 182.16 415.4 182.837L414.734 182.975C413.927 182.702 414.194 182.91 413.731 182.193C413.727 181.053 413.614 181.48 414.245 180.486Z" fill="#2C2B29"/>
<path d="M433.386 180.216C434.122 180.477 434.401 180.912 434.44 181.646C434.107 182.455 433.674 182.641 432.926 183.123C432.021 182.481 431.943 182.647 431.627 181.778C431.876 181.057 432.718 180.645 433.386 180.216Z" fill="#2C2B29"/>
<path d="M186.429 180.428C187.066 180.161 187.8 180.44 188.099 181.064C188.397 181.687 188.154 182.435 187.546 182.763C187.125 182.99 186.614 182.967 186.215 182.703C185.817 182.439 185.596 181.978 185.64 181.502C185.685 181.026 185.988 180.613 186.429 180.428Z" fill="#2C2B29"/>
<path d="M349.829 150.02C350.006 150.35 350.174 150.715 350.424 150.986C350.03 151.827 348.76 153.544 348.041 154.176C348.017 153.516 349.455 150.805 349.829 150.02Z" fill="#2C2B29"/>
<path d="M249.25 47.8559C250.339 46.8856 250.884 46.3619 252.151 45.6265L252.743 46.0634C251.552 46.8047 250.517 47.2666 249.25 47.8559Z" fill="#2C2B29"/>
</svg>
