<svg width="17" height="24" viewBox="0 0 17 24" fill="none" xmlns="http://www.w3.org/2000/svg">
<path d="M8.37523 11.0833C8.6179 11.0296 9.13388 11.2403 9.33398 11.3649C9.43786 11.4297 9.46936 11.4698 9.53152 11.5005C9.61326 11.5415 9.68308 11.6029 9.73502 11.6771C9.77759 11.7377 9.81591 11.7718 9.89084 11.8734C9.99557 12.0167 10.1114 12.1515 10.2306 12.2837C10.566 12.6549 10.8368 13.0695 11.0931 13.4969C11.5921 14.3288 12.0663 15.1768 12.5423 16.0223C13.0089 16.8507 13.4176 17.7141 13.8629 18.5545C14.0817 18.9674 14.275 19.3889 14.5296 19.7822C14.7834 20.1738 15.072 20.5389 15.3598 20.9058C15.6476 21.2726 15.966 21.6173 16.2487 21.9859C16.5076 22.322 16.5357 22.7094 16.356 23.0882C16.2513 23.31 15.9805 24.0932 15.6936 23.9908C15.5224 23.9294 15.3453 23.7425 15.2065 23.6282C15.0226 23.4764 14.8515 23.3134 14.6786 23.1496C13.9992 22.5072 13.4363 21.8306 12.8999 21.0645C12.3609 20.2941 11.9497 19.4452 11.518 18.6116C11.0718 17.7491 10.6384 16.8806 10.1582 16.0359C9.91808 15.6136 9.67116 15.1964 9.41657 14.7835C9.16709 14.3791 8.9406 13.8962 8.63237 13.5345C8.39481 13.2555 8.07892 13.7264 7.89926 13.9005C7.5706 14.2187 7.23427 14.5276 6.92178 14.862C6.28999 15.5377 5.71951 16.2586 5.11412 16.9557C4.4917 17.6723 3.87013 18.3898 3.24856 19.1073C2.95821 19.4426 2.776 19.7694 2.58783 20.1687C2.43456 20.4946 2.24639 20.9843 1.88792 21.1268C1.51157 21.2761 0.932579 21.1157 0.540905 21.0773C0.410631 21.0645 0.0879257 21.0875 0.0189571 20.9664C-0.050863 20.8435 0.0913316 20.5185 0.136459 20.405C0.281208 20.0398 0.472788 19.6841 0.639675 19.3274C0.8287 18.923 1.05008 18.5246 1.32255 18.1688C1.90665 17.4061 2.59208 16.7048 3.22132 15.9788C3.86502 15.2365 4.4934 14.4806 5.13541 13.7367C5.73058 13.0465 6.39217 12.3528 7.11506 11.7957C7.28621 11.6643 7.59018 11.4075 7.81922 11.2727M7.981 1.16534C7.65659 1.38204 7.46757 1.61325 7.17637 1.89564C6.83578 2.22582 6.49264 2.55343 6.15631 2.88872C5.33806 3.70264 4.5198 4.51314 3.6794 5.30488C3.11488 5.8364 2.56654 6.38498 2.03778 6.95148C1.43665 7.59476 0.849135 8.22269 0.580924 9.08268C0.511104 9.3045 0.466827 9.53144 0.437026 9.76179C0.420848 9.88209 0.329742 10.1969 0.377424 10.295C0.464273 10.4742 1.14885 10.3104 1.35831 10.2703C1.73721 10.1978 2.09653 9.90768 2.39114 9.66794C2.6883 9.4265 2.94033 9.13643 3.1847 8.84208C4.21923 7.59647 5.50324 6.55732 6.64335 5.41152C7.06057 4.99262 7.47523 4.57116 7.89671 4.15652C8.31818 3.74188 8.73114 3.32725 9.17986 2.94674C9.26586 2.87422 9.41146 2.68567 9.523 2.7215C9.61326 2.75051 9.74524 3.073 9.79036 3.15747C10.1429 3.81526 10.5328 4.4483 10.9364 5.07452C11.3681 5.74511 11.7215 6.43702 12.2358 7.05812C12.7799 7.71591 13.4457 8.2807 14.0715 8.85829C14.3917 9.15434 14.6999 9.48622 15.0805 9.70548C15.244 9.80018 15.3589 9.83516 15.5437 9.77032C15.6961 9.71743 15.9541 9.60993 16.0665 9.49305C16.3058 9.24392 15.886 8.76359 15.7625 8.53409C15.5863 8.20733 15.3572 7.89337 15.2108 7.55296C14.9153 6.86446 14.5296 6.25103 14.1618 5.60092C13.7556 4.88512 13.3248 4.18467 12.9076 3.47314C12.5534 2.8691 12.1532 2.29236 11.7147 1.74634C11.4388 1.40337 11.1612 1.06125 10.8785 0.724251C10.6563 0.459771 10.4136 0.16799 10.0773 0.0502534C9.68734 -0.0862525 9.34845 0.0792609 9.00787 0.260984C8.68261 0.435029 8.64089 0.559591 8.39311 0.754112" fill="#777777"/>
</svg>
