<svg width="23" height="24" viewBox="0 0 23 24" fill="none" xmlns="http://www.w3.org/2000/svg">
<path d="M11.3275 0C11.6811 0.0379035 12.8134 0.186771 11.9639 0.550973C11.7086 0.660289 11.127 0.479012 10.8228 0.509225C10.288 0.563059 9.70368 0.719616 9.20013 0.8954C7.48904 1.49197 6.02506 2.70543 4.82246 4.0315C2.0532 7.08465 1.09552 10.9189 2.13282 14.9241C3.04822 18.4595 5.59399 21.5017 9.24406 22.3773C12.8562 23.2436 16.8352 20.4909 19.1927 17.9382C20.7698 16.2304 21.4276 14.6576 21.2783 12.3241C21.1591 10.4668 20.6155 8.66451 19.6325 7.0808C18.6386 5.47952 17.3426 4.4012 15.7348 3.46075C15.2581 3.18224 14.1176 2.78123 15.0066 2.22532C15.6815 1.80344 17.0038 2.16214 17.6611 2.4434C20.9867 3.8678 22.9004 8.024 22.9959 11.4534C23.1069 15.4201 20.9394 18.7325 17.7929 20.9886C16.2004 22.1307 14.1923 23.3612 12.2659 23.8072C10.1974 24.2862 7.77733 23.8264 5.87899 22.9371C4.09761 22.1021 2.57377 20.7524 1.59632 19.0391C0.505749 17.1274 0.333871 15.1801 0 13.0712C0 12.9262 0 12.7812 0 12.6361C0.242166 11.2705 0.247658 9.96751 0.68806 8.62276C1.1713 7.14947 1.90493 5.74869 2.84889 4.51875C4.70934 2.09403 7.40228 0.323003 10.4714 0C10.7569 0 11.0419 0 11.3275 0Z" fill="#777777"/>
</svg>
