<svg width="33" height="33" viewBox="0 0 33 33" fill="none" xmlns="http://www.w3.org/2000/svg">
<g clip-path="url(#clip0_7653_1971)">
<path d="M18.9998 12.5262C19.2378 12.4057 19.4171 12.2705 19.6337 12.1297C19.8434 11.9934 20.1434 11.9123 20.3814 11.8357C20.7897 11.705 21.1573 11.5034 21.5487 11.3445C21.9795 11.1699 22.4848 11.055 22.9348 10.9255C23.4243 10.7847 23.9498 10.734 24.454 10.6664C24.9457 10.601 25.4363 10.5785 25.9269 10.4895C26.4908 10.3881 27.0434 10.3037 27.6175 10.3003C28.1972 10.2958 28.7882 10.3138 29.3656 10.3589C29.6261 10.3791 29.8743 10.4197 30.1212 10.5042C30.4055 10.601 30.6355 10.7576 30.9355 10.779C30.9649 11.0618 31.187 11.2645 31.3156 11.5034C31.4645 11.7771 31.5649 12.0891 31.6788 12.3786C31.7994 12.6816 31.9224 12.9835 32.0318 13.2899C32.1389 13.5873 32.3464 13.9906 32.2968 14.3117C32.2788 14.4311 32.228 14.5471 32.1491 14.6383C32.0735 14.7262 32.0115 14.8287 31.9461 14.9087C31.7972 15.09 31.5784 15.2207 31.3765 15.3413C31.1036 15.5057 30.8904 15.6465 30.5893 15.7468C30.3355 15.8313 30.0953 15.9225 29.8314 15.9879C29.1976 16.1433 28.5581 16.2514 27.9288 16.4261C27.3761 16.5804 26.7942 16.6908 26.263 16.898C25.7137 17.1121 25.0957 17.2349 24.5182 17.3543C23.8652 17.4906 23.2517 17.7283 22.6134 17.9153C22.6111 17.9299 22.61 17.9457 22.6077 17.9603C23.3904 18.5923 23.9611 19.4247 24.5972 20.1964C25.2254 20.959 25.9494 21.6428 26.5652 22.4144C27.0885 23.07 27.5893 23.7448 27.9547 24.5018C28.1385 24.8836 28.3246 25.2171 28.4047 25.6305C28.5017 26.1351 28.6697 26.6815 28.6043 27.2019C28.5457 27.6638 28.2784 28.182 28.0957 28.6066C27.9254 29.0043 27.737 29.4098 27.3976 29.6914C27.0592 29.973 26.6656 30.0395 26.2382 30.0451C25.6731 30.0519 25.0517 30.1093 24.4923 30.035C23.5765 29.9145 22.5288 29.6283 21.737 29.1361C21.3051 28.8668 21.0186 28.4365 20.6882 28.0603C20.3837 27.7145 20.1288 27.3472 19.8367 27.0048C19.4994 26.6094 19.0889 26.2636 18.8408 25.8006C18.8058 25.7341 18.7889 25.6496 18.7449 25.573C18.6581 25.4243 18.5239 25.2914 18.4246 25.1495C18.2735 24.9343 18.1607 24.7135 18.0558 24.4736C17.8269 23.9475 17.6904 23.4079 17.4784 22.8796C17.2776 22.3817 17.0453 21.9052 16.919 21.3859C16.9032 21.378 16.8885 21.3702 16.8728 21.3623C16.7115 21.5245 16.6212 21.6777 16.5096 21.8782C16.3946 22.0832 16.2299 22.2466 16.1171 22.4527C15.9028 22.8458 15.7032 23.2615 15.516 23.6682C15.3017 24.1368 15.075 24.6009 14.8517 25.065C14.6194 25.5516 14.422 26.0349 14.2088 26.5294C13.8062 27.4644 13.2784 28.3284 12.7055 29.1676C12.4111 29.5979 12.0615 29.9685 11.6983 30.338C11.4209 30.6196 11.0938 30.8652 10.8367 31.1592C10.3415 31.727 9.41335 32.3826 8.63178 32.0548C7.74869 31.6842 6.68854 31.1333 6.20584 30.2761C5.97125 29.8593 5.99268 29.3614 6.00057 28.895C6.01072 28.325 6.07388 27.7561 6.1596 27.1929C6.31523 26.1689 6.55659 25.1878 7.00884 24.2573C7.22651 23.809 7.40922 23.3325 7.56711 22.8582C7.6596 22.5822 7.81411 22.3378 7.92012 22.0674C8.01035 21.8376 8.05772 21.5943 8.1626 21.3713C8.64193 20.3462 9.3299 19.4585 10.0201 18.5731C10.0134 18.5607 10.0066 18.5483 9.99982 18.5359C9.12914 18.5359 8.26072 18.5664 7.39005 18.5911C6.93215 18.6047 6.47426 18.5911 6.01636 18.5776C5.56523 18.5641 5.1096 18.5956 4.66185 18.5247C3.76749 18.385 2.86185 18.2363 1.98102 18.0234C1.58967 17.9288 1.21185 17.7936 0.826137 17.6821C0.458468 17.5751 0.122378 17.5289 -0.183261 17.2687C-0.475367 17.0197 -0.378374 16.6299 -0.254314 16.2988C-0.109953 15.9124 0.0479416 15.526 0.223881 15.152C0.585912 14.3849 1.05847 13.6921 1.86486 13.3564C2.69719 13.0094 3.56335 12.6681 4.43742 12.4395C5.31937 12.2097 6.24644 12.3155 7.14644 12.3516C8.16035 12.3933 9.16862 12.4834 10.1735 12.6264C11.1389 12.7639 12.1303 13.1559 13.107 13.1559C12.904 12.1601 12.8476 11.1688 12.8081 10.155C12.7709 9.19858 12.6288 8.20728 12.7754 7.25654C12.8453 6.8037 12.8295 6.35761 12.8904 5.90364C12.957 5.40686 13.081 4.91797 13.1972 4.43134C13.4182 3.50537 13.7622 2.62109 14.3318 1.84495C14.581 1.50475 14.9464 1.29748 15.3096 1.09922C15.763 0.851397 16.222 0.614837 16.6833 0.382783C17.3746 0.0347023 18.3006 -0.320137 18.8363 0.48304C19.0641 0.824362 19.116 1.39436 19.1893 1.79426C19.2874 2.32595 19.3686 2.8599 19.4509 3.39385C19.5964 4.33671 19.778 5.28971 19.8457 6.24158C19.8863 6.8082 19.8434 7.38383 19.8491 7.9527C19.8547 8.46525 19.8603 8.94851 19.7622 9.45317C19.6585 9.98824 19.5615 10.5177 19.4273 11.0471C19.3021 11.5417 19.1081 12.026 18.9987 12.5217L18.9998 12.5262ZM6.62539 5.80676C6.53403 6.06135 6.42802 6.3317 6.50358 6.60656C6.6096 6.99294 7.19268 7.43452 7.60433 7.37369C7.95057 7.32187 8.29681 6.58065 8.22463 6.25623C8.16711 5.99376 7.86937 5.81803 7.67313 5.66595C7.49042 5.52402 7.22313 5.2807 7.00433 5.52402C6.72802 5.39785 6.70997 5.5702 6.62539 5.80564V5.80676ZM29.7051 20.4352C30.0931 20.3225 30.8904 20.2786 30.6085 19.712C30.3953 19.2839 30.0942 18.7286 29.5461 18.8671C29.2043 18.9539 28.3833 19.089 28.6246 19.5824C28.8231 19.988 29.2066 20.4724 29.7051 20.3969C29.7051 20.4093 29.7051 20.4217 29.7051 20.4352ZM23.4322 5.15003C23.2867 5.28971 23.3442 5.47558 23.4028 5.64906C23.5788 6.16386 23.7378 6.55587 24.3491 6.5187C24.7461 6.49391 25.2931 6.26186 25.1679 5.76621C25.0833 5.43052 24.6344 4.94388 24.2724 4.94388C24.0885 4.98556 23.572 5.01598 23.4322 5.15003ZM2.80997 21.3916C2.70621 21.5887 2.60471 21.8162 2.59456 22.0415C2.57426 22.5023 2.99945 22.8582 3.41674 22.9574C3.66035 23.0148 3.78779 23.0813 3.88253 22.8244C3.97163 22.5822 4.07087 22.1947 4.07539 21.9334C4.08102 21.6675 3.89945 21.5617 3.70095 21.4096C3.48441 21.2451 3.32651 20.995 3.13366 21.2586C2.92726 21.1775 2.90584 21.2091 2.80997 21.3916ZM16.5333 28.2417C16.3461 28.2822 16.2953 28.2664 16.2795 28.4467C16.266 28.5999 16.4374 28.9716 16.5457 29.0888C16.6573 29.2104 16.7994 29.2487 16.9596 29.2521C17.2314 29.2566 17.9983 29.26 18.0389 28.8522C18.0716 28.5199 17.6679 28.0614 17.3408 28.0693C17.0724 28.1268 16.8028 28.1842 16.5344 28.2417H16.5333Z" fill="#C4B7A5"/>
</g>
<defs>
<clipPath id="clip0_7653_1971">
<rect width="32.6786" height="32.1429" fill="white"/>
</clipPath>
</defs>
</svg>
