<svg width="39" height="16" viewBox="0 0 39 16" fill="none" xmlns="http://www.w3.org/2000/svg">
<path d="M10.2607 11.7074C10.1581 10.9813 10.6238 9.87329 10.8143 9.17156C9.36113 10.4081 7.99674 11.6431 6.38568 12.6827C5.5423 13.2273 4.61587 13.6726 3.61374 13.8004C3.17821 13.8558 1.55169 14.03 1.5932 13.2623C1.60134 13.1166 1.75276 13.0482 1.80649 12.9188C1.905 12.6802 1.9343 12.3872 2.02711 12.1389C2.18667 11.7099 2.37309 11.2816 2.57824 10.8722C2.99667 10.0377 3.59014 9.25948 4.17139 8.53169C4.66065 7.9195 5.06687 7.25929 5.61231 6.69595C5.96155 6.33531 6.32707 5.98119 6.70317 5.64904C6.89855 5.47727 7.77775 4.93754 7.8559 4.6982C6.67956 5.15571 5.44216 5.46994 4.28454 5.96979C3.40208 6.35159 1.87406 7.32848 0.868674 6.91656C0.445354 6.74153 -0.0056451 6.07236 5.34468e-05 5.60915C0.00656607 5.0393 0.512922 4.53945 0.867046 4.1487C1.7088 3.21902 2.68895 2.67847 3.78959 2.10618C5.89235 1.01205 8.5959 -0.12277 11.0162 0.0107392C12.0614 0.0685388 13.4844 0.323345 14.3734 0.905411C14.8871 1.24162 14.9205 1.18627 15.5652 1.00066C16.2661 0.798766 16.9744 0.665258 17.694 0.546402C20.2201 0.130409 22.8545 -0.023452 25.3952 0.364863C28.2119 0.794696 30.5882 1.79194 33.0101 3.25647C34.1278 3.93215 35.2138 4.66157 36.2029 5.51879C36.7093 5.95676 37.1847 6.43544 37.6406 6.9247C38.0004 7.31057 38.8373 8.06197 38.8584 8.63019C38.8829 9.26436 38.1518 8.72056 37.9345 8.51948C37.4379 8.06197 36.9641 7.60201 36.4268 7.18928C35.2887 6.31577 34.0782 5.53996 32.8351 4.82519C31.4943 4.05426 30.182 3.26705 28.737 2.70127C27.4125 2.1827 25.9472 1.90184 24.538 1.7317C23.0515 1.55179 21.5381 1.52085 20.0435 1.59819C18.7019 1.66739 17.0411 1.71542 15.8013 2.27062C15.9714 2.89095 15.693 3.72945 15.7077 4.38396C15.728 5.30469 15.5734 6.06829 15.3796 6.95645C15.0239 8.58542 15.023 10.2136 14.4231 11.8018C14.0657 12.7478 12.9789 15.7314 11.5779 15.4424C10.1093 15.1387 10.0979 12.8325 10.2607 11.7082V11.7074Z" fill="#A3AA99"/>
</svg>
