<svg width="24" height="32" viewBox="0 0 24 32" fill="none" xmlns="http://www.w3.org/2000/svg">
<g clip-path="url(#clip0_7653_2006)">
<path d="M22.8279 7.38222C22.8464 7.41811 22.8742 7.47601 22.902 7.5316C22.6148 7.8153 22.4377 8.85633 22.301 9.27899C21.9988 10.2112 21.6167 11.0403 21.0921 11.8613C20.1078 13.4014 19.2625 14.9079 18.8421 16.7063C18.4565 18.3506 18.6129 20.1154 18.4426 21.7817C18.2655 23.5175 18.6615 25.2626 19.1316 26.9313C19.4049 27.8993 20.901 31.4242 19.3378 31.7844C18.6418 31.9453 17.3657 31.7867 16.7103 31.5365C15.6924 31.1475 15.3543 30.1562 15.0718 29.1719C14.8483 28.3949 14.7973 27.5786 14.5704 26.7981C14.326 25.9597 14.1234 24.8284 13.6637 24.0872C13.3105 23.5175 12.6238 22.9327 11.9881 23.389C11.4322 23.7873 11.0524 24.9801 10.8914 25.6146C10.6575 26.5364 10.5394 27.4906 10.3785 28.425C10.2314 29.2796 10.2835 30.2604 9.89906 31.0525C9.71841 31.4231 9.54587 31.7021 9.16258 31.7693C8.83371 31.826 8.24083 31.7797 7.88185 31.7508C7.10832 31.6871 6.48417 31.3964 6.23405 30.6055C5.66085 28.791 6.03719 26.7089 5.90518 24.8388C5.76622 22.8598 5.97234 20.8843 5.76622 18.9134C5.59484 17.2795 5.0668 15.3653 4.25622 13.9364C3.41321 12.4484 2.05142 11.3275 1.25126 9.82208C0.843646 9.0555 0.139593 8.14301 0.0145313 7.27337C-0.102425 6.45815 0.409403 5.22606 1.34505 5.4067C2.129 5.5584 2.79716 6.43962 3.36573 6.95029C3.96904 7.49222 4.56076 8.01911 5.1687 8.55525C6.49691 9.72597 7.74058 10.8179 9.53545 11.2047C10.5788 11.4294 11.8375 11.5139 12.8936 11.3738C13.9833 11.2302 15.3659 11.1723 16.3386 10.6419C18.0397 9.71439 18.5596 7.47949 19.7384 6.02854C20.3278 5.30248 21.2253 4.17692 22.2883 4.81845C23.2124 5.37544 23.1301 6.53342 22.8268 7.38453L22.8279 7.38222ZM12.0761 8.38155C12.9781 8.26807 14.0365 7.51307 14.7151 6.93755C15.6183 6.17328 15.8291 4.88214 15.6589 3.7809C15.4701 2.56038 15.1899 1.88065 14.1813 1.12796C13.4008 0.545497 12.4455 0.00587744 11.4438 8.7532e-05C9.13595 -0.0138082 7.44993 1.62821 7.53214 3.89785C7.57267 5.01183 8.17367 6.44309 8.96572 7.24442C9.3328 7.61613 9.92569 7.92994 10.3738 8.19164C10.9493 8.52746 11.4287 8.42208 12.0737 8.36534C12.0737 8.36997 12.0737 8.37576 12.0749 8.3804L12.0761 8.38155Z" fill="#D9A39A"/>
</g>
<defs>
<clipPath id="clip0_7653_2006">
<rect width="23.0357" height="31.8491" fill="white"/>
</clipPath>
</defs>
</svg>
