<svg width="24" height="32" viewBox="0 0 24 32" fill="none" xmlns="http://www.w3.org/2000/svg">
<path d="M11.6388 11.059C11.5121 11.1489 11.4134 11.2246 11.3104 11.2918C10.7598 11.6522 10.1836 11.9662 9.58367 12.2346C9.18123 12.4143 8.78524 12.62 8.36671 12.7531C7.51462 13.0259 6.65502 13.2663 5.75894 13.3767C4.90256 13.4828 4.04833 13.5055 3.19302 13.4568C2.31733 13.4081 1.447 13.2771 0.598134 13.04C0.437161 12.9956 0.28048 12.9361 0.122726 12.8809C0.0164838 12.8441 -0.0221498 12.7802 0.0121912 12.6611C0.136677 12.2292 0.207506 12.174 0.653938 12.1805C1.37832 12.1913 2.1027 12.1989 2.82708 12.2086C3.27673 12.2141 3.72638 12.226 4.17604 12.2249C4.66969 12.2238 5.15905 12.1827 5.64519 12.0874C5.83406 12.0506 6.03045 12.0538 6.21932 12.0149C6.64215 11.9283 7.06497 11.833 7.4835 11.728C7.88164 11.6284 8.27656 11.5169 8.67041 11.4C8.82173 11.3556 8.96338 11.2798 9.10719 11.1954C9.06533 11.1997 9.02348 11.203 8.98055 11.2073C8.57597 11.243 8.17139 11.2982 7.76574 11.3102C7.31394 11.3231 6.86 11.3177 6.40927 11.282C6.06801 11.2549 5.72889 11.1748 5.39085 11.1077C5.01846 11.0341 4.64715 10.9583 4.28013 10.862C4.02687 10.796 3.77575 10.7083 3.53429 10.6054C3.21556 10.4701 2.90542 10.3142 2.59528 10.1584C2.36026 10.0393 2.11772 9.92671 1.90416 9.77407C1.50066 9.48504 1.11647 9.16895 0.803107 8.77492C0.679694 8.62012 0.524086 8.48805 0.495111 8.27804C0.474721 8.13299 0.453258 7.98793 0.453258 7.84287C0.453258 7.79308 0.50477 7.7173 0.551988 7.69565C0.821351 7.57441 1.08427 7.54735 1.359 7.71622C1.93314 8.06912 2.56201 8.28995 3.21234 8.45666C3.55575 8.54434 3.89058 8.66342 4.23399 8.75218C4.60422 8.84853 4.97983 8.92647 5.35329 9.0109C5.50353 9.04446 5.6527 9.0791 5.80401 9.10292C6.16674 9.16029 6.52947 9.21442 6.89327 9.26205C7.29463 9.31401 7.69599 9.37463 8.09842 9.40061C8.60173 9.43308 9.10611 9.43633 9.6105 9.44824C9.80044 9.45257 9.99147 9.44824 10.1825 9.44824C10.1825 9.43633 10.1846 9.42442 10.1846 9.41143C10.1428 9.41143 10.1009 9.4136 10.0591 9.41143C9.67381 9.38978 9.28426 9.39952 8.90543 9.33566C8.37851 9.24689 7.85696 9.12024 7.34077 8.97843C6.92009 8.8626 6.51015 8.70564 6.09806 8.5595C5.52714 8.35707 4.97232 8.12108 4.46257 7.78225C3.90667 7.41312 3.37117 7.018 2.87859 6.56443C2.65645 6.36092 2.42465 6.16715 2.21431 5.95173C1.76573 5.49274 1.45344 4.94283 1.20447 4.35394C1.14974 4.22404 1.18086 4.11687 1.28817 4.03135C1.33539 3.99347 1.38583 3.96099 1.43412 3.92419C1.53715 3.84408 1.64768 3.84408 1.74212 3.92419C1.87841 4.0411 2.01685 4.16125 2.1306 4.29982C2.57596 4.84324 3.10932 5.27624 3.70707 5.63672C4.16638 5.91384 4.61174 6.21694 5.07427 6.48865C5.34685 6.64886 5.6366 6.7831 5.9285 6.9065C6.37493 7.09594 6.82566 7.27347 7.2796 7.44451C7.62408 7.57441 7.97501 7.68483 8.32271 7.8039C8.32915 7.79416 8.33559 7.78442 8.34203 7.77576C8.31949 7.74978 8.2991 7.72163 8.27549 7.69674C8.08447 7.48889 7.87306 7.29512 7.70457 7.06888C7.40301 6.66618 7.11004 6.25375 6.84175 5.82724C6.16889 4.76097 5.74606 3.59835 5.57758 2.3448C5.54538 2.10232 5.53572 1.85334 5.54646 1.60869C5.55719 1.36946 5.73426 1.2125 5.88987 1.0263C5.9285 1.07393 5.95855 1.10641 5.9843 1.14322C6.15064 1.37596 6.26118 1.63576 6.36957 1.90206C6.60137 2.47362 6.86858 3.03111 7.11434 3.59727C7.38477 4.22296 7.79364 4.74906 8.27334 5.2167C8.64036 5.57501 9.03636 5.90193 9.42055 6.24076C9.58689 6.38798 9.7543 6.5352 9.92708 6.67376C10.0441 6.76686 10.1696 6.84913 10.2941 6.93248C10.6021 7.13924 10.9101 7.34492 11.2406 7.56467C11.2696 7.47699 11.2857 7.43044 11.3007 7.38389C11.4027 7.07429 11.5186 6.76686 11.6033 6.45293C11.6828 6.15957 11.7396 5.85863 11.7879 5.55769C11.847 5.18856 11.8995 4.81834 11.9307 4.44596C11.9532 4.17749 11.9382 3.9047 11.9328 3.63407C11.9253 3.24653 11.9156 2.85791 11.8995 2.47037C11.8749 1.87608 11.8706 1.27961 11.7429 0.693973C11.715 0.567319 11.6785 0.442831 11.6591 0.316177C11.6398 0.186276 11.7031 0.0920973 11.8137 0.0282291C11.9296 -0.039969 12.024 0.0271466 12.0852 0.105087C12.259 0.329167 12.435 0.554329 12.5756 0.798977C12.8783 1.32508 13.0725 1.89989 13.2496 2.47903C13.3665 2.86224 13.4846 3.24653 13.5822 3.63515C13.6692 3.98697 13.7389 4.34312 13.7958 4.70143C13.8473 5.02726 13.8731 5.35743 13.9063 5.68651C13.9117 5.73631 13.902 5.7861 13.8988 5.83915C13.9106 5.83373 13.9214 5.83265 13.9246 5.82724C14.1854 5.35526 14.4494 4.88545 14.6125 4.36585C14.8046 3.75423 14.8293 3.13504 14.7198 2.5061C14.6854 2.30583 14.6447 2.10557 14.6221 1.90422C14.5867 1.58596 14.7488 1.31317 15.0385 1.18219C15.1372 1.1378 15.2285 1.15404 15.2864 1.24822C15.3497 1.35106 15.4066 1.45823 15.4538 1.56864C15.706 2.16078 15.9636 2.75183 16.0913 3.38943C16.1986 3.92527 16.1643 4.45245 16.0054 4.97855C15.8455 5.51006 15.6073 5.99828 15.3111 6.46267C15.28 6.51139 15.2574 6.56443 15.2531 6.63371C15.3057 6.58608 15.3626 6.5417 15.4098 6.48974C15.8455 6.00694 16.2845 5.52738 16.7116 5.03701C16.9766 4.73174 17.2417 4.42322 17.4735 4.09197C17.672 3.80727 17.833 3.49443 17.9854 3.18158C18.0401 3.069 18.0401 2.9207 18.0348 2.7908C18.0283 2.60352 18.0766 2.48228 18.2365 2.39352C18.3116 2.3513 18.3878 2.31233 18.464 2.27444C18.6261 2.19433 18.7355 2.22031 18.7967 2.38702C18.948 2.80162 19.0993 3.2303 19.0489 3.67521C18.9942 4.15692 18.8353 4.61374 18.5606 5.02726C17.716 6.29813 16.6407 7.34492 15.4892 8.32459C14.8614 8.85827 14.209 9.35514 13.5168 9.79897C13.4889 9.81629 13.4653 9.83902 13.4395 9.85959C13.4438 9.87366 13.4481 9.88882 13.4524 9.90289C13.6209 9.86392 13.7926 9.83578 13.9568 9.78273C14.1145 9.73186 14.2658 9.65933 14.4182 9.59113C14.635 9.49479 14.8507 9.39736 15.0643 9.29452C15.2875 9.18735 15.5096 9.07694 15.7286 8.96111C15.9346 8.85286 16.1353 8.73486 16.3381 8.6212C16.5731 8.49022 16.8071 8.35923 17.0421 8.22825C17.1612 8.16113 17.2836 8.09943 17.4005 8.02798C17.7557 7.81148 18.111 7.59498 18.4619 7.3709C18.6969 7.22043 18.9255 7.05914 19.1551 6.90109C19.4825 6.67484 19.8237 6.467 20.1296 6.2137C20.5867 5.8359 21.0267 5.43537 21.4581 5.02726C21.7876 4.7155 22.101 4.38425 22.4057 4.04651C22.5249 3.91444 22.601 3.74341 22.6944 3.58861C22.7792 3.44572 22.8178 3.43489 22.9606 3.52366C23.3866 3.78887 23.4091 3.83975 23.3083 4.33337C23.1913 4.9071 22.9541 5.43537 22.6837 5.94848C22.4004 6.48649 22.0827 7.00176 21.6953 7.47157C21.5129 7.69349 21.3422 7.92623 21.1437 8.1319C20.8722 8.41444 20.5932 8.69373 20.2916 8.94271C19.9493 9.22632 19.5823 9.48071 19.2185 9.73727C18.9867 9.90073 18.7441 10.0469 18.5027 10.1941C18.0949 10.442 17.6871 10.692 17.2718 10.9269C17.0324 11.0623 16.7781 11.1716 16.5302 11.2907C16.3413 11.3816 16.1567 11.4855 15.9604 11.5537C15.5901 11.6825 15.2188 11.8168 14.8378 11.899C14.3184 12.0116 13.8205 11.9001 13.359 11.6349C13.3182 11.6122 13.2753 11.5927 13.2217 11.5656C13.2131 11.6046 13.2013 11.6317 13.2023 11.6587C13.2077 11.9488 13.197 12.2411 13.2281 12.528C13.2753 12.9772 13.3504 13.4243 13.4148 13.8725C13.4384 14.0392 13.4621 14.2059 13.4857 14.3726C13.52 14.6205 13.5361 14.8716 13.5908 15.1152C13.6552 15.4042 13.7539 15.6857 13.8355 15.9714C13.8978 16.1869 13.9514 16.4045 14.019 16.6188C14.0888 16.8396 14.165 17.0594 14.2465 17.2759C14.3184 17.4664 14.4086 17.6504 14.4815 17.8399C14.532 17.9719 14.5653 18.1105 14.6103 18.2447C14.7241 18.5814 14.8346 18.9202 14.9591 19.2536C15.0332 19.4506 15.1437 19.6325 15.2167 19.8295C15.31 20.0785 15.3723 20.3383 15.4656 20.5862C15.5762 20.8828 15.7039 21.1729 15.8251 21.4652C15.9775 21.8343 16.1256 22.2045 16.2834 22.5704C16.3971 22.8346 16.5248 23.0922 16.6429 23.3542C16.7062 23.4938 16.7556 23.641 16.8242 23.7774C16.9348 23.9983 17.056 24.2148 17.1741 24.4324C17.2632 24.598 17.3522 24.7647 17.4435 24.9292C17.5411 25.1035 17.6431 25.2756 17.7407 25.4499C17.8276 25.6058 17.9092 25.7649 17.9951 25.9219C18.1045 26.1221 18.2097 26.3246 18.3299 26.5183C18.4791 26.7576 18.6497 26.9838 18.7967 27.2252C19.0328 27.6095 19.2388 28.0144 19.4921 28.3868C19.8087 28.8512 20.1671 29.2852 20.4934 29.7421C20.7134 30.0495 20.9237 30.3667 21.1083 30.6968C21.2381 30.9274 21.2177 31.2002 21.2102 31.46C21.2092 31.5044 21.1705 31.5585 21.1351 31.5888C20.9741 31.7274 20.5159 31.7436 20.3517 31.6137C20.1328 31.4416 19.9192 31.2619 19.7014 31.0865C19.4245 30.8635 19.1401 30.6503 18.8729 30.4176C18.698 30.266 18.508 30.135 18.3664 29.9369C18.2151 29.7247 17.9961 29.5635 17.8158 29.3708C17.6849 29.2311 17.5733 29.0731 17.4488 28.928C17.349 28.8111 17.2396 28.7029 17.1408 28.5849C17.0925 28.5286 17.0636 28.456 17.0163 28.3976C16.9584 28.3261 16.8843 28.2677 16.8318 28.193C16.7309 28.0533 16.6461 27.9018 16.5442 27.7643C16.4486 27.6355 16.3317 27.5218 16.2362 27.3941C16.073 27.1765 15.9131 26.9568 15.7629 26.7316C15.5697 26.4415 15.3798 26.147 15.2006 25.8472C15.0825 25.648 14.9859 25.4369 14.8797 25.2302C14.781 25.0364 14.6801 24.8426 14.5856 24.6478C14.518 24.5092 14.4601 24.3652 14.3936 24.2256C14.2197 23.8565 14.0383 23.4906 13.8709 23.1182C13.8087 22.9785 13.7829 22.8227 13.7293 22.6787C13.6434 22.4503 13.5458 22.2273 13.4567 21.9999C13.3773 21.8008 13.3022 21.5994 13.2227 21.3992C13.1358 21.1794 13.0403 20.964 12.9609 20.7421C12.8804 20.5158 12.8225 20.2809 12.7409 20.0547C12.6754 19.8739 12.5896 19.7018 12.5123 19.5253C12.5005 19.4983 12.4844 19.4712 12.4758 19.4431C12.3191 18.878 12.1389 18.3183 12.0154 17.7468C11.9167 17.2889 11.8856 16.8158 11.8266 16.3492C11.7847 16.0191 11.7439 15.69 11.7053 15.3598C11.6903 15.2267 11.6871 15.0924 11.671 14.9593C11.5776 14.2059 11.5744 13.4503 11.6044 12.6936C11.6216 12.2444 11.6162 11.794 11.6216 11.3437C11.6227 11.2582 11.6312 11.1738 11.6377 11.0633L11.6388 11.059Z" fill="#D9A39A"/>
</svg>
