<svg width="15" height="33" viewBox="0 0 15 33" fill="none" xmlns="http://www.w3.org/2000/svg">
<g clip-path="url(#clip0_7653_1994)">
<path d="M10.0182 31.999C9.85157 32.0064 9.69142 31.982 9.52557 31.9877C8.65324 32.0169 7.59636 32.1202 6.7655 32.1316C5.98015 32.1429 4.99238 32.2177 4.33549 31.7291C3.61275 31.1909 3.19895 30.0918 2.69896 29.3463C2.12906 28.4983 1.64696 27.6618 1.21365 26.735C0.218556 24.6074 -0.531013 22.5554 0.487653 20.2815C1.30795 18.4507 3.55503 18.1109 4.57858 16.3678C5.72407 14.4167 4.05583 12.3257 3.63145 10.4014C3.37861 9.25425 3.50544 8.20063 3.99811 7.13318C4.56801 5.89745 5.85008 6.2454 6.53786 5.30966C7.01345 4.66253 6.30616 3.15689 6.51428 2.25935C6.78501 1.08622 7.59555 0.0496693 8.88006 0.000890424C10.9946 -0.0787818 11.8922 2.40894 11.6653 4.1219C11.519 5.22755 10.632 6.45353 10.8548 7.573C11.0117 8.36078 11.8019 9.22661 12.4271 9.72822C13.288 10.4193 14.6295 11.1753 14.71 12.4273C14.766 13.3005 14.2547 14.1785 13.5384 14.6451C13.1352 14.9077 12.9775 15.4126 13.1344 15.8679C13.3807 16.5825 13.4571 17.332 13.4197 18.1279C13.388 18.8133 13.0946 19.7198 13.2482 20.3783C13.4027 21.04 14.0222 21.6254 14.262 22.2546C14.5555 23.0237 14.7506 24.0269 14.6994 24.8594C14.5986 26.5204 14.0165 28.3675 13.0694 29.7398C12.7295 30.2324 12.323 31.0332 11.893 31.4373C11.5621 31.7486 10.602 31.973 10.0174 31.999H10.0182Z" fill="#C4B7A5"/>
</g>
<defs>
<clipPath id="clip0_7653_1994">
<rect width="14.7133" height="32.1429" fill="white"/>
</clipPath>
</defs>
</svg>
