<svg width="16" height="24" viewBox="0 0 16 24" fill="none" xmlns="http://www.w3.org/2000/svg">
<path d="M0 11.3495C0.016714 11.2184 0.0160455 11.1658 0.133712 11.1052C0.272104 11.0332 0.461307 11.0013 0.608391 10.9433C0.912586 10.8235 1.20943 10.691 1.51763 10.5824C2.1648 10.3547 2.83336 10.1683 3.50861 10.0437C3.83754 9.98314 4.16781 9.92787 4.49875 9.8746C4.6806 9.8453 4.86244 9.81734 5.04429 9.78671C5.11315 9.77538 5.23416 9.77539 5.28096 9.71146C5.32442 9.6522 5.30303 9.50104 5.30436 9.43911C5.30704 9.26199 5.30904 9.0842 5.31172 8.90707C5.3164 8.55216 5.32509 8.19724 5.32509 7.84232C4.5509 7.87562 3.78339 7.87628 3.00786 7.86963C2.63814 7.8663 2.27043 7.81569 1.90005 7.82102C1.51897 7.82568 1.12318 7.83566 0.74344 7.79172C0.544209 7.76908 0.0361023 7.58329 0.016714 7.34491C0.00601705 7.2124 0.104296 6.98866 0.177837 6.88079C0.273441 6.74029 0.535517 6.74029 0.695303 6.70633C1.46749 6.53985 2.23767 6.40801 3.01588 6.28016C3.42771 6.21224 3.83821 6.14032 4.25004 6.07041C4.44393 6.03778 4.6358 6.00115 4.82835 5.96054C4.94668 5.9359 5.26559 5.94122 5.34381 5.846C5.41735 5.75611 5.36654 5.5044 5.36788 5.38921C5.36921 5.18411 5.37389 4.97836 5.37791 4.77326C5.38526 4.36175 5.37857 3.95023 5.36988 3.53871C5.35384 2.74631 5.27628 1.9346 5.41 1.14886C5.46682 0.814583 5.54371 0.389749 5.7777 0.126059C6.00769 -0.13297 6.24169 0.0488162 6.35668 0.297191C6.54053 0.69539 6.62745 1.15285 6.73174 1.57702C6.84005 2.0185 6.8942 2.46198 6.97242 2.90879C7.12486 3.7811 7.01655 4.67671 7.14358 5.54902C7.48521 5.49641 7.86094 5.48243 8.18987 5.38388C8.52081 5.28533 8.86311 5.23672 9.20341 5.18145C9.91543 5.06625 10.6234 4.96104 11.3428 4.90777C12.0368 4.8565 12.7361 4.86116 13.4314 4.81388C13.7844 4.78991 14.1374 4.75928 14.4911 4.7453C14.6301 4.73997 14.7692 4.72865 14.8969 4.79058C15.058 4.86848 15.2078 4.99833 15.3535 5.10221C15.5761 5.26003 15.9064 5.42583 15.9813 5.71149C16.0555 5.99583 15.8897 6.36739 15.8208 6.64307C15.7901 6.76625 15.7513 6.88811 15.7179 7.00864C15.6778 7.15247 15.6163 7.13782 15.4665 7.14448C15.1202 7.15979 14.7739 7.17378 14.4275 7.18976C13.7322 7.22172 13.0363 7.25102 12.3416 7.29097C11.6376 7.33092 10.9423 7.43613 10.2403 7.50139C9.92746 7.53069 9.61725 7.54867 9.30303 7.57397C9.0102 7.59728 8.69464 7.56398 8.41117 7.61393C8.08825 7.67119 7.75665 7.65921 7.42771 7.67452C7.31807 7.67985 7.18168 7.64855 7.14023 7.76308C7.08942 7.90026 7.14491 8.15129 7.14625 8.29912C7.14825 8.4829 7.14959 8.66735 7.15093 8.85114C7.1516 8.97632 7.08742 9.25733 7.14157 9.36653C7.19505 9.47307 7.3281 9.4238 7.43574 9.41514C7.62561 9.39983 7.81615 9.38318 8.00602 9.36853C8.68595 9.31526 9.36587 9.26399 10.0485 9.27065C10.7725 9.2773 11.4972 9.28862 12.2206 9.32658C12.5242 9.34256 12.8257 9.34989 13.1285 9.37852C13.3037 9.39517 13.4782 9.41381 13.6534 9.42979C13.7343 9.43712 13.7623 9.40449 13.8285 9.40249C13.9094 9.39983 13.9816 9.43246 14.0578 9.45643C14.3955 9.5603 14.717 9.69148 15.0379 9.83931C15.3288 9.97315 15.4779 10.1123 15.5039 10.4406C15.518 10.6151 15.5206 10.7915 15.5247 10.9667C15.5267 11.0545 15.5287 11.1418 15.5307 11.2297C15.532 11.3036 15.5688 11.4714 15.538 11.5366C15.4718 11.6778 14.8675 11.5167 14.7137 11.4874C14.0806 11.3682 13.4147 11.3935 12.7695 11.3722C12.0842 11.3495 11.399 11.3649 10.713 11.3402C10.011 11.3156 9.30971 11.2889 8.60706 11.2823C8.24737 11.279 7.8937 11.2923 7.53535 11.3229C7.43106 11.3316 7.24386 11.2989 7.19907 11.4061C7.14892 11.5267 7.21645 11.7864 7.2238 11.9162C7.24319 12.2445 7.30002 12.5654 7.30002 12.8931C7.4003 12.8791 7.34347 13.1667 7.35885 13.24C7.40097 13.4364 7.44844 13.6295 7.48187 13.83C7.54939 14.2388 7.61759 14.6457 7.65569 15.0578C7.67174 15.2303 7.71519 15.3941 7.75263 15.5626C7.79409 15.7497 7.79208 15.9381 7.81748 16.1273C7.87298 16.5448 7.97794 16.9516 8.07221 17.3618C8.16113 17.7473 8.21394 18.1396 8.30219 18.5251C8.34765 18.7222 8.39312 18.9193 8.43724 19.1171C8.47735 19.3002 8.48137 19.4853 8.51814 19.6664C8.58834 20.01 8.66321 20.3776 8.67592 20.7325C8.69063 21.138 8.67458 21.5456 8.69731 21.9511C8.70801 22.1429 8.82166 22.3566 8.78289 22.5457C8.74411 22.7328 8.60371 22.9373 8.52014 23.1084C8.35768 23.4447 8.23734 23.8768 7.84022 24H7.59953C7.26057 23.9161 6.91493 23.8455 6.57998 23.7483C6.41351 23.6997 6.43891 23.6737 6.47435 23.5266C6.50777 23.3874 6.47568 23.2349 6.46298 23.0944C6.3988 22.3966 6.43624 21.6654 6.30319 20.9776C6.06318 19.7397 5.78706 18.5111 5.54638 17.2739C5.4334 16.6939 5.38192 16.0753 5.34381 15.4867C5.3037 14.8627 5.23884 14.2275 5.24419 13.6029C5.24954 12.9736 5.25222 12.3437 5.25957 11.7144C5.26158 11.552 5.27695 11.4428 5.09042 11.4414C4.97142 11.4401 4.8464 11.4681 4.72472 11.4681C4.41117 11.4681 4.10029 11.4907 3.7874 11.5127C3.13288 11.5593 2.46966 11.6432 1.81314 11.6372C1.47485 11.6339 1.13655 11.6212 0.79893 11.6066C0.514792 11.5939 0.228648 11.6012 0.00200568 11.4161C0.00200568 11.3948 0.00200568 11.3735 0.00200568 11.3522L0 11.3495ZM10.5118 15.8209C10.5118 16.1958 10.6248 16.3244 10.9363 16.5215C11.1924 16.6833 11.5146 16.881 11.8182 16.933C12.0822 16.9783 12.0655 16.6713 12.109 16.4775C12.1825 16.1519 12.3116 15.7863 12.2942 15.45C12.2815 15.1997 12.1397 14.9953 11.9265 14.8674C11.637 14.6943 11.2967 14.5664 10.9858 14.4346C10.9129 14.4039 10.7592 14.3154 10.6803 14.3493C10.578 14.3933 10.6 14.5931 10.5927 14.679C10.5586 15.0592 10.5272 15.4401 10.4944 15.8203C10.4998 15.8203 10.5051 15.8209 10.5104 15.8216L10.5118 15.8209Z" fill="#777777"/>
</svg>
