<svg width="22" height="24" viewBox="0 0 22 24" fill="none" xmlns="http://www.w3.org/2000/svg">
<path d="M16.7524 15.0594C16.8591 15.2452 17.0537 15.3854 17.2032 15.5332C17.4083 15.7356 17.602 15.9475 17.7857 16.1705C18.1062 16.5601 18.3638 17.016 18.6065 17.459C19.1063 18.3712 19.3752 19.4882 19.3927 20.5316C19.4089 21.4968 18.7298 22.4507 17.7573 22.5452C16.7287 22.645 16.019 21.8824 15.3828 21.1694C14.621 20.3158 14.1352 19.2324 13.4644 18.3085C13.4644 19.438 13.383 20.5025 12.9882 21.568C12.6213 22.5577 12.1149 23.5622 11.0763 23.9169C10.1444 24.2349 9.10107 23.603 8.82776 22.6513C8.51422 21.5599 8.57588 20.3879 8.65022 19.2687C8.12459 20.0614 7.64576 20.8254 6.9872 21.5147C6.67366 21.8429 6.35094 22.1775 5.91321 22.3186C5.47417 22.4596 4.98834 22.4937 4.56067 22.298C3.76261 21.9325 3.39659 21.0776 3.43027 20.2182C3.46787 19.2624 3.72981 18.1876 4.20252 17.3564C4.46752 16.8906 4.74433 16.4105 5.08104 15.9954C5.25815 15.7768 5.45012 15.5722 5.64909 15.3747C5.80214 15.2233 6.09381 15.0392 6.17471 14.8404C5.19211 14.9528 4.20165 14.9922 3.22999 14.7522C2.3331 14.5305 1.20139 14.1023 0.55726 13.3952C-0.103488 12.6697 -0.219808 11.559 0.442689 10.799C0.742234 10.455 1.11743 10.2432 1.55297 10.142C2.04274 10.0278 2.58629 9.95211 3.08743 9.95883C3.68696 9.96689 4.27205 10.0009 4.86896 10.0497C5.19255 10.0762 5.51833 10.0878 5.84237 10.1066C6.14322 10.1241 6.49262 10.2172 6.78954 10.1814C5.95781 9.45993 5.12259 8.73351 4.52306 7.79079C3.91697 6.83822 3.49717 5.79339 3.34499 4.65943C3.21118 3.65983 3.47006 2.50125 4.48283 2.09774C4.97828 1.90023 5.52927 1.95532 6.01072 2.17477C6.44408 2.37227 6.74669 2.78742 7.07772 3.11838C7.93393 3.97467 8.4307 5.10101 9.14261 6.07195C9.19202 5.63977 9.10325 5.12609 9.05384 4.69347C8.99743 4.1968 8.99874 3.70104 8.98475 3.20213C8.9725 2.76861 9.03372 2.31808 9.10325 1.89038C9.17628 1.44432 9.2856 1.05783 9.56809 0.701343C10.1326 -0.0111844 10.9836 -0.182263 11.786 0.194826C12.5579 0.558032 12.9851 1.41432 13.296 2.18193C13.4985 2.68263 13.6874 3.21602 13.7565 3.75523C13.791 4.02662 13.8186 4.30026 13.8422 4.573C13.8549 4.72168 13.8684 4.87082 13.8719 5.0204C13.8745 5.12699 13.8295 5.34464 13.8925 5.43421C14.1911 5.0204 14.4115 4.5515 14.7203 4.14127C15.0229 3.7391 15.3211 3.36694 15.6687 3.00373C16.0173 2.64053 16.3662 2.29972 16.8599 2.17074C17.3156 2.05161 17.7686 2.06504 18.1915 2.28315C20.1064 3.27021 18.9944 6.2793 18.1674 7.64479C17.564 8.64126 16.7537 9.4653 15.8585 10.1939C15.8616 10.202 15.8647 10.2105 15.8677 10.2186C16.3326 10.2535 16.8429 10.1814 17.3068 10.1326C17.797 10.0806 18.2929 10.0668 18.7858 10.0623C19.642 10.0542 20.7015 10.1268 21.3745 10.7215C22.072 11.3378 22.1756 12.2688 21.7379 13.0781C21.3417 13.8103 20.5196 14.2129 19.7885 14.5085C18.8081 14.9049 17.8049 15.0594 16.7515 15.0594H16.7524ZM8.36904 11.1788C7.75071 11.1197 7.12888 11.0977 6.50967 11.0493C5.93026 11.0046 5.35697 10.9159 4.77887 10.859C4.17804 10.7999 3.58682 10.7681 2.98773 10.8684C2.38689 10.9687 1.91461 11.2562 1.40735 11.5845C1.24075 11.692 0.949073 11.8017 0.908405 12.0265C0.872984 12.2218 1.04222 12.4068 1.10606 12.5837C1.27442 13.0499 1.74407 13.0351 2.1595 13.1883C3.13422 13.5474 4.14393 13.5891 5.17025 13.6075C5.68975 13.6169 6.20445 13.5568 6.72307 13.5712C6.98545 13.5783 7.24782 13.5877 7.5102 13.6007C7.73628 13.6119 8.00346 13.5936 8.21905 13.671C8.79365 13.8771 8.26934 14.4911 8.05157 14.7763C7.71747 15.2143 7.38163 15.6505 7.05848 16.0966C6.43621 16.9551 5.90752 17.8562 5.47504 18.8307C5.30319 19.2181 4.95991 19.8438 5.18512 20.2697C5.35391 20.5894 6.01553 20.4475 6.26173 20.2817C7.08952 19.726 7.61252 18.6355 8.08043 17.7787C8.34936 17.2856 8.60999 16.7876 8.87192 16.2905C9.09669 15.8642 9.30703 15.3594 9.68223 15.0459C9.89344 15.4925 9.84315 16.0693 9.86545 16.5539C9.88994 17.0908 9.80029 17.6323 9.72639 18.1634C9.57728 19.2324 9.4579 20.3812 9.63194 21.4538C9.66955 21.6871 9.78062 21.8945 9.90306 22.0928C10.0745 22.3705 10.2315 22.3862 10.5419 22.4113C11.0811 22.4543 11.2888 22.272 11.525 21.7816C11.7502 21.3145 11.9168 20.8062 11.9671 20.2858C12.0252 19.683 11.894 19.0775 11.9526 18.4787C11.8932 18.1325 11.947 17.7286 11.9435 17.3757C11.94 17.0281 11.9588 16.6864 11.9999 16.3411C12.0112 16.2435 12.0134 16.0388 12.0834 15.9645C12.1691 15.8736 12.358 15.8776 12.4739 15.8306C12.5928 15.7827 12.7135 15.6985 12.8294 15.6546C13.0008 15.5892 13.0349 15.6711 13.1701 15.8153C14.0403 16.7424 14.5327 17.9623 15.3469 18.9333C15.7308 19.391 16.204 19.7802 16.6474 20.1752C16.8835 20.3856 17.0843 20.6082 17.4065 20.6526C17.6733 20.6893 17.9186 20.6848 18.0629 20.4318C18.244 20.1143 18.296 19.8979 18.1648 19.5504C18.0485 19.2427 17.8836 18.9601 17.7489 18.6614C17.4853 18.0756 17.243 17.493 16.9242 16.9359C16.7545 16.6394 16.5984 16.3255 16.4056 16.0438C16.249 15.8145 16.0326 15.6183 15.8345 15.4271C15.4107 15.0182 15.0045 14.5833 14.9542 13.9541C15.3285 13.9984 15.6871 14.0575 16.0649 14.0795C16.5066 14.105 16.9421 14.0965 17.3842 14.0916C18.1443 14.0826 19.0538 13.9339 19.6582 13.418C19.9315 13.1847 20.339 12.9191 20.5411 12.615C20.6158 12.5022 20.6421 12.3629 20.7081 12.2429C20.7523 12.1618 20.9324 11.9992 20.9329 11.9146C20.9337 11.7032 20.2717 11.4605 20.0976 11.426C19.7334 11.3539 19.3639 11.3467 18.9961 11.267C18.2046 11.0959 17.4288 11.1447 16.6413 11.3024C16.2591 11.379 15.8909 11.4175 15.5052 11.4645C15.3399 11.4847 15.1615 11.5411 14.9958 11.5415C14.813 11.5415 14.7579 11.4287 14.6888 11.2545C14.3923 10.5097 14.6997 9.88762 15.1768 9.31527C15.6692 8.72456 16.1065 8.12847 16.5385 7.49163C16.9058 6.95063 17.4551 6.56682 17.8189 6.02448C18.0039 5.74905 18.1513 5.44765 18.3288 5.16729C18.4915 4.91068 18.7447 4.56001 18.7018 4.23308C18.7888 3.93526 18.0454 3.62221 17.8486 3.5425C17.4205 3.36918 17.0475 3.64013 16.713 3.89048C16.0776 4.36475 15.5126 4.86947 15.0885 5.55379C14.8755 5.89729 14.691 6.25467 14.4662 6.59145C14.2432 6.92555 14.084 7.29771 13.864 7.63225C13.6524 7.95381 13.4403 8.21311 13.125 8.42674C12.996 8.51407 12.8557 8.70351 12.7564 8.55482C12.6772 8.43614 12.714 8.081 12.7043 7.93366C12.6562 7.18978 12.5522 6.42082 12.5889 5.67515C12.6243 4.95233 12.6143 4.2286 12.7205 3.51294C12.7673 3.19765 12.7874 2.86535 12.7691 2.56081C12.7511 2.26702 12.7253 1.96831 12.592 1.70452C12.4345 1.39282 12.1656 1.26384 11.8709 1.10486C11.542 0.927507 11.3208 0.933777 11.0055 1.16263C10.7033 1.38163 10.3836 1.6369 10.221 1.98443C10.0727 2.30106 10.0264 2.67233 9.9844 3.01762C9.93892 3.39157 9.98046 3.75791 9.95947 4.13231C9.9411 4.46148 9.8895 4.78976 9.95641 5.11713C10.0146 5.40331 10.0028 5.67381 10.0496 5.96178C10.1068 6.31423 10.1353 6.68237 10.1702 7.0393C10.2057 7.40475 10.2892 7.7993 10.2734 8.16609C10.2695 8.26103 10.2288 8.37658 10.2218 8.48227C10.2144 8.59602 10.2026 8.86026 10.1335 8.95565C9.95335 9.2042 9.64287 8.61349 9.53617 8.46077C9.33633 8.17549 9.11287 7.89783 8.90035 7.62195C8.44819 7.03527 8.19762 6.34021 7.80974 5.71725C7.45029 5.13997 7.04098 4.48522 6.52673 4.03916C6.28578 3.83046 5.8428 3.521 5.52183 3.50622C5.22447 3.49279 4.86764 3.82867 4.66605 4.03334C4.40149 4.30294 4.45353 4.67421 4.58953 5.00025C4.71853 5.30926 4.83703 5.6232 4.96778 5.93222C5.0981 6.24034 5.30931 6.51039 5.48816 6.79119C5.67139 7.07871 5.85767 7.36086 6.06801 7.62867C6.47994 8.15265 6.90236 8.6735 7.3003 9.20913C7.53644 9.52666 7.78569 9.82806 7.9781 10.1778C8.14821 10.4873 8.26321 10.8433 8.36948 11.1801L8.36904 11.1788Z" fill="#777777"/>
</svg>
