<svg width="238" height="31" viewBox="0 0 238 31" fill="none" xmlns="http://www.w3.org/2000/svg">
<path d="M130.954 0.0946274C126.872 0.678459 123.303 2.81655 121.219 5.93295C119.853 7.99215 119.229 9.95667 119.158 12.5208C119.111 14.0672 119.229 15.1559 119.577 16.4577C121.235 22.6037 127.061 26.5407 133.733 26.0278C137.056 25.7675 139.63 24.7892 141.841 22.9351C142.188 22.6353 142.622 22.225 142.804 22.0041C143.12 21.6333 143.128 21.6097 142.993 21.4834C142.914 21.4124 142.82 21.3572 142.788 21.3572C142.757 21.3572 142.433 21.6254 142.086 21.9568C140.491 23.44 138.32 24.4973 135.912 24.9627C134.806 25.1758 132.477 25.1521 131.309 24.9233C126.54 23.9687 123.082 20.6234 121.819 15.7398C121.424 14.1934 121.314 13.2782 121.314 11.5346C121.306 9.3176 121.59 7.9527 122.372 6.30377C122.909 5.18344 123.398 4.47337 124.188 3.67652C125.64 2.20905 127.543 1.30174 129.888 0.954597C131.056 0.781025 132.88 0.836252 134.08 1.07294C136.267 1.51476 138.454 2.57986 139.922 3.9211C140.222 4.19724 140.491 4.38659 140.522 4.34714C140.791 4.04733 141.872 2.65876 141.872 2.61931C141.872 2.59564 141.636 2.42207 141.343 2.23272C139.906 1.30963 137.893 0.560116 135.872 0.197191C134.68 -0.00793839 132.083 -0.0710564 130.954 0.0946274Z" fill="white"/>
<path d="M0 13.0336V25.6965H3.53696C7.05024 25.6965 8.07659 25.6491 9.60823 25.4203C12.8136 24.9312 15.6163 23.5978 17.5743 21.6412C19.3112 19.8976 20.3928 17.7674 20.8981 15.1007C21.0955 14.0356 21.0955 11.3531 20.8902 10.2723C19.8638 4.78896 15.4032 1.06505 9.12663 0.457552C8.63714 0.410215 6.45812 0.370766 4.12909 0.370766H0V13.0336ZM7.30288 1.08083C8.3766 1.19918 9.57665 1.45954 10.4925 1.76723C14.961 3.25048 17.8822 6.61146 18.7191 11.2269C18.9796 12.6234 18.9796 14.9666 18.727 16.2131C17.7164 21.2073 14.061 24.2763 8.30555 24.947C7.61079 25.0259 6.49759 25.0653 4.68174 25.0653H2.0527V13.0336V1.00194H4.32646C5.57388 1.00194 6.91603 1.04139 7.30288 1.08083Z" fill="white"/>
<path d="M26.3691 13.0257V25.6965H27.3955H28.4218V19.3848V13.0731H31.4062H34.3826L38.0538 19.3848L41.7249 25.6965H43.0987C44.4408 25.6965 44.4645 25.6965 44.3619 25.5466C42.8381 23.3927 40.9749 20.4814 39.4828 17.941C38.5196 16.2842 36.8379 13.2861 36.7511 13.0652C36.7116 12.9547 36.7748 12.9232 37.1221 12.8758C38.188 12.7338 39.7038 12.1421 40.6354 11.5109C41.2275 11.1086 41.946 10.3275 42.3407 9.67264C43.1697 8.26828 43.3987 6.1223 42.8697 4.59961C42.1592 2.51674 40.217 1.17551 37.0274 0.560114C36.459 0.449659 35.5826 0.425991 31.3667 0.394432L26.3691 0.362873V13.0257ZM35.1721 1.11239C37.1537 1.45953 38.3853 2.05125 39.4985 3.19525C40.1696 3.88954 40.5486 4.57594 40.7933 5.55425C40.9828 6.30377 40.9828 8.03949 40.7933 8.73377C40.2723 10.6746 38.9775 11.7713 36.5932 12.3078C35.9458 12.4498 35.5352 12.4656 32.1562 12.4971L28.4218 12.5366V6.72192V0.907259L31.4456 0.946707C33.7194 0.970375 34.6352 1.01771 35.1721 1.11239Z" fill="white"/>
<path d="M64.7383 13.0336V25.6965L72.6096 25.6807L80.473 25.657L80.623 25.2231C80.702 24.9864 80.8204 24.6235 80.8836 24.4184L80.9862 24.0554L80.5441 24.2053C78.5703 24.8917 74.5755 25.2073 69.3016 25.0969L66.791 25.0416V18.9114V12.7812L68.3542 12.7417C70.1779 12.6944 73.1623 12.789 74.1728 12.9153C74.5597 12.9626 75.1202 13.081 75.4123 13.1835L75.9492 13.3571V12.4182C75.9492 11.7003 75.9255 11.4951 75.8545 11.5267C75.4676 11.6845 74.6228 11.8975 74.0939 11.9764C73.7465 12.0238 71.9622 12.079 70.1306 12.1026L66.791 12.1421V6.53257V0.92304H69.8542C75.2465 0.92304 78.4361 1.1834 80.2836 1.78301L80.9862 2.00392L80.8757 1.641C80.8204 1.44376 80.702 1.08083 80.623 0.844145L80.473 0.410215L72.6096 0.386545L64.7383 0.370766V13.0336Z" fill="white"/>
<path d="M87.082 13.0257V25.6965H88.1084H89.1347V19.3848V13.0731H92.119H95.0955L98.7666 19.3848L102.438 25.6965H103.812C105.154 25.6965 105.177 25.6965 105.075 25.5466C103.551 23.3927 101.688 20.4814 100.196 17.941C99.2325 16.2842 97.5508 13.2861 97.464 13.0652C97.4245 12.9547 97.4877 12.9232 97.835 12.8758C98.9009 12.7338 100.417 12.1421 101.348 11.5109C101.94 11.1086 102.659 10.3275 103.054 9.67264C103.883 8.26828 104.112 6.1223 103.583 4.59961C102.872 2.51674 100.93 1.17551 97.7403 0.560114C97.1719 0.449659 96.2955 0.425991 92.0796 0.394432L87.082 0.362873V13.0257ZM95.885 1.11239C97.8666 1.45953 99.0982 2.05125 100.211 3.19525C100.883 3.88954 101.261 4.57594 101.506 5.55425C101.696 6.30377 101.696 8.03949 101.506 8.73377C100.985 10.6746 99.6904 11.7713 97.3061 12.3078C96.6587 12.4498 96.2481 12.4656 92.8691 12.4971L89.1347 12.5366V6.72192V0.907259L92.1585 0.946707C94.4323 0.970375 95.3481 1.01771 95.885 1.11239Z" fill="white"/>
<path d="M111.398 13.0731V25.7754H112.464H113.53V13.0731V0.370756H112.464H111.398V13.0731Z" fill="white"/>
<path d="M156.218 0.425995C156.194 0.465443 154.307 5.33334 152.018 11.2585C147.281 23.5189 147.21 23.7004 146.641 24.8444L146.215 25.6965H147.028H147.849L147.896 24.9627C147.983 23.6925 148.489 22.0909 150.233 17.6096L151.086 15.4005L156.336 15.3768L161.586 15.3611L163.513 20.5288L165.439 25.6965H166.56H167.689L167.547 25.3257C167.468 25.1126 165.329 19.4163 162.794 12.6549L158.176 0.370766H157.213C156.684 0.370766 156.234 0.394436 156.218 0.425995ZM158.957 8.2604L161.342 14.6904L156.376 14.7141C153.636 14.722 151.386 14.722 151.37 14.7062C151.354 14.6904 152.491 11.7239 153.889 8.11838C155.681 3.51873 156.455 1.59366 156.502 1.69622C156.534 1.76723 157.639 4.72584 158.957 8.2604Z" fill="white"/>
<path d="M190.878 11.7871C190.855 24.0002 190.863 23.5978 190.476 25.3178L190.373 25.7754H191.147C191.581 25.7754 191.928 25.7517 191.928 25.7123C191.928 25.6807 191.857 25.302 191.778 24.8681C191.463 23.2586 191.447 22.4854 191.47 12.221L191.494 2.33529L200.068 14.0356L208.634 25.7359L208.966 25.7596L209.289 25.7833L209.321 14.1224C209.345 2.69821 209.353 2.44574 209.511 1.63311C209.597 1.17551 209.7 0.710024 209.732 0.58379L209.787 0.37077H208.982H208.176L208.232 0.623238C208.642 2.50886 208.611 1.7199 208.634 12.4025L208.658 22.2645L208.484 22.0436C208.389 21.9174 204.789 17.0021 200.494 11.1164L192.67 0.410217L191.794 0.386549L190.91 0.362881L190.878 11.7871Z" fill="white"/>
<path d="M216.955 13.0336V25.6965H220.492C224.005 25.6965 225.032 25.6491 226.563 25.4203C229.769 24.9312 232.571 23.5978 234.529 21.6412C236.266 19.8976 237.348 17.7674 237.853 15.1007C238.051 14.0356 238.051 11.3531 237.845 10.2723C236.819 4.78896 232.358 1.06505 226.082 0.457552C225.592 0.410215 223.413 0.370766 221.084 0.370766H216.955V13.0336ZM224.258 1.08083C225.332 1.19918 226.532 1.45954 227.448 1.76723C231.916 3.25048 234.837 6.61146 235.674 11.2269C235.935 12.6234 235.935 14.9666 235.682 16.2131C234.671 21.2073 231.016 24.2763 225.261 24.947C224.566 25.0259 223.453 25.0653 221.637 25.0653H219.008V13.0336V1.00194H221.282C222.529 1.00194 223.871 1.04139 224.258 1.08083Z" fill="white"/>
<path d="M173.209 22.6826C172.593 23.0061 172.309 23.4874 172.317 24.2053C172.317 24.8759 172.538 25.2389 173.217 25.6965C173.769 26.0752 174.006 26.4065 174.006 26.801C174.006 27.5032 173.469 28.8444 172.798 29.8227C172.593 30.1147 172.427 30.3908 172.427 30.4381C172.427 30.951 174.235 28.45 174.946 26.9509C175.617 25.5623 175.798 24.5288 175.546 23.6609C175.23 22.6037 174.196 22.1698 173.209 22.6826Z" fill="white"/>
<path d="M51.0818 22.9114C50.4738 23.2349 50.1738 23.7241 50.1738 24.3868C50.1817 24.9154 50.3001 25.2152 50.6554 25.5703C51.0107 25.9253 51.3107 26.0436 51.8397 26.0515C52.5029 26.0515 52.9923 25.7517 53.316 25.1442C53.5134 24.7655 53.5371 24.6472 53.5055 24.2527C53.4266 23.4006 52.8266 22.801 51.9739 22.7221C51.5791 22.6905 51.4607 22.7142 51.0818 22.9114Z" fill="white"/>
</svg>
