<svg width="469" height="34" viewBox="0 0 469 34" fill="none" xmlns="http://www.w3.org/2000/svg">
<path d="M55.1316 0.0496938C55.5291 0.0498847 55.7631 0.142925 55.8451 0.340436C55.9155 0.537941 55.9625 0.770284 55.9629 1.04907C55.9633 1.40916 55.8116 1.6995 55.5078 1.90844C54.8418 2.30306 54.2926 2.66289 53.8487 2.99954C53.4047 3.33619 52.9374 3.67283 52.4116 4.04429C51.9793 4.3461 51.6639 4.6015 51.4303 4.78724C51.1966 4.97298 50.9981 5.17036 50.8112 5.35612C50.6243 5.54189 50.4258 5.75088 50.1922 5.98309C49.9703 6.22692 49.6432 6.52878 49.211 6.88866C48.8722 7.13244 48.5568 7.37623 48.2296 7.63162C47.9142 7.88702 47.5754 8.16564 47.2016 8.46747C46.4775 9.16408 45.6715 9.8955 44.7954 10.6617C43.9193 11.428 43.0666 12.2058 42.249 12.9953C41.6999 13.4481 41.1743 13.9357 40.6604 14.4466C40.4151 14.6904 40.1816 14.9458 39.9597 15.2361C39.7379 15.5264 39.4926 15.8051 39.2591 16.0721C39.0138 16.3159 38.7685 16.5365 38.5115 16.7455C38.2545 16.9545 38.0092 17.1867 37.7639 17.4305L32.1227 23.0848C31.8774 23.3286 31.6672 23.584 31.4805 23.8511C31.2937 24.1182 31.0835 24.362 30.8498 24.571C29.822 25.5346 28.6305 26.5795 27.2754 27.694C25.9203 28.8085 24.5534 29.83 23.1513 30.7702L23.198 30.7702C23.0813 30.8864 22.8942 30.956 22.6487 30.9558C22.4382 30.9557 22.2394 30.8743 22.0521 30.7116C21.8648 30.5489 21.7828 30.363 21.7825 30.1423C21.7824 30.0494 21.8407 29.91 21.9457 29.7126C22.0508 29.5152 22.1908 29.3178 22.3543 29.1204C22.5178 28.923 22.6813 28.7256 22.8331 28.5282C22.9848 28.3308 23.1016 28.1566 23.1949 28.0056C23.4051 27.7386 23.627 27.4715 23.8489 27.2161C24.0707 26.9606 24.2692 26.6936 24.4209 26.4265C25.0279 25.5556 25.5648 24.6846 26.0082 23.8252C26.4632 22.9659 26.9183 22.1297 27.3734 21.3168C28.0386 20.1439 28.6336 18.9478 29.1467 17.74C29.2633 17.4729 29.3682 17.1709 29.438 16.8573C29.5078 16.5437 29.6478 16.2185 29.8228 15.8817C29.9744 15.545 30.1611 15.1966 30.3946 14.8366C30.628 14.4766 30.7329 14.1398 30.7325 13.8378C30.7322 13.5706 30.6267 13.3382 30.416 13.129C30.2053 12.9315 29.9714 12.8384 29.7258 12.8383C29.4803 12.8382 29.2816 12.9078 29.1298 13.0587C28.1837 13.9992 27.2259 14.9048 26.233 15.7987C25.2518 16.6927 24.1771 17.6214 23.0206 18.585C22.3197 19.1306 21.6071 19.7227 20.8828 20.3496C20.1586 20.9881 19.3175 21.6498 18.3828 22.3347C18.1141 22.4856 17.8336 22.6365 17.5415 22.7874C17.2493 22.9382 16.9689 23.1239 16.7002 23.3329C16.4549 23.5186 16.2095 23.716 15.9525 23.9482C15.6956 24.1804 15.4268 24.3661 15.1581 24.517C14.644 24.8768 14.0948 25.2367 13.5223 25.5965C12.9381 25.9563 12.3772 26.2929 11.8397 26.5947C11.5709 26.7455 11.267 26.8616 10.9514 26.9311C10.6358 27.0006 10.3202 27.1167 10.0163 27.2675C9.74758 27.4184 9.47884 27.5925 9.22182 27.7898C8.9648 27.9872 8.68434 28.1381 8.38047 28.2657C7.79611 28.5094 7.20002 28.7298 6.55716 28.9386C5.91429 29.1473 5.2948 29.3445 4.68699 29.5301C4.348 29.6228 4.04412 29.7388 3.75197 29.8897C3.45982 30.0406 3.1676 30.145 2.86366 30.2029C2.52463 30.2608 2.19729 30.3072 1.88162 30.3418C1.56596 30.3765 1.23858 30.388 0.899484 30.3878C0.63055 30.3877 0.408279 30.2947 0.25605 30.0971C0.103821 29.8996 0.0334264 29.6905 0.0331649 29.4581C0.0329033 29.2258 0.102828 29.0168 0.254625 28.831C0.406422 28.6452 0.628463 28.5408 0.944168 28.5409L1.8562 28.5414C2.3473 28.5416 2.82664 28.4721 3.2942 28.333C3.76175 28.1938 4.25264 28.0198 4.77858 27.811C5.08249 27.7182 5.38637 27.6022 5.69021 27.4513C5.99405 27.3004 6.3096 27.1496 6.64852 26.9987C7.8874 26.5115 9.25476 25.8849 10.7272 25.1189C12.1996 24.353 13.8004 23.378 15.5296 22.2056C16.0788 21.8458 16.6162 21.4395 17.1653 20.9867C17.6793 20.592 18.2284 20.2089 18.8009 19.8375C19.3852 19.4661 19.9226 19.0482 20.4365 18.5954C21.2544 17.9917 22.0254 17.3648 22.7379 16.6915C23.4504 16.0297 24.1746 15.3795 24.8988 14.741C25.1675 14.4972 25.4362 14.2882 25.6933 14.1141C25.9503 13.94 26.1956 13.7427 26.4409 13.5221C27.5974 12.5004 28.5901 11.5252 29.4427 10.6195C30.2953 9.71388 31.0776 8.7966 31.8132 7.85606C32.2335 7.31031 32.6539 6.78779 33.0626 6.27688C33.4713 5.76598 33.8449 5.25505 34.1834 4.73249C34.2183 4.63958 34.3 4.44216 34.4516 4.14021C34.6033 3.83827 34.7783 3.54795 34.9768 3.25765C35.1752 2.96735 35.3738 2.75835 35.5958 2.60745C35.8061 2.45654 36.0049 2.46825 36.1922 2.6542C36.5548 2.80538 36.7422 3.07264 36.7426 3.46759C36.743 3.7696 36.6148 4.14125 36.3581 4.60576C36.1013 5.05866 35.8913 5.45351 35.7397 5.77868C35.3082 6.83553 34.9235 7.85755 34.5855 8.85636C34.2476 9.85518 33.8628 10.8656 33.4664 11.8876C33.3499 12.2244 33.2567 12.5496 33.1986 12.8864C33.1406 13.2233 33.0357 13.5485 32.8841 13.8853C32.371 15.1512 31.8229 16.417 31.2513 17.6829C31.0997 18.0197 30.8897 18.3913 30.6212 18.8094C30.3527 19.239 30.2128 19.599 30.2132 19.9011C30.2135 20.2031 30.3307 20.4703 30.5532 20.6911C30.7756 20.9235 31.0329 21.0282 31.3019 21.0283C31.5474 21.0284 31.898 20.8312 32.3769 20.4364C32.8442 20.0417 33.253 19.6702 33.58 19.3103C34.9464 17.8357 36.3829 16.3031 37.8778 14.7124C39.3727 13.1217 40.9495 11.6008 42.5848 10.1263C42.8302 9.91737 43.1105 9.70842 43.426 9.48787C43.7415 9.27894 44.0452 9.04676 44.3139 8.81457C45.0381 8.18765 45.7039 7.57233 46.2996 7.00343C46.8953 6.43454 47.4443 5.93531 47.9583 5.50577C48.3788 5.11102 48.7059 4.80916 48.9395 4.57696C49.1731 4.34475 49.3833 4.14738 49.5702 3.96161C49.7571 3.77585 49.9907 3.60172 50.2244 3.41597C50.4697 3.23024 50.8319 2.97486 51.3226 2.64985C51.5913 2.44089 51.8483 2.2087 52.0936 1.94165C52.3388 1.68621 52.6192 1.44241 52.958 1.19864C53.0748 1.10577 53.2267 1.00129 53.4137 0.885221C53.6006 0.769151 53.7875 0.641463 54.0095 0.502178C54.2199 0.362887 54.4302 0.258452 54.6289 0.165619C54.8276 0.072787 55.0029 0.026404 55.1549 0.026477L55.1316 0.0496938Z" fill="#242321"/>
<path d="M55.6193 21.9429C55.6778 21.9429 55.713 22.059 55.7134 22.3029C55.7138 22.6397 55.4688 22.9997 54.99 23.3944C54.5111 23.7892 53.9153 24.149 53.2376 24.4857C52.5599 24.8223 51.8588 25.1008 51.1692 25.3213C50.468 25.5418 49.8952 25.6577 49.4392 25.6576C48.7376 25.6574 48.1644 25.4947 47.7313 25.181C47.2983 24.8673 46.9936 24.4375 46.8408 23.8916C46.8406 23.7058 46.7118 23.6244 46.478 23.6244C46.1739 23.6243 45.8701 23.7287 45.5664 23.9377C44.8419 24.2743 43.9771 24.576 42.9953 24.8661C42.0135 25.1562 41.1602 25.2953 40.4703 25.2951C39.7103 25.2949 39.1137 25.1089 38.6688 24.7256C38.2239 24.3422 38.0127 23.8311 38.0117 23.1691C38.0106 22.391 38.3486 21.6362 39.0141 20.9279C39.6795 20.2197 40.696 19.6509 42.0634 19.2331C42.5776 19.0475 43.0802 18.8966 43.5712 18.7806C44.0621 18.6646 44.5765 18.5951 45.126 18.5952C45.7925 18.5954 46.389 18.7233 46.9038 18.9557C47.4187 19.1998 47.7816 19.525 47.9927 19.9548C48.0866 20.1639 48.1921 20.3381 48.3092 20.4775C48.4263 20.6169 48.5551 20.7563 48.6722 20.8841C48.7894 21.0235 48.8948 21.1513 48.9885 21.2907C49.0823 21.4301 49.1293 21.5811 49.1295 21.7669C49.1299 22.0108 49.0601 22.2663 48.9085 22.5566C48.7569 22.8469 48.6872 23.1256 48.6876 23.3927C48.6877 23.4856 48.7346 23.5902 48.8517 23.7063C48.9571 23.8225 49.2262 23.8922 49.6471 23.8924C49.9511 23.8924 50.407 23.7997 51.0148 23.6256C51.6225 23.44 52.2068 23.1846 52.791 22.8596C52.9078 22.7667 53.083 22.6506 53.3166 22.4997C53.5386 22.3488 53.7839 22.1979 54.0175 22.047C54.2512 21.896 54.4848 21.7684 54.7069 21.6639C54.9289 21.5594 55.1042 21.5014 55.2562 21.5014C55.4082 21.5015 55.4784 21.548 55.4785 21.6409C55.4787 21.7338 55.5373 21.8383 55.6661 21.9545L55.6193 21.9429ZM45.9957 21.6731C46.2644 21.4874 46.4044 21.2551 46.4039 20.9532C46.4036 20.7093 46.2865 20.5583 46.0408 20.5001C45.7952 20.442 45.4677 20.4071 45.0351 20.4069C44.5206 20.4068 44.0062 20.4647 43.4802 20.5923C42.9659 20.72 42.4868 20.8824 42.0661 21.0914C41.6455 21.3003 41.2951 21.5557 41.0149 21.8576C40.7464 22.1595 40.6065 22.473 40.607 22.8098C40.6072 22.9608 40.6425 23.1002 40.7245 23.2163C40.8065 23.3325 40.9587 23.4022 41.2042 23.4023C41.9642 23.4025 42.7006 23.2401 43.4368 22.9035C44.1613 22.5669 45.0142 22.1606 45.9841 21.6847L45.9957 21.6731Z" fill="#242321"/>
<path d="M87.7113 12.7572L87.8049 12.7572C87.7467 12.9663 87.6184 13.1521 87.4432 13.3031C87.2563 13.4541 87.046 13.5353 86.8004 13.5353L86.7069 13.5352C85.853 13.3491 84.894 13.1862 83.8414 13.0349C82.7772 12.8836 81.7013 12.8136 80.6022 12.8133C80.3567 12.8132 80.1111 12.8131 79.8773 12.8363C79.6317 12.8479 79.3862 12.8594 79.1524 12.8593C77.9012 12.859 76.6033 12.8354 75.2352 12.7885C73.867 12.7417 72.499 12.7181 71.1309 12.7177L68.9911 12.7171C68.3831 12.7169 67.857 12.74 67.4244 12.7864C66.9918 12.8327 66.6061 12.9255 66.2789 13.0765C65.9634 13.2274 65.6597 13.4364 65.3912 13.7152C65.1227 13.9939 64.8073 14.2378 64.4803 14.4816C64.1532 14.7255 63.8496 14.9926 63.5694 15.2946C61.8648 17.0483 60.5105 18.4652 59.4714 19.5453C58.444 20.6254 57.6268 21.5081 57.0314 22.1701C56.4361 22.8321 56.0509 23.3315 55.8526 23.6683C55.6544 24.0052 55.5495 24.284 55.5499 24.5279C55.5502 24.737 55.6205 24.8648 55.7609 24.8881C55.9012 24.923 56.0416 24.9347 56.1936 24.9347C56.8016 24.9349 57.6899 24.7144 58.8586 24.2733C60.0272 23.8321 61.2775 23.2516 62.6094 22.5318C62.878 22.3227 63.1701 22.1021 63.4737 21.8814C63.7774 21.6608 64.0228 21.5447 64.1982 21.5447C64.4438 21.5448 64.5959 21.6262 64.6546 21.7888C64.7133 21.9515 64.7486 22.1257 64.7489 22.3116C64.7494 22.7066 64.6563 23.0086 64.4579 23.2177C64.2594 23.4267 63.9207 23.6706 63.43 23.9376C62.9393 24.2047 62.3784 24.5182 61.7241 24.8433C61.0698 25.18 60.3921 25.4703 59.7026 25.7489C59.0014 26.0159 58.3119 26.248 57.634 26.4569C56.9444 26.6542 56.3248 26.747 55.7402 26.7468C55.0971 26.7467 54.5942 26.6768 54.2081 26.5257C53.8337 26.3746 53.5411 26.1886 53.342 25.9562C53.1429 25.7354 53.014 25.5147 52.9552 25.3055C52.8964 25.0964 52.8611 24.9105 52.8609 24.7595C52.8596 23.9115 53.2327 23.1332 54.0034 22.4248C54.7624 21.7164 55.6147 20.8802 56.5488 19.9162C57.0042 19.4981 57.4361 19.0336 57.8447 18.5341C58.2532 18.0347 58.6968 17.5469 59.1872 17.0708C59.4324 16.8269 59.6777 16.6178 59.9112 16.432C60.1565 16.2462 60.4018 16.0372 60.6353 15.8049L61.2074 15.2358C61.4292 15.0152 61.6511 14.7829 61.8378 14.5622C62.0246 14.3415 62.2114 14.1209 62.3631 13.9118C62.5148 13.7027 62.5847 13.5517 62.5846 13.4588C62.5844 13.3659 62.5258 13.2729 62.4205 13.1799C62.3151 13.087 62.1864 13.0405 62.0344 13.0404C61.1808 13.0402 60.4676 13.0516 59.8713 13.0863C59.275 13.121 58.7956 13.1325 58.4332 13.1324C58.0356 13.1322 57.7082 13.0973 57.4508 13.0159C57.1934 12.9345 57.0646 12.7602 57.0642 12.4814C57.0634 11.9586 57.5774 11.6103 58.6178 11.4595C60.1377 11.3089 61.6689 10.926 63.2231 10.2875C64.7656 9.66061 66.3198 8.98725 67.8622 8.26743C68.5633 7.94234 69.194 7.46622 69.7543 6.85067C70.3147 6.23512 70.8869 5.67766 71.4591 5.16667C71.6692 4.95762 71.8911 4.7718 72.113 4.60923C72.3467 4.44665 72.5569 4.26083 72.7787 4.05179C73.0823 3.78468 73.421 3.49435 73.8064 3.16918C74.1918 2.84401 74.554 2.69309 74.9282 2.69319C75.0802 2.69323 75.2557 2.72813 75.4546 2.80951C75.6534 2.87926 75.829 2.99549 75.9812 3.14655L76.0279 3.10009C76.1451 3.286 76.2155 3.44866 76.2157 3.59968C76.2162 3.93658 76.0764 4.26183 75.8079 4.58703C75.5395 4.91223 75.1892 5.26064 74.757 5.59742C74.3249 5.94581 73.8577 6.27096 73.3203 6.58447C72.7945 6.89798 72.2688 7.18826 71.7547 7.45531C71.5444 7.57142 71.2524 7.82693 70.8671 8.19857C70.4818 8.57021 70.1198 8.93023 69.7462 9.2554C69.6294 9.37154 69.4776 9.5109 69.2907 9.66187C69.1039 9.81284 68.9404 9.97544 68.7652 10.138C68.6018 10.3006 68.45 10.4516 68.3333 10.591C68.2165 10.7187 68.1465 10.8349 68.1467 10.9278C68.1468 11.044 68.1938 11.1486 68.2874 11.2183C68.381 11.288 68.4746 11.3345 68.5682 11.3345C69.5971 11.2767 70.6376 11.2189 71.6665 11.1728C72.6954 11.1266 73.7361 11.1036 74.765 11.1039C75.1041 11.104 75.4432 11.1157 75.7941 11.1507C76.1449 11.1856 76.484 11.1973 76.8231 11.1974C77.1622 11.1975 77.5013 11.186 77.852 11.1513C78.2027 11.1165 78.5418 11.105 78.8809 11.1051C79.9099 11.1054 80.9739 11.1405 82.0498 11.2221C83.1256 11.2921 84.143 11.3621 85.0785 11.4321C85.3826 11.4322 85.6982 11.4323 86.014 11.4556C86.3297 11.4789 86.6338 11.5138 86.9028 11.572C87.1835 11.6302 87.3941 11.7348 87.5697 11.8742C87.7336 12.0137 87.8158 12.2112 87.8161 12.4552C87.8163 12.5481 87.8046 12.6062 87.7696 12.641L87.7231 12.7804L87.7113 12.7572ZM65.8778 10.6251C65.8778 10.6251 65.9245 10.5671 65.9245 10.5322C65.9243 10.416 65.854 10.3463 65.702 10.3463C65.6669 10.3463 65.6436 10.3463 65.6085 10.3695C65.5735 10.3927 65.5384 10.3927 65.4682 10.3927C65.2579 10.4856 65.0125 10.5784 64.7437 10.6829C64.4749 10.7874 64.2178 10.8919 63.9724 10.9964C63.727 11.1008 63.5284 11.2053 63.3531 11.2866C63.1779 11.3679 63.1078 11.4376 63.1079 11.4724C63.1079 11.5305 63.2483 11.5654 63.5172 11.5655C64.0902 11.5656 64.5461 11.4844 64.8849 11.3103C65.2238 11.1477 65.5508 10.8922 65.8894 10.5671L65.8895 10.6135L65.8778 10.6251Z" fill="#242321"/>
<path d="M83.7255 21.5387C83.8424 21.5387 83.9478 21.6084 84.0415 21.7478C84.1352 21.8872 84.1705 22.0382 84.1591 22.2239C84.1477 22.4097 84.0661 22.5839 83.9377 22.7697C83.8094 22.9554 83.5641 23.1063 83.2368 23.2223C82.0565 23.6749 81.028 24.0346 80.1632 24.3015C79.2983 24.5799 78.5503 24.7887 77.9308 24.9395C77.3113 25.0903 76.7852 25.1831 76.3761 25.2294C75.9669 25.2758 75.6278 25.2989 75.3472 25.2988C74.8912 25.2987 74.5637 25.2173 74.3646 25.0547C74.1656 24.8921 74.025 24.7062 73.9312 24.4856C73.8373 24.2765 73.7786 24.0791 73.7433 23.9165C73.708 23.7539 73.6377 23.6726 73.5208 23.6726L73.3805 23.6726C72.2238 24.2993 71.1254 24.7983 70.0735 25.1464C69.0217 25.4945 68.1683 25.6685 67.5019 25.6683C67.0108 25.6682 66.5896 25.5403 66.2268 25.2847C65.8639 25.0292 65.6764 24.6924 65.6758 24.2627C65.6749 23.6937 65.873 23.1596 66.2698 22.6836L66.6318 22.3237C66.7836 22.1728 66.947 22.0103 67.1105 21.8478L67.5425 21.4182C67.6593 21.3021 67.7293 21.2208 67.7293 21.1976C67.7292 21.1744 67.6941 21.1512 67.6357 21.1511C67.5421 21.1511 67.3669 21.2556 67.0866 21.4645C66.8062 21.6735 66.5143 21.9173 66.1989 22.1843C65.8836 22.4512 65.5683 22.695 65.2646 22.904C64.9609 23.1129 64.7271 23.2173 64.5751 23.2173C64.3296 23.2172 64.0839 23.1475 63.8499 22.9965C63.6158 22.8455 63.4869 22.648 63.4865 22.4042C63.486 22.0674 63.6026 21.8352 63.848 21.6843C64.2451 21.4173 64.6773 21.1155 65.168 20.7789C65.6586 20.4423 66.1375 20.1405 66.6282 19.8735C67.119 19.6066 67.5746 19.3745 68.0187 19.1772C68.4627 18.9799 68.8367 18.8755 69.1407 18.8756C69.5032 18.8757 69.8892 18.9803 70.2754 19.1894C70.6733 19.3985 70.8726 19.7818 70.8734 20.3159C70.8737 20.583 70.7923 20.8617 70.629 21.1287C70.4657 21.3958 70.0337 21.8253 69.3329 22.3941C69.2161 22.487 68.9942 22.6727 68.6789 22.9397C68.3636 23.2067 68.2002 23.4273 68.2004 23.5667C68.2006 23.6828 68.2942 23.7525 68.4696 23.7525L68.5164 23.7525C69.0307 23.6598 69.6969 23.4742 70.5033 23.1841C71.3097 22.894 72.3613 22.3949 73.6699 21.6637C73.9736 21.478 74.3592 21.2575 74.8265 20.9905C75.2938 20.7236 75.6678 20.5843 75.9484 20.5844C76.3109 20.5845 76.5449 20.6891 76.6504 20.8981C76.756 21.1072 76.8147 21.293 76.8149 21.4439C76.8154 21.7807 76.6638 22.0942 76.3603 22.396C76.0567 22.6979 75.9051 22.9765 75.9054 23.2088C75.9059 23.5107 76.0581 23.6617 76.3621 23.6618C76.7012 23.6619 77.3909 23.5343 78.4312 23.2791C79.4832 23.0239 80.7337 22.6411 82.1829 22.1305C82.4284 22.0725 82.6971 21.9565 83.0009 21.794C83.3047 21.6315 83.5501 21.5503 83.7255 21.5503L83.7255 21.5387Z" fill="#242321"/>
<path d="M96.0353 21.584C96.2224 21.5841 96.3511 21.6538 96.4448 21.8048C96.5386 21.9559 96.5856 22.1069 96.5858 22.2579C96.5862 22.5251 96.4697 22.7923 96.2245 23.0245C95.8624 23.2916 95.3601 23.6632 94.7177 24.1277C94.0869 24.5922 93.3861 25.0567 92.6267 25.5095C91.8673 25.9624 91.1079 26.3571 90.3483 26.6822C89.5888 27.0189 88.8874 27.1813 88.256 27.1811C87.6714 27.181 87.1566 26.9717 86.7 26.565C86.2434 26.1583 86.0088 25.6936 86.0081 25.1824C86.0076 24.8223 86.0889 24.4506 86.2637 24.0673C86.4269 23.6956 86.6368 23.3239 86.8819 22.9871C87.1269 22.6503 87.372 22.3367 87.6289 22.0812C87.8858 21.8257 88.1077 21.6399 88.2946 21.5121C89.1473 20.9664 89.5678 20.6064 89.5675 20.4205C89.5673 20.2695 89.497 20.1765 89.3566 20.13C89.2162 20.0835 89.1343 20.0603 89.1109 20.0603C89.0174 20.0602 88.737 20.2228 88.2464 20.5363C87.7557 20.8498 87.2184 21.1982 86.6343 21.5814C86.0385 21.953 85.4777 22.3013 84.952 22.6264C84.4146 22.9399 84.0641 23.1025 83.877 23.1024C83.725 23.1024 83.5378 23.0442 83.3272 22.9164C83.1165 22.7885 83.011 22.6026 83.0106 22.3238C83.0102 22.0218 83.1268 21.8011 83.3721 21.6502C83.6407 21.4411 84.0262 21.1508 84.5167 20.7908C85.0073 20.4309 85.5213 20.0709 86.0586 19.6993C86.6076 19.3393 87.1567 19.0258 87.6942 18.7704C88.2434 18.515 88.711 18.3873 89.1085 18.3874C89.6581 18.3876 90.1612 18.5968 90.6178 19.0268C91.0744 19.4451 91.2973 19.9563 91.2982 20.5604C91.2987 20.8973 91.2289 21.1645 91.0772 21.3735C90.8323 21.7917 90.5872 22.1401 90.3304 22.4188C90.0736 22.6976 89.84 22.9298 89.6182 23.1389C89.3963 23.3479 89.2329 23.557 89.0929 23.766C88.9529 23.9751 88.8831 24.2306 88.8836 24.5327C88.8839 24.7418 88.9542 24.8812 89.0946 24.9393C89.235 24.9974 89.3871 25.0323 89.5742 25.0324C90.0887 25.0325 90.7315 24.8236 91.5143 24.4172C92.2854 24.0109 93.1616 23.4535 94.1311 22.7684C94.4698 22.5245 94.8085 22.269 95.1589 21.9787C95.5093 21.6884 95.8014 21.5491 96.0469 21.5492L96.0353 21.584Z" fill="#242321"/>
<path d="M109.512 22.1288C109.513 22.7908 109.174 23.2205 108.508 23.3945C107.783 23.5453 107.164 23.638 106.661 23.6844C106.158 23.7307 105.679 23.7538 105.223 23.7536C104.802 23.7535 104.428 23.7186 104.1 23.6604C103.785 23.6023 103.469 23.5673 103.165 23.5672C102.919 23.5672 102.756 23.6136 102.662 23.7065C102.078 24.3335 101.436 24.8676 100.723 25.2855C100.011 25.7035 99.2979 25.9123 98.608 25.9121C98.1169 25.912 97.7075 25.7725 97.3797 25.5053C97.0402 25.2381 96.8758 24.7967 96.875 24.1927C96.8748 24.0417 96.8862 23.8791 96.9211 23.7165C96.9442 23.5539 96.9673 23.3797 96.9671 23.1939C96.967 23.1358 96.9202 23.1009 96.8266 23.1009C96.7331 23.1009 96.6863 23.066 96.6862 23.008C96.6278 23.0428 96.5109 23.0776 96.3473 23.124C96.1836 23.1704 96.0784 23.1936 96.055 23.1936C95.4821 23.1935 95.1894 22.9495 95.1887 22.4733C95.1881 22.0552 95.3982 21.7765 95.819 21.6604C96.0294 21.6024 96.2864 21.5096 96.5903 21.3935C96.8941 21.2775 97.198 21.1614 97.5019 21.0569C97.8057 20.9525 98.0862 20.848 98.3433 20.7668C98.6004 20.674 98.7874 20.6276 98.9161 20.6276C99.337 20.6277 99.6647 20.8136 99.8757 21.1737C99.9108 21.2318 99.9226 21.2899 99.9227 21.3596L99.923 21.5454C99.9232 21.7313 99.865 21.9171 99.7367 22.1145C99.6201 22.3119 99.48 22.4977 99.3283 22.6835C99.1765 22.8693 99.0365 23.0318 98.9198 23.206C98.8031 23.3802 98.7332 23.5312 98.7334 23.6822C98.7338 23.9841 98.8744 24.1352 99.1433 24.1353C99.5055 23.9495 99.856 23.7754 100.195 23.5897C100.44 23.4387 100.674 23.2646 100.907 23.0672C101.141 22.8698 101.246 22.6956 101.246 22.5446C101.245 22.3007 101.151 22.08 100.952 21.8709C100.753 21.6618 100.624 21.383 100.565 21.0578L100.565 21.0113C100.565 20.9184 100.588 20.8023 100.635 20.6513C100.681 20.5003 100.775 20.3494 100.903 20.1984C101.032 20.0474 101.242 19.9081 101.522 19.7921C101.803 19.676 102.177 19.6064 102.668 19.6066C103.066 19.6067 103.37 19.6648 103.58 19.7926C103.791 19.9204 103.943 20.0366 104.037 20.176C104.131 20.3154 104.178 20.4432 104.201 20.5594C104.213 20.6871 104.225 20.7568 104.225 20.7917C104.225 20.9078 104.202 21.0356 104.155 21.1749C104.109 21.3143 104.085 21.442 104.086 21.5582C104.086 21.8021 104.18 21.9531 104.39 22.0112C104.589 22.0694 104.776 22.1043 104.963 22.1043C105.384 22.1044 105.946 22.0697 106.647 21.9886C107.348 21.9191 108.061 21.7799 108.786 21.6059C109.032 21.5712 109.207 21.5944 109.312 21.6525C109.418 21.7106 109.488 21.8733 109.524 22.152L109.512 22.1288Z" fill="#242321"/>
<path d="M126.342 21.5375C126.552 21.5376 126.716 21.6189 126.845 21.7816C126.974 21.9443 127.033 22.1534 127.033 22.3974C127.033 22.5832 126.975 22.7691 126.847 22.9666C126.718 23.164 126.59 23.2918 126.438 23.3498C125.713 23.6168 124.977 23.8954 124.253 24.1624C123.528 24.441 122.874 24.6616 122.289 24.8473C121.471 25.1839 120.723 25.4161 120.057 25.5669C119.391 25.7178 118.795 25.8686 118.28 26.0195C117.497 26.2284 116.878 26.3909 116.434 26.4953C115.989 26.5997 115.592 26.6577 115.229 26.6576C114.621 26.6574 114.235 26.5411 114.071 26.3204C113.907 26.088 113.802 25.8091 113.778 25.4838C113.777 24.9378 114.01 24.5081 114.477 24.1945C114.945 23.881 115.471 23.5907 116.031 23.3353C116.592 23.0799 117.106 22.8128 117.585 22.5457C118.053 22.2787 118.286 21.9186 118.285 21.4655C118.285 21.1983 118.074 21.0589 117.653 21.0588C117.291 21.0587 116.917 21.1515 116.531 21.3256C116.146 21.4998 115.702 21.732 115.188 21.9991C114.907 22.15 114.603 22.2893 114.276 22.4287C113.937 22.568 113.61 22.7421 113.271 22.9511C112.757 23.2879 112.208 23.6595 111.636 24.0776C111.052 24.5072 110.456 24.9718 109.814 25.4827C108.786 26.2957 107.794 27.2015 106.836 28.2003C105.879 29.1992 104.945 30.1167 104.034 30.9645C103.789 31.1735 103.543 31.3825 103.287 31.58C103.03 31.7774 102.784 31.9864 102.539 32.1955C102.2 32.4626 101.873 32.7878 101.535 33.171C101.196 33.5427 100.904 33.7401 100.624 33.74C100.343 33.7399 100.121 33.6353 99.91 33.4262C99.7109 33.217 99.617 32.9846 99.6167 32.7523C99.6162 32.4154 99.7912 32.125 100.142 31.8695C100.492 31.614 100.866 31.3005 101.263 30.9404C101.987 30.1855 102.851 29.3377 103.831 28.4086C104.824 27.4679 105.875 26.5039 106.996 25.5052C107.3 25.1684 107.685 24.82 108.152 24.4483C108.619 24.0651 108.853 23.7166 108.852 23.3797C108.852 23.2287 108.77 23.0777 108.606 22.9266C108.442 22.7755 108.336 22.4851 108.312 22.0668C108.312 21.7996 108.417 21.5673 108.627 21.3931C108.837 21.2189 109.094 21.0564 109.398 20.917C109.702 20.7777 109.994 20.65 110.286 20.5339C110.578 20.4178 110.812 20.2785 110.987 20.1275C111.232 19.9185 111.454 19.7094 111.653 19.5004C111.851 19.2913 112.05 19.059 112.271 18.8151C113.206 17.9092 113.953 17.1659 114.502 16.5736C115.05 15.9813 115.47 15.5167 115.774 15.1683C116.077 14.8199 116.311 14.576 116.475 14.4482C116.638 14.3205 116.825 14.2392 117.047 14.2393C117.234 14.2393 117.422 14.3555 117.621 14.5996C117.82 14.8436 117.914 15.0876 117.914 15.3199C117.914 15.5523 117.798 15.8543 117.576 16.2027C117.355 16.5512 116.899 17.1203 116.234 17.8985C116.176 17.9914 116.071 18.1075 115.919 18.2585C115.767 18.4095 115.627 18.5721 115.487 18.7347C115.347 18.8973 115.23 19.0715 115.125 19.2341C115.02 19.3968 114.962 19.5245 114.962 19.6175C114.962 19.8033 115.114 19.8847 115.418 19.8848C115.512 19.8848 115.605 19.8732 115.687 19.8384C116.108 19.6875 116.47 19.5714 116.774 19.5018C117.078 19.4322 117.382 19.3858 117.686 19.3859C118.236 19.386 118.657 19.4675 118.961 19.6302C119.265 19.7929 119.499 19.9905 119.663 20.2229C119.827 20.4553 119.933 20.6876 119.957 20.9316C119.98 21.1756 120.004 21.3498 120.004 21.4776C120.005 21.7797 119.947 22.0701 119.818 22.3373C119.702 22.616 119.562 22.8483 119.41 23.0574C119.258 23.2665 119.118 23.4523 119.002 23.6033C118.873 23.7543 118.815 23.8588 118.815 23.9169C118.815 23.975 118.839 24.0099 118.909 24.0099C119.096 24.0099 119.341 23.9635 119.657 23.8707C119.973 23.7778 120.347 23.6618 120.779 23.5341C121.2 23.3948 121.644 23.2439 122.1 23.0582C122.555 22.8724 123.011 22.7099 123.467 22.559C123.619 22.501 123.817 22.4197 124.086 22.3152C124.343 22.2107 124.612 22.0946 124.881 21.9785C125.15 21.8624 125.418 21.758 125.676 21.6883C125.933 21.6187 126.155 21.5723 126.342 21.5723L126.342 21.5375Z" fill="#242321"/>
<path d="M142.94 21.9429C142.998 21.9429 143.033 22.059 143.034 22.3029C143.034 22.6397 142.789 22.9997 142.31 23.3944C141.831 23.7892 141.236 24.149 140.558 24.4857C139.88 24.8223 139.179 25.1008 138.49 25.3213C137.788 25.5418 137.216 25.6577 136.76 25.6576C136.058 25.6574 135.485 25.4947 135.052 25.181C134.619 24.8673 134.314 24.4375 134.161 23.8916C134.161 23.7058 134.032 23.6244 133.798 23.6244C133.494 23.6243 133.19 23.7287 132.887 23.9377C132.162 24.2743 131.297 24.576 130.316 24.8661C129.334 25.1562 128.48 25.2953 127.791 25.2951C127.031 25.2949 126.434 25.1089 125.989 24.7256C125.544 24.3422 125.333 23.8311 125.332 23.1691C125.331 22.391 125.669 21.6362 126.334 20.9279C127 20.2197 128.016 19.6509 129.384 19.2331C129.898 19.0475 130.401 18.8966 130.891 18.7806C131.382 18.6646 131.897 18.5951 132.446 18.5952C133.113 18.5954 133.709 18.7233 134.224 18.9557C134.739 19.1998 135.102 19.525 135.313 19.9548C135.407 20.1639 135.512 20.3381 135.63 20.4775C135.747 20.6169 135.875 20.7563 135.993 20.8841C136.11 21.0235 136.215 21.1513 136.309 21.2907C136.403 21.4301 136.45 21.5811 136.45 21.7669C136.45 22.0108 136.38 22.2663 136.229 22.5566C136.077 22.8469 136.008 23.1256 136.008 23.3927C136.008 23.4856 136.055 23.5902 136.172 23.7063C136.277 23.8225 136.546 23.8922 136.967 23.8924C137.271 23.8924 137.727 23.7997 138.335 23.6256C138.943 23.44 139.527 23.1846 140.111 22.8596C140.228 22.7667 140.403 22.6506 140.637 22.4997C140.859 22.3488 141.104 22.1979 141.338 22.047C141.571 21.896 141.805 21.7684 142.027 21.6639C142.249 21.5594 142.424 21.5014 142.576 21.5014C142.729 21.5015 142.799 21.548 142.799 21.6409C142.799 21.7338 142.858 21.8383 142.986 21.9545L142.94 21.9429ZM133.328 21.6731C133.596 21.4874 133.736 21.2551 133.736 20.9532C133.736 20.7093 133.618 20.5583 133.373 20.5001C133.127 20.442 132.8 20.4071 132.367 20.4069C131.853 20.4068 131.338 20.4647 130.812 20.5923C130.298 20.72 129.819 20.8824 129.398 21.0914C128.978 21.3003 128.627 21.5557 128.347 21.8576C128.078 22.1595 127.939 22.473 127.939 22.8098C127.939 22.9608 127.975 23.1002 128.057 23.2163C128.139 23.3325 128.291 23.4022 128.536 23.4023C129.296 23.4025 130.033 23.2401 130.769 22.9035C131.493 22.5669 132.346 22.1606 133.316 21.6847L133.328 21.6731Z" fill="#242321"/>
<path d="M175.079 12.7572L175.172 12.7572C175.114 12.9663 174.986 13.1521 174.811 13.3031C174.624 13.4541 174.413 13.5353 174.168 13.5353L174.074 13.5352C173.22 13.3491 172.261 13.1862 171.209 13.0349C170.145 12.8836 169.069 12.8136 167.97 12.8133C167.724 12.8132 167.479 12.8131 167.245 12.8363C166.999 12.8479 166.754 12.8594 166.52 12.8593C165.269 12.859 163.971 12.8354 162.603 12.7885C161.234 12.7417 159.866 12.7181 158.498 12.7177L156.359 12.7171C155.751 12.7169 155.224 12.74 154.792 12.7864C154.359 12.8327 153.974 12.9255 153.646 13.0765C153.331 13.2274 153.027 13.4364 152.759 13.7152C152.49 13.9939 152.175 14.2378 151.848 14.4816C151.521 14.7255 151.217 14.9926 150.937 15.2946C149.232 17.0483 147.878 18.4652 146.839 19.5453C145.811 20.6254 144.994 21.5081 144.399 22.1701C143.803 22.8321 143.418 23.3315 143.22 23.6683C143.022 24.0052 142.917 24.284 142.917 24.5279C142.918 24.737 142.988 24.8648 143.128 24.8881C143.269 24.923 143.409 24.9347 143.561 24.9347C144.169 24.9349 145.057 24.7144 146.226 24.2733C147.395 23.8321 148.645 23.2516 149.977 22.5318C150.245 22.3227 150.537 22.1021 150.841 21.8814C151.145 21.6608 151.39 21.5447 151.566 21.5447C151.811 21.5448 151.963 21.6262 152.022 21.7888C152.081 21.9515 152.116 22.1257 152.116 22.3116C152.117 22.7066 152.024 23.0086 151.825 23.2177C151.627 23.4267 151.288 23.6706 150.797 23.9376C150.307 24.2047 149.746 24.5182 149.092 24.8433C148.437 25.18 147.759 25.4703 147.07 25.7489C146.369 26.0159 145.679 26.248 145.001 26.4569C144.312 26.6542 143.692 26.747 143.108 26.7468C142.464 26.7467 141.962 26.6768 141.576 26.5257C141.201 26.3746 140.909 26.1886 140.709 25.9562C140.51 25.7354 140.381 25.5147 140.323 25.3055C140.264 25.0964 140.229 24.9105 140.228 24.7595C140.227 23.9115 140.6 23.1332 141.371 22.4248C142.13 21.7164 142.982 20.8802 143.916 19.9162C144.372 19.4981 144.804 19.0336 145.212 18.5341C145.621 18.0347 146.064 17.5469 146.555 17.0708C146.8 16.8269 147.045 16.6178 147.279 16.432C147.524 16.2462 147.769 16.0372 148.003 15.8049L148.575 15.2358C148.797 15.0152 149.018 14.7829 149.205 14.5622C149.392 14.3415 149.579 14.1209 149.73 13.9118C149.882 13.7027 149.952 13.5517 149.952 13.4588C149.952 13.3659 149.893 13.2729 149.788 13.1799C149.683 13.087 149.554 13.0405 149.402 13.0404C148.548 13.0402 147.835 13.0516 147.239 13.0863C146.642 13.121 146.163 13.1325 145.801 13.1324C145.403 13.1322 145.076 13.0973 144.818 13.0159C144.561 12.9345 144.432 12.7602 144.432 12.4814C144.431 11.9586 144.945 11.6103 145.985 11.4595C147.505 11.3089 149.036 10.926 150.59 10.2875C152.133 9.66061 153.687 8.98725 155.23 8.26743C155.931 7.94234 156.561 7.46622 157.122 6.85067C157.682 6.23512 158.254 5.67766 158.826 5.16667C159.037 4.95762 159.259 4.7718 159.48 4.60923C159.714 4.44665 159.924 4.26083 160.146 4.05179C160.45 3.78468 160.788 3.49435 161.174 3.16918C161.559 2.84401 161.921 2.69309 162.296 2.69319C162.448 2.69323 162.623 2.72813 162.822 2.80951C163.021 2.87926 163.196 2.99549 163.349 3.14655L163.395 3.10009C163.513 3.286 163.583 3.44866 163.583 3.59968C163.584 3.93658 163.444 4.26183 163.175 4.58703C162.907 4.91223 162.557 5.26064 162.124 5.59742C161.692 5.94581 161.225 6.27096 160.688 6.58447C160.162 6.89798 159.636 7.18826 159.122 7.45531C158.912 7.57142 158.62 7.82693 158.235 8.19857C157.849 8.57021 157.487 8.93023 157.114 9.2554C156.997 9.37154 156.845 9.5109 156.658 9.66187C156.471 9.81284 156.308 9.97544 156.133 10.138C155.969 10.3006 155.817 10.4516 155.701 10.591C155.584 10.7187 155.514 10.8349 155.514 10.9278C155.514 11.044 155.561 11.1486 155.655 11.2183C155.748 11.288 155.842 11.3345 155.936 11.3345C156.964 11.2767 158.005 11.2189 159.034 11.1728C160.063 11.1266 161.103 11.1036 162.132 11.1039C162.472 11.104 162.811 11.1157 163.161 11.1507C163.512 11.1856 163.851 11.1973 164.19 11.1974C164.53 11.1975 164.869 11.186 165.219 11.1513C165.57 11.1165 165.909 11.105 166.248 11.1051C167.277 11.1054 168.341 11.1405 169.417 11.2221C170.493 11.2921 171.51 11.3621 172.446 11.4321C172.75 11.4322 173.066 11.4323 173.381 11.4556C173.697 11.4789 174.001 11.5138 174.27 11.572C174.551 11.6302 174.762 11.7348 174.937 11.8742C175.101 12.0137 175.183 12.2112 175.184 12.4552C175.184 12.5481 175.172 12.6062 175.137 12.641L175.09 12.7804L175.079 12.7572ZM153.257 10.6251C153.257 10.6251 153.304 10.5671 153.304 10.5322C153.303 10.416 153.233 10.3463 153.081 10.3463C153.046 10.3463 153.023 10.3463 152.988 10.3695C152.953 10.3927 152.918 10.3927 152.847 10.3927C152.637 10.4856 152.392 10.5784 152.123 10.6829C151.854 10.7874 151.597 10.8919 151.352 10.9964C151.106 11.1008 150.908 11.2053 150.732 11.2866C150.557 11.3679 150.487 11.4376 150.487 11.4724C150.487 11.5305 150.627 11.5654 150.896 11.5655C151.469 11.5656 151.925 11.4844 152.264 11.3103C152.603 11.1477 152.93 10.8922 153.269 10.5671L153.269 10.6135L153.257 10.6251Z" fill="#242321"/>
<path d="M168.592 6.00393L168.592 6.28279C168.592 6.34088 168.546 6.44544 168.452 6.57322C168.359 6.701 168.184 6.92171 167.927 7.20049C167.67 7.47927 167.273 7.92067 166.725 8.48984C166.479 8.73377 166.269 8.98932 166.094 9.2565C165.919 9.52368 165.697 9.79086 165.464 10.0232C164.25 11.266 162.919 12.5902 161.459 14.0073C160 15.4244 158.61 16.8183 157.267 18.1657C156.485 18.9555 155.808 19.5827 155.271 20.0706C154.722 20.5584 154.266 20.9417 153.904 21.2437C153.542 21.5457 153.274 21.7896 153.11 21.9871C152.947 22.1846 152.865 22.3704 152.866 22.5563C152.866 22.7074 152.971 22.7771 153.182 22.7772C153.369 22.7772 153.544 22.7076 153.731 22.5566C154.794 21.8597 155.822 21.2326 156.827 20.652C157.831 20.0829 158.766 19.7927 159.655 19.793C160.111 19.7931 160.462 19.8861 160.72 20.0605C160.977 20.2349 161.176 20.444 161.317 20.6765C161.457 20.9089 161.54 21.118 161.575 21.3388C161.599 21.548 161.622 21.6874 161.622 21.7455C161.623 22.1638 161.518 22.5123 161.32 22.7911C161.121 23.0583 160.876 23.3835 160.573 23.7436C160.48 23.8946 160.433 24.0108 160.433 24.1038C160.433 24.2316 160.527 24.2897 160.702 24.2897C160.819 24.2898 161.041 24.2201 161.333 24.0808C161.626 23.9414 161.988 23.7905 162.385 23.6047C162.782 23.4189 163.191 23.2331 163.635 23.0125C164.079 22.8035 164.488 22.6177 164.886 22.4668C165.038 22.4087 165.236 22.3274 165.482 22.2229C165.727 22.1184 165.972 22.0139 166.23 21.9094C166.487 21.8049 166.72 21.7121 166.942 21.6424C167.153 21.5728 167.305 21.5263 167.398 21.5263C167.644 21.5264 167.831 21.631 167.972 21.8402C168.112 22.0494 168.183 22.2818 168.183 22.5142C168.184 22.9092 167.985 23.1996 167.588 23.3738C165.707 24.2447 164.059 24.9646 162.645 25.5219C161.231 26.0792 160.167 26.3577 159.431 26.3575C158.881 26.3574 158.472 26.2295 158.202 25.9738C157.933 25.7181 157.792 25.4043 157.792 25.0442C157.792 24.7769 157.885 24.4981 158.083 24.2077C158.281 23.9173 158.503 23.6385 158.737 23.3713C158.97 23.1041 159.204 22.837 159.39 22.5814C159.577 22.3258 159.694 22.0703 159.693 21.8379C159.693 21.6288 159.541 21.5241 159.237 21.524C158.991 21.524 158.676 21.6052 158.278 21.7678C157.881 21.9303 157.472 22.1394 157.051 22.3948C156.631 22.6503 156.21 22.9291 155.801 23.2078C155.393 23.4982 155.031 23.7421 154.739 23.9511C153.769 24.5899 152.904 25.1125 152.168 25.5306C151.421 25.9486 150.813 26.1576 150.322 26.1575C149.983 26.1574 149.725 26.0643 149.526 25.8668C149.327 25.6692 149.233 25.4019 149.233 25.0766C149.233 24.9256 149.291 24.7164 149.396 24.4492C149.5 24.1704 149.71 23.8103 150.014 23.334C150.317 22.8693 150.737 22.2885 151.286 21.5915C151.834 20.8946 152.546 20.0466 153.422 19.0592C155.64 16.8523 157.602 14.8428 159.341 13.0423C161.081 11.2419 162.797 9.48795 164.525 7.79209C164.981 7.37394 165.354 7.00224 165.646 6.68862C165.938 6.37499 166.195 6.10783 166.417 5.89875C166.639 5.68968 166.849 5.52707 167.036 5.42255C167.223 5.31803 167.433 5.26 167.667 5.26006C168.006 5.26016 168.217 5.31832 168.322 5.44615C168.427 5.57399 168.533 5.7483 168.615 5.99232L168.592 6.00393Z" fill="#242321"/>
<path d="M177.079 21.5849C177.383 21.585 177.57 21.678 177.629 21.8523C177.687 22.0266 177.723 22.2822 177.723 22.5727C177.724 22.7586 177.665 22.9212 177.537 23.0722C177.408 23.2232 177.28 23.3278 177.128 23.3858C176.497 23.6529 175.878 23.9315 175.282 24.1986C174.686 24.4773 174.125 24.7327 173.576 24.9649C172.325 25.4758 171.274 25.8357 170.409 26.0445C169.544 26.2534 168.772 26.3578 168.106 26.3576C167.521 26.3574 167.006 26.2063 166.538 25.9273C166.07 25.6483 165.824 25.1486 165.823 24.4632C165.822 24.1843 165.88 23.8241 165.985 23.3711C166.089 22.918 166.288 22.4997 166.556 22.1048C166.743 21.919 166.93 21.7331 167.128 21.5124C167.327 21.2917 167.525 21.0943 167.747 20.8852C167.84 20.7923 167.945 20.6761 168.062 20.5483C168.179 20.409 168.331 20.2696 168.494 20.1186C168.658 19.9676 168.833 19.8398 168.996 19.7353C169.16 19.6308 169.323 19.5727 169.475 19.5728C169.721 19.5729 169.967 19.6426 170.201 19.7821C170.447 19.9216 170.564 20.1075 170.564 20.3515C170.565 20.6885 170.495 20.9441 170.343 21.1183C169.736 21.7223 169.164 22.3147 168.638 22.8838C168.101 23.453 167.845 23.906 167.845 24.243C167.846 24.545 168.056 24.6961 168.489 24.6963C168.758 24.6963 169.167 24.6267 169.716 24.4759C170.266 24.325 170.874 24.1392 171.54 23.9071C172.206 23.6865 172.884 23.4195 173.573 23.1408C174.251 22.8505 174.87 22.5951 175.419 22.3513C175.758 22.2003 176.05 22.0378 176.307 21.8519C176.564 21.6661 176.833 21.5849 177.102 21.5849L177.079 21.5849ZM173.519 17.7847C173.18 17.7846 172.875 17.6451 172.583 17.3545C172.29 17.064 172.149 16.7619 172.149 16.4249C172.148 16.2158 172.23 16.0067 172.393 15.7976C172.557 15.5885 172.743 15.4027 172.965 15.2285C173.176 15.0659 173.386 14.9381 173.608 14.8452C173.818 14.7523 173.97 14.7059 174.064 14.7059C174.403 14.706 174.695 14.8455 174.976 15.1361C175.246 15.4266 175.386 15.7636 175.387 16.1586C175.388 16.5769 175.166 16.9602 174.722 17.297C174.278 17.6338 173.881 17.7964 173.519 17.7963L173.519 17.7847Z" fill="#242321"/>
<path d="M189.078 22.6257C189.078 22.8116 188.962 22.9974 188.716 23.1948C188.471 23.3922 188.167 23.578 187.805 23.7637C187.443 23.9495 187.057 24.1236 186.648 24.3093C186.239 24.4951 185.865 24.646 185.538 24.762C185.199 24.9129 184.86 25.0174 184.51 25.0986C184.159 25.1798 183.82 25.261 183.481 25.3887C182.663 25.6556 181.915 25.8529 181.225 26.0037C180.547 26.1545 179.869 26.224 179.203 26.2238C178.174 26.2236 177.367 26.0026 176.793 25.5727C176.22 25.1428 175.926 24.5387 175.925 23.7837C175.925 23.3655 176.041 22.8893 176.286 22.3783C176.531 21.8673 176.846 21.3911 177.243 20.9498C177.639 20.5085 178.107 20.137 178.632 19.8351C179.158 19.5332 179.731 19.3824 180.339 19.3826C180.76 19.3827 181.134 19.4409 181.462 19.5687C181.778 19.6966 181.942 19.9173 181.942 20.2542C181.942 20.4981 181.861 20.7188 181.697 20.9162C181.534 21.1136 181.312 21.2181 181.031 21.218C180.973 21.218 180.891 21.218 180.809 21.1947C180.727 21.1715 180.645 21.1715 180.587 21.1714C180.283 21.1365 179.979 21.2177 179.675 21.4035C179.372 21.5893 179.091 21.8099 178.858 22.0886C178.624 22.3673 178.414 22.646 178.263 22.9364C178.111 23.2267 178.041 23.459 178.042 23.6449C178.042 23.8307 178.136 24.0398 178.311 24.2838C178.487 24.5278 178.885 24.6557 179.493 24.6558C180.066 24.656 180.709 24.5632 181.41 24.3543C182.111 24.1571 182.824 23.925 183.549 23.658C183.853 23.5419 184.18 23.4026 184.554 23.2517C184.928 23.1008 185.278 22.9615 185.652 22.8223C186.026 22.683 186.354 22.5437 186.681 22.416C186.996 22.2767 187.265 22.1722 187.475 22.0794C187.721 21.9865 187.884 21.8936 187.978 21.7891C188.071 21.6846 188.235 21.6266 188.48 21.6266C188.913 21.6268 189.124 21.8475 189.124 22.3005L189.125 22.6606L189.078 22.6257Z" fill="#242321"/>
<path d="M208.976 25.7867C209.163 26.0307 209.222 26.2747 209.187 26.5303C209.141 26.7859 209.013 27.0299 208.802 27.2738L208.534 27.4596C208.44 27.5177 208.323 27.5525 208.171 27.5525C208.113 27.5525 208.031 27.5525 207.949 27.5292C207.867 27.5059 207.739 27.471 207.587 27.4129C206.978 27.0177 206.51 26.4947 206.193 25.8324C205.876 25.17 205.595 24.5077 205.348 23.8453L205.395 23.6595C204.145 24.5073 202.871 25.204 201.551 25.7381C200.23 26.2838 198.991 26.5856 197.834 26.6433C197.074 26.6431 196.465 26.5035 196.009 26.2362C195.553 25.9572 195.225 25.5969 195.002 25.1437C194.791 24.6325 194.79 24.0283 194.999 23.3312C195.209 22.6342 195.57 21.9604 196.095 21.2983C196.913 20.3342 197.917 19.5676 199.12 18.987C200.324 18.4064 201.493 17.9304 202.65 17.5357C202.895 17.4776 203.14 17.3731 203.374 17.2454C203.619 17.106 203.842 17.0132 204.064 16.9435C204.214 16.0373 204.482 15.0614 204.878 14.0275C205.274 12.9819 205.799 12.1687 206.464 11.5647C206.885 11.2047 207.364 10.9724 207.878 10.8796C208.393 10.7868 208.907 10.8218 209.434 10.973C210.252 11.0894 210.767 11.4846 210.99 12.1469C211.202 12.8441 211.039 13.5993 210.491 14.4124C210.036 15.2256 209.371 15.9342 208.495 16.5149C207.618 17.1072 206.836 17.5949 206.17 17.9898C206.112 18.7101 206.231 19.5583 206.536 20.5227L206.851 20.2556C206.886 20.1046 206.991 19.9884 207.19 19.9188C207.389 19.8491 207.564 19.8027 207.716 19.8027C208.172 19.9539 208.43 20.1515 208.488 20.3955C208.547 20.5466 208.547 20.686 208.466 20.8254C208.396 20.9648 208.291 21.0577 208.174 21.1158L206.995 22.3354C206.995 22.4283 207.007 22.4864 207.042 22.5213L207.135 22.6143L207.229 22.8002C207.417 23.4044 207.605 23.9389 207.804 24.4037C208.004 24.8685 208.402 25.3334 209.011 25.7867L208.976 25.7867ZM201.279 23.972C202.097 23.6121 202.763 23.2753 203.277 22.9501C203.791 22.6366 204.305 22.323 204.831 22.0211C204.643 21.5098 204.49 20.9753 204.373 20.4408C204.255 19.8947 204.172 19.3254 204.148 18.7212L202.687 19.3598C202.197 19.6269 201.659 19.8243 201.051 19.9519C200.233 20.3118 199.521 20.6951 198.913 21.0899C198.306 21.4848 197.85 21.9029 197.547 22.356C197.243 22.658 196.998 23.0181 196.824 23.4479C196.649 23.8778 196.673 24.2031 196.918 24.4472C197.188 24.6912 197.527 24.8075 197.925 24.8076C198.322 24.8077 198.72 24.7614 199.129 24.6685C199.538 24.5757 199.947 24.4596 200.333 24.3319C200.73 24.1926 201.046 24.0881 201.291 23.9953L201.279 23.972ZM206.237 15.9217C206.658 15.6778 207.078 15.4223 207.487 15.132C207.896 14.8416 208.269 14.5048 208.596 14.1098C208.806 13.8659 208.935 13.6684 208.981 13.5174C209.028 13.3664 209.016 13.2153 208.957 13.0642C208.77 12.8783 208.653 12.7969 208.594 12.7969L208.407 12.7969C208.255 12.7968 208.103 12.8316 207.951 12.8897L207.496 13.0755C206.947 13.4703 206.597 13.935 206.422 14.481C206.247 15.027 206.143 15.5499 206.085 16.0611L206.225 15.9217L206.237 15.9217Z" fill="#242321"/>
<path d="M254.967 4.97183C255.154 4.97188 255.341 5.03002 255.54 5.13463C255.739 5.23925 255.821 5.41354 255.786 5.6575C255.752 5.95955 255.6 6.27318 255.308 6.61C255.017 6.94683 254.69 7.26041 254.328 7.5856C253.966 7.91079 253.592 8.21274 253.206 8.51469C252.821 8.81664 252.517 9.08376 252.272 9.32766C252.027 9.57156 251.805 9.8387 251.583 10.1175C251.362 10.3962 251.14 10.6634 250.906 10.9073C250.661 11.1744 250.404 11.4299 250.136 11.6506C249.856 11.8712 249.599 12.1151 249.365 12.3474C248.875 12.8584 248.408 13.3811 247.929 13.9038C247.462 14.4264 246.984 14.9491 246.493 15.4601C246.248 15.7621 246.003 16.0292 245.746 16.2731C245.489 16.517 245.244 16.7725 244.999 17.0397C244.905 17.1558 244.777 17.3068 244.614 17.4927C244.45 17.6785 244.287 17.8643 244.135 18.085C243.983 18.3057 243.855 18.4799 243.75 18.6542C243.645 18.8168 243.587 18.9562 243.587 19.0375C243.529 19.4325 243.693 19.63 244.091 19.6301C244.816 19.6303 245.622 19.5609 246.487 19.4217C247.352 19.2825 248.229 19.0853 249.106 18.8067C249.164 18.8067 249.234 18.8067 249.316 18.7835C249.386 18.7719 249.456 18.7603 249.526 18.7603C249.678 18.7604 249.83 18.8069 249.983 18.8999C250.135 18.9929 250.229 19.1207 250.252 19.3066L250.346 19.3066L250.346 19.5738C250.312 19.9107 250.078 20.1778 249.634 20.3868C249.19 20.5958 248.687 20.7699 248.115 20.9092C247.53 21.0484 246.957 21.1528 246.361 21.2224C245.765 21.2919 245.309 21.3499 244.97 21.3846C244.537 21.4194 244.128 21.4309 243.719 21.4308C243.31 21.4306 242.901 21.4538 242.515 21.5001C242.129 21.5465 241.755 21.6393 241.428 21.7903C241.101 21.9412 240.82 22.1619 240.61 22.4639C239.606 23.7066 238.79 24.8333 238.16 25.8555C237.915 26.1923 237.67 26.564 237.413 26.9938C237.156 27.412 237.005 27.7372 236.982 27.9463C236.982 28.1322 237.041 28.2832 237.169 28.4227C237.287 28.5621 237.439 28.6319 237.626 28.6319C237.895 28.632 238.292 28.5508 238.806 28.3883C239.321 28.2258 239.812 28.0633 240.267 27.9124C240.63 27.7615 240.992 27.5757 241.342 27.3667C241.693 27.1576 242.078 26.9486 242.499 26.7396C242.686 26.6468 242.896 26.5422 243.142 26.4261C243.387 26.2984 243.632 26.1707 243.866 26.043C244.1 25.9152 244.357 25.7991 244.59 25.7063C244.836 25.6134 245.035 25.567 245.187 25.567C245.526 25.5671 245.76 25.6834 245.889 25.9041C246.018 26.1249 246.076 26.4037 246.054 26.7406C246.054 26.9846 245.949 27.1821 245.739 27.333C245.528 27.484 245.283 27.6234 245.014 27.7627C244.746 27.902 244.442 28.0181 244.126 28.1226C243.811 28.227 243.542 28.3431 243.332 28.4593C242.747 28.7263 242.14 29.005 241.485 29.272C240.831 29.539 240.188 29.7944 239.545 30.015C238.903 30.2355 238.307 30.4212 237.746 30.5605C237.184 30.6997 236.705 30.7693 236.308 30.7692C236.097 30.7691 235.887 30.7575 235.676 30.7226C235.466 30.6876 235.278 30.6295 235.126 30.5365C234.974 30.4435 234.857 30.3041 234.763 30.1066C234.669 29.909 234.646 29.6418 234.669 29.3165C234.703 28.8054 234.901 28.1665 235.285 27.4114C235.659 26.6564 236.242 25.7039 237.035 24.5656C237.152 24.4146 237.304 24.2172 237.467 23.95C237.63 23.6945 237.794 23.4389 237.945 23.1834C238.097 22.9278 238.237 22.6839 238.354 22.4632C238.47 22.2425 238.54 22.0799 238.54 21.9869C238.575 21.6849 238.504 21.4758 238.329 21.3595C238.153 21.2433 237.954 21.1503 237.697 21.1154C237.439 21.0805 237.147 21.0572 236.831 21.0687C236.516 21.0802 236.235 21.0685 235.989 20.9987C235.136 20.8823 234.294 20.7659 233.463 20.6611C232.621 20.5563 231.721 20.498 230.75 20.4977C229.99 20.4975 229.371 20.7529 228.881 21.264C227.818 22.437 226.814 23.6101 225.857 24.7716C224.9 25.9331 223.849 27.0829 222.694 28.2328C222.542 28.3837 222.156 28.7322 221.549 29.2896C220.942 29.8471 220.218 30.4394 219.365 31.0781C218.513 31.7168 217.613 32.2975 216.655 32.8432C215.697 33.389 214.797 33.7024 213.944 33.7951C213.675 33.795 213.441 33.702 213.265 33.5161C213.078 33.3302 213.007 33.1094 213.03 32.8422L213.03 32.7028L212.983 32.7028C213.042 32.4937 213.17 32.3311 213.345 32.2033C213.52 32.0756 213.707 32.0059 213.894 31.9828C214.771 31.8552 215.741 31.4489 216.804 30.7405C217.867 30.0321 218.942 29.196 220.016 28.232C221.09 27.2681 222.106 26.2692 223.063 25.2471C224.021 24.2251 224.85 23.3308 225.538 22.5758C225.655 22.4248 225.807 22.2506 225.994 22.0531C226.18 21.8557 226.344 21.6699 226.496 21.484C226.647 21.2982 226.787 21.1356 226.904 20.9846C227.021 20.8336 227.103 20.729 227.126 20.671C227.126 20.4851 226.985 20.3456 226.693 20.241C226.4 20.1364 226.131 20.0666 225.897 20.0317C225.231 19.9966 224.704 19.95 224.33 19.8686C223.944 19.7988 223.675 19.7057 223.511 19.6244C223.347 19.543 223.242 19.4384 223.219 19.3339C223.195 19.2293 223.171 19.1015 223.171 18.9505C223.205 18.3464 223.52 17.6726 224.127 16.906C225.002 15.64 226.041 14.5947 227.221 13.7585C228.401 12.9224 229.768 12.0631 231.321 11.1574C231.567 11.0413 231.847 10.8671 232.186 10.6348C232.525 10.4142 232.934 10.1936 233.413 9.98457C234.803 9.346 236.018 8.7887 237.035 8.28943C238.052 7.79016 238.951 7.32571 239.722 6.88446C240.493 6.44321 241.183 6.01355 241.767 5.57225C242.362 5.13095 242.958 4.64317 243.565 4.09732C244.196 3.47015 244.721 2.95913 245.13 2.58748C245.539 2.20421 245.877 1.90225 246.134 1.68159C246.391 1.46093 246.59 1.30996 246.73 1.22868C246.87 1.14739 247.01 1.11257 247.162 1.11261C247.501 1.11271 247.759 1.21734 247.934 1.42651C248.122 1.63568 248.192 1.91452 248.169 2.2398C248.077 3.053 247.61 3.7964 246.781 4.4816C245.94 5.15518 244.866 5.84032 243.522 6.537C242.704 7.04794 241.945 7.65184 241.245 8.3487C240.544 9.04555 239.773 9.77724 238.921 10.567C238.641 10.8341 238.384 11.1361 238.15 11.4497C237.905 11.7633 237.649 12.0653 237.38 12.3324C236.831 12.8435 236.259 13.3545 235.652 13.8771C235.044 14.3881 234.484 14.9223 233.97 15.4566C233.783 15.6657 233.562 15.9096 233.305 16.1767C233.048 16.4438 232.803 16.7226 232.581 16.9897C232.359 17.2685 232.161 17.5124 231.986 17.7331C231.811 17.9538 231.717 18.128 231.694 18.2558C231.695 18.4998 231.765 18.6624 231.905 18.7554C232.046 18.8484 232.245 18.9065 232.502 18.9415C232.759 18.9764 233.075 18.9765 233.437 18.965C233.8 18.9534 234.209 18.9652 234.665 19.035C235.086 19.0932 235.507 19.1514 235.893 19.2212C236.279 19.291 236.7 19.3376 237.121 19.4075C237.905 19.5006 238.536 19.5473 238.992 19.5706C239.448 19.5824 239.741 19.5941 239.858 19.5941C240.489 19.5943 241.062 19.304 241.54 18.7349C242.299 17.8638 243.081 17.0043 243.887 16.1564C244.692 15.3086 245.486 14.4607 246.28 13.6245C246.794 13.0437 247.307 12.4746 247.809 11.8823C248.311 11.2899 248.813 10.7324 249.339 10.1865C249.911 9.61744 250.483 9.07157 251.043 8.58379C251.604 8.09601 252.164 7.56176 252.702 7.02751C253.063 6.66746 253.425 6.23771 253.799 5.73826C254.161 5.23881 254.569 4.99496 255.025 4.99509L254.967 4.97183ZM231.293 15.7811C231.632 15.514 231.959 15.2353 232.297 14.945C232.636 14.6546 232.963 14.3294 233.302 13.9694C233.582 13.6674 233.862 13.3538 234.142 13.017C234.434 12.6801 234.737 12.3549 235.076 12.0181C235.263 11.8323 235.496 11.6116 235.788 11.3329C236.08 11.0658 236.337 10.787 236.582 10.5199C236.827 10.2527 237.002 9.9972 237.107 9.77649C237.212 9.54417 237.2 9.39314 237.083 9.30017C236.476 9.54397 235.856 9.78777 235.213 10.0199C234.571 10.2637 233.963 10.5191 233.391 10.7862C232.234 11.3319 231.019 12.0286 229.722 12.8647C228.437 13.7124 227.304 14.6183 226.335 15.5823C225.996 15.9191 225.67 16.3256 225.331 16.825C224.993 17.3245 224.83 17.6033 224.83 17.6614C224.83 17.8473 224.982 17.9751 225.286 18.0681C225.59 18.1611 225.941 18.2077 226.339 18.2311C226.736 18.2428 227.111 18.2545 227.45 18.2546L228.069 18.2548C228.373 18.2549 228.666 18.2317 228.958 18.1853C229.25 18.1389 229.461 18.0228 229.612 17.8486C229.916 17.5118 230.196 17.1633 230.453 16.78C230.709 16.4083 230.989 16.0599 231.293 15.7579L231.293 15.7811Z" fill="#242321"/>
<path d="M266.342 22.1329C266.377 22.1909 266.377 22.249 266.366 22.3187C266.354 22.3768 266.343 22.4465 266.343 22.5046C266.343 22.7834 266.273 23.0041 266.121 23.1899C265.97 23.3757 265.783 23.5266 265.549 23.6427C265.315 23.7588 265.07 23.8633 264.801 23.9329C264.532 24.0026 264.275 24.0954 264.03 24.1767C263.691 24.3276 263.329 24.4669 262.931 24.5829C262.534 24.699 262.172 24.8267 261.844 24.9427C260.442 25.3954 259.191 25.7087 258.057 25.871C256.935 26.0333 255.918 26.1143 255.006 26.1141C254.363 26.1139 253.836 25.9976 253.415 25.7768C252.994 25.5559 252.643 25.277 252.362 24.9401C252.092 24.6031 251.893 24.2314 251.764 23.8015C251.646 23.3833 251.575 22.9535 251.575 22.5353C251.574 21.9661 251.643 21.4666 251.795 21.0485C251.946 20.6884 252.179 20.3052 252.495 19.8987C252.81 19.4922 253.195 19.1206 253.639 18.7606C254.083 18.4122 254.538 18.122 255.029 17.8782C255.52 17.6343 255.999 17.5183 256.49 17.5185C257.063 17.5186 257.625 17.7279 258.151 18.1462C258.678 18.5761 258.948 19.0873 258.949 19.6914C258.95 20.2954 258.693 20.8297 258.179 21.271C257.665 21.7239 256.918 22.0954 255.948 22.3971C255.761 22.4552 255.55 22.5132 255.293 22.5596C255.036 22.606 254.79 22.6524 254.568 22.722C254.335 22.78 254.148 22.8729 253.996 22.989C253.844 23.1051 253.774 23.2794 253.774 23.4885C253.775 23.8253 253.962 24.0577 254.325 24.1856C254.688 24.3251 255.085 24.3949 255.506 24.395C256.056 24.3952 256.664 24.3373 257.33 24.2097C257.996 24.0937 258.674 23.9429 259.352 23.7572C260.042 23.5715 260.731 23.3858 261.421 23.1653C262.122 22.9564 262.777 22.7475 263.384 22.527C263.688 22.3761 264.097 22.1787 264.588 21.9349C265.079 21.6911 265.476 21.575 265.745 21.5751C265.932 21.5752 266.049 21.6333 266.108 21.7378C266.166 21.8424 266.248 21.9702 266.33 22.1212L266.342 22.1329ZM254.354 20.3987C254.354 20.3987 254.308 20.5032 254.308 20.6194C254.308 20.8052 254.402 20.8982 254.589 20.8983L254.683 20.8983C255.501 20.6546 256.05 20.3992 256.318 20.1321C256.587 19.865 256.727 19.6211 256.727 19.412C256.726 19.2958 256.633 19.2261 256.457 19.226C256.177 19.226 255.85 19.3537 255.452 19.6091C255.055 19.8645 254.693 20.1432 254.355 20.4452L254.354 20.3987Z" fill="#242321"/>
<path d="M278.043 21.584C278.23 21.5841 278.359 21.6538 278.453 21.8048C278.547 21.9559 278.594 22.1069 278.594 22.2579C278.594 22.5251 278.478 22.7923 278.232 23.0245C277.87 23.2916 277.368 23.6632 276.726 24.1277C276.095 24.5922 275.394 25.0567 274.635 25.5095C273.875 25.9624 273.116 26.3571 272.356 26.6822C271.597 27.0189 270.895 27.1813 270.264 27.1811C269.679 27.181 269.165 26.9717 268.708 26.565C268.251 26.1583 268.017 25.6936 268.016 25.1824C268.016 24.8223 268.097 24.4506 268.272 24.0673C268.435 23.6956 268.645 23.3239 268.89 22.9871C269.135 22.6503 269.38 22.3367 269.637 22.0812C269.894 21.8257 270.116 21.6399 270.303 21.5121C271.155 20.9664 271.576 20.6064 271.576 20.4205C271.575 20.2695 271.505 20.1765 271.365 20.13C271.224 20.0835 271.142 20.0603 271.119 20.0603C271.025 20.0602 270.745 20.2228 270.254 20.5363C269.764 20.8498 269.226 21.1982 268.642 21.5814C268.047 21.953 267.486 22.3013 266.96 22.6264C266.423 22.9399 266.072 23.1025 265.885 23.1024C265.733 23.1024 265.546 23.0442 265.335 22.9164C265.125 22.7885 265.019 22.6026 265.019 22.3238C265.018 22.0218 265.135 21.8011 265.38 21.6502C265.649 21.4411 266.034 21.1508 266.525 20.7908C267.015 20.4309 267.529 20.0709 268.067 19.6993C268.616 19.3393 269.165 19.0258 269.702 18.7704C270.252 18.515 270.719 18.3873 271.117 18.3874C271.666 18.3876 272.169 18.5968 272.626 19.0268C273.083 19.4451 273.305 19.9563 273.306 20.5604C273.307 20.8973 273.237 21.1645 273.085 21.3735C272.84 21.7917 272.595 22.1401 272.338 22.4188C272.082 22.6976 271.848 22.9298 271.626 23.1389C271.404 23.3479 271.241 23.557 271.101 23.766C270.961 23.9751 270.891 24.2306 270.892 24.5327C270.892 24.7418 270.962 24.8812 271.103 24.9393C271.243 24.9974 271.395 25.0323 271.582 25.0324C272.097 25.0325 272.739 24.8236 273.522 24.4172C274.293 24.0109 275.17 23.4535 276.139 22.7684C276.478 22.5245 276.817 22.269 277.167 21.9787C277.517 21.6884 277.809 21.5491 278.055 21.5492L278.043 21.584Z" fill="#242321"/>
<path d="M293.383 22.0415C293.418 22.1925 293.372 22.4017 293.244 22.6805C293.127 22.9477 292.894 23.1335 292.566 23.2264C291.164 23.714 289.984 24.0855 289.013 24.3292C288.043 24.5846 287.05 24.7121 286.056 24.7118C285.717 24.7117 285.424 24.7814 285.167 24.9207C284.91 25.0601 284.677 25.2111 284.49 25.3969C284.291 25.5828 284.116 25.757 283.964 25.9429C283.813 26.1287 283.673 26.2797 283.556 26.3959C283.404 26.4888 283.159 26.6398 282.808 26.8721C282.458 27.0927 282.061 27.3366 281.605 27.5689C281.149 27.8011 280.658 28.0218 280.121 28.2075C279.595 28.3933 279.092 28.4745 278.636 28.4743C277.876 28.4741 277.256 28.1835 276.764 27.614C276.272 27.0445 276.037 26.3589 276.036 25.5805C276.035 24.8833 276.361 24.0003 277.015 22.9083C277.668 21.8163 278.52 20.6546 279.582 19.4233C279.92 19.0051 280.259 18.5869 280.632 18.1803C280.994 17.7738 281.309 17.344 281.589 16.8909C282.348 15.6246 283.188 14.4048 284.11 13.2432C285.032 12.0815 285.919 11.0593 286.771 10.1881C287.624 9.3169 288.383 8.61996 289.048 8.1089C289.714 7.59785 290.17 7.34235 290.415 7.34242C290.778 7.34252 291.117 7.47043 291.421 7.72613C291.726 7.98184 291.878 8.30722 291.879 8.70227C291.88 9.19027 291.658 9.62012 291.214 10.0151C290.77 10.41 290.362 10.7817 289.965 11.1418C288.447 12.6518 287.046 14.1154 285.75 15.5326C284.466 16.9498 283.17 18.3437 281.862 19.6912C281.045 20.6321 280.403 21.422 279.948 22.0842C279.493 22.7463 279.167 23.3272 278.969 23.8035C278.77 24.2915 278.654 24.6865 278.631 25.0002C278.608 25.3139 278.597 25.5928 278.632 25.8368C278.668 26.2551 278.902 26.4527 279.347 26.4296C279.791 26.3948 280.258 26.2672 280.784 26.0233C281.298 25.7795 281.766 25.5007 282.198 25.1639C282.63 24.8271 282.84 24.5715 282.84 24.3972C282.84 24.3042 282.793 24.2345 282.699 24.1648C282.032 23.7115 281.692 23.1072 281.691 22.3519C281.69 21.7826 281.9 21.283 282.308 20.8648C282.717 20.435 283.36 20.2261 284.248 20.2263C285.137 20.2266 285.722 20.3662 286.026 20.6335C286.331 20.9124 286.53 21.2146 286.624 21.54C286.718 21.8653 286.8 22.1674 286.871 22.4463C286.941 22.7252 287.199 22.8531 287.62 22.8532L287.807 22.8532C288.415 22.7024 289.151 22.5051 290.016 22.2613C290.881 22.0175 291.734 21.7738 292.587 21.5416C292.774 21.4836 292.938 21.4836 293.114 21.565C293.289 21.6464 293.383 21.7975 293.407 22.0415L293.383 22.0415ZM284.638 22.6316C284.638 22.6316 284.684 22.527 284.684 22.3992C284.684 22.1552 284.578 22.0274 284.368 21.9925C284.157 21.9576 283.982 21.9459 283.865 21.9458C283.503 21.9457 283.292 22.0038 283.234 22.1316C283.234 22.1897 283.316 22.3175 283.48 22.5151C283.644 22.7127 283.96 22.8173 284.416 22.8174C284.568 22.8175 284.638 22.7594 284.638 22.6316Z" fill="#242321"/>
<path d="M309.565 21.9429C309.623 21.9429 309.658 22.059 309.659 22.3029C309.659 22.6397 309.414 22.9997 308.935 23.3944C308.456 23.7892 307.861 24.149 307.183 24.4857C306.505 24.8223 305.804 25.1008 305.115 25.3213C304.413 25.5418 303.841 25.6577 303.385 25.6576C302.683 25.6574 302.11 25.4947 301.677 25.181C301.244 24.8673 300.939 24.4375 300.786 23.8916C300.786 23.7058 300.657 23.6244 300.423 23.6244C300.119 23.6243 299.815 23.7287 299.512 23.9377C298.787 24.2743 297.922 24.576 296.941 24.8661C295.959 25.1562 295.105 25.2953 294.416 25.2951C293.656 25.2949 293.059 25.1089 292.614 24.7256C292.169 24.3422 291.958 23.8311 291.957 23.1691C291.956 22.391 292.294 21.6362 292.959 20.9279C293.625 20.2197 294.641 19.6509 296.009 19.2331C296.523 19.0475 297.026 18.8966 297.516 18.7806C298.007 18.6646 298.522 18.5951 299.071 18.5952C299.738 18.5954 300.334 18.7233 300.849 18.9557C301.364 19.1998 301.727 19.525 301.938 19.9548C302.032 20.1639 302.137 20.3381 302.255 20.4775C302.372 20.6169 302.5 20.7563 302.618 20.8841C302.735 21.0235 302.84 21.1513 302.934 21.2907C303.028 21.4301 303.075 21.5811 303.075 21.7669C303.075 22.0108 303.005 22.2663 302.854 22.5566C302.702 22.8469 302.633 23.1256 302.633 23.3927C302.633 23.4856 302.68 23.5902 302.797 23.7063C302.902 23.8225 303.171 23.8922 303.592 23.8924C303.896 23.8924 304.352 23.7997 304.96 23.6256C305.568 23.44 306.152 23.1846 306.736 22.8596C306.853 22.7667 307.028 22.6506 307.262 22.4997C307.484 22.3488 307.729 22.1979 307.963 22.047C308.196 21.896 308.43 21.7684 308.652 21.6639C308.874 21.5594 309.049 21.5014 309.201 21.5014C309.354 21.5015 309.424 21.548 309.424 21.6409C309.424 21.7338 309.483 21.8383 309.611 21.9545L309.565 21.9429ZM299.941 21.6731C300.21 21.4874 300.35 21.2551 300.349 20.9532C300.349 20.7093 300.232 20.5583 299.986 20.5001C299.741 20.442 299.413 20.4071 298.98 20.4069C298.466 20.4068 297.952 20.4647 297.426 20.5923C296.911 20.72 296.432 20.8824 296.011 21.0914C295.591 21.3003 295.24 21.5557 294.96 21.8576C294.692 22.1595 294.552 22.473 294.552 22.8098C294.553 22.9608 294.588 23.1002 294.67 23.2163C294.752 23.3325 294.904 23.4022 295.15 23.4023C295.91 23.4025 296.646 23.2401 297.382 22.9035C298.107 22.5669 298.96 22.1606 299.929 21.6847L299.941 21.6731Z" fill="#242321"/>
<path d="M325.136 6.50121C325.136 6.6174 325.159 6.72199 325.206 6.81495C325.253 6.90792 325.253 7.02411 325.207 7.15191C325.16 7.27971 325.055 7.4772 324.892 7.72116C324.729 7.96512 324.437 8.31361 324.028 8.76664C323.62 9.21968 323.059 9.78886 322.347 10.4858C321.635 11.1828 320.712 12.0539 319.591 13.111C319.346 13.3549 319.089 13.564 318.82 13.7498C318.552 13.9356 318.295 14.1215 318.05 14.3422C317.559 14.7603 317.069 15.1785 316.566 15.585C316.064 15.9915 315.562 16.4097 315.036 16.8278C314.768 17.0369 314.499 17.2576 314.242 17.4667C313.985 17.6757 313.717 17.8732 313.448 18.059C312.631 19.0232 311.942 19.8828 311.394 20.6147C310.845 21.3581 310.425 21.9854 310.122 22.5198C309.819 23.0542 309.609 23.4841 309.481 23.8094C309.364 24.1463 309.295 24.3903 309.295 24.5297C309.295 25.041 309.425 25.378 309.682 25.5291C309.94 25.6802 310.08 25.75 310.115 25.75C310.513 25.7501 310.968 25.6573 311.506 25.4831C312.032 25.2974 312.57 25.0651 313.119 24.7864C313.668 24.4961 314.217 24.1825 314.754 23.8341C315.303 23.4857 315.806 23.1489 316.261 22.812C316.565 22.5681 316.939 22.3126 317.383 22.0223C317.826 21.7319 318.154 21.5926 318.364 21.5926C318.785 21.5927 319.008 21.8368 319.008 22.3132C319.008 22.4642 318.985 22.6385 318.939 22.836C318.892 23.0336 318.787 23.1613 318.635 23.2194C317.759 23.8466 316.918 24.4389 316.136 24.9848C315.341 25.5307 314.605 25.9952 313.904 26.3901C313.601 26.5411 313.285 26.6572 312.97 26.75C312.654 26.8429 312.35 26.9358 312.081 27.017C311.742 27.1331 311.427 27.2492 311.123 27.3537C310.819 27.4582 310.503 27.5162 310.164 27.5161L309.708 27.516C309.556 27.5159 309.404 27.481 309.252 27.4229C309.135 27.388 308.96 27.3066 308.749 27.1788C308.538 27.0509 308.328 26.8765 308.117 26.6789C307.906 26.4814 307.719 26.2489 307.566 25.97C307.414 25.7027 307.343 25.3774 307.343 25.0172C307.342 24.5989 307.458 24.1109 307.68 23.5417C307.913 22.984 308.239 22.3683 308.659 21.7061C308.811 21.4389 308.974 21.1485 309.161 20.8464C309.347 20.5444 309.557 20.2307 309.803 19.8938C310.468 18.9296 311.261 17.9306 312.172 16.9084C312.417 16.6412 312.639 16.3624 312.849 16.072C313.059 15.7816 313.292 15.4911 313.537 15.1891C314.144 14.4921 314.798 13.7835 315.499 13.0401C316.199 12.2967 316.923 11.5765 317.682 10.8447C318.406 10.0897 319.013 9.49725 319.503 9.05586C319.994 8.61446 320.554 8.11499 321.185 7.53421C321.64 7.13928 321.991 6.81405 322.236 6.5585C322.481 6.30294 322.691 6.09385 322.878 5.91962C323.065 5.757 323.228 5.64087 323.404 5.58282C323.579 5.52477 323.79 5.48997 324.058 5.49005C324.725 5.49023 325.088 5.75757 325.159 6.30369L325.159 6.4896L325.136 6.50121Z" fill="#242321"/>
<path d="M370.893 26.1065C371.139 26.1066 371.291 26.2344 371.373 26.49C371.444 26.7456 371.491 26.9896 371.491 27.2335C371.491 27.4194 371.422 27.5937 371.27 27.7795C371.118 27.9653 370.931 28.1511 370.698 28.3486C370.476 28.546 370.231 28.7202 369.974 28.8944C369.717 29.0686 369.483 29.2079 369.273 29.324C368.91 29.533 368.455 29.742 367.929 29.9626C367.403 30.1716 366.842 30.4037 366.269 30.6359C364.54 31.2395 362.775 31.727 360.986 32.0866C359.186 32.4462 357.538 32.6317 356.018 32.6312C355.527 32.6311 354.977 32.5148 354.357 32.2706C353.737 32.0265 353.327 31.5152 353.15 30.7252C353.091 30.3883 353.126 30.0514 353.266 29.6797C353.405 29.3196 353.58 28.9595 353.79 28.5994C354 28.2394 354.199 27.8909 354.385 27.5773C354.572 27.2637 354.653 26.9849 354.653 26.7409C354.653 26.555 354.582 26.4737 354.43 26.4737C354.337 26.4736 354.208 26.5201 354.045 26.613C353.881 26.7058 353.682 26.822 353.472 26.9497C353.262 27.089 353.04 27.2168 352.83 27.3561C352.619 27.4955 352.421 27.6232 352.234 27.7393C351.965 27.9251 351.685 28.1341 351.416 28.378C351.148 28.6219 350.867 28.831 350.599 29.0051C349.991 29.4232 349.384 29.8064 348.776 30.1547C348.169 30.5031 347.573 30.8398 347.001 31.1766C346.965 31.1765 346.954 31.1649 346.954 31.1301L346.954 31.0836C346.802 31.1997 346.638 31.2694 346.451 31.2693C346.241 31.2693 346.042 31.1879 345.878 31.0252C345.714 30.8625 345.632 30.6534 345.631 30.4094C345.631 30.2236 345.689 30.0609 345.818 29.9099C346.238 29.3292 346.623 28.7368 346.961 28.098C347.299 27.4591 347.672 26.8551 348.104 26.286C348.314 25.9492 348.548 25.6588 348.805 25.4033C349.061 25.1478 349.295 24.8574 349.505 24.5206C349.715 24.2418 349.902 23.9514 350.076 23.6378C350.24 23.3242 350.415 22.999 350.601 22.6621C350.846 22.3602 351.091 22.0814 351.325 21.8259C351.558 21.5704 351.78 21.2916 351.967 20.9896C352.212 20.6877 352.41 20.374 352.585 20.0372C352.748 19.7003 352.935 19.3867 353.157 19.0847C353.647 18.3878 354.102 17.7374 354.545 17.1102C354.989 16.4946 355.199 16.03 355.198 15.7279C355.198 15.5769 355.151 15.5072 355.058 15.5072C354.941 15.5071 354.742 15.6233 354.462 15.8671C354.181 16.111 353.89 16.3898 353.574 16.7266C353.259 17.0634 352.932 17.4002 352.594 17.7486C352.255 18.097 351.986 18.3758 351.776 18.5848C351.531 18.8287 351.309 19.0842 351.088 19.3514C350.866 19.6185 350.644 19.874 350.41 20.1179C349.897 20.5708 349.371 21.0005 348.845 21.407C348.32 21.8134 347.794 22.2315 347.28 22.6496L345.774 24.0084C345.505 24.2174 345.249 24.4497 345.027 24.7168C344.805 24.984 344.548 25.193 344.279 25.3672C343.731 25.8549 343.182 26.2614 342.621 26.5865C342.06 26.9233 341.499 27.26 340.962 27.6316C340.658 27.7825 340.378 27.9567 340.121 28.1541C339.864 28.3516 339.583 28.5374 339.28 28.7232C338.976 28.9089 338.672 29.0599 338.368 29.1992C338.065 29.3385 337.761 29.4778 337.457 29.6288C336.849 29.9307 336.265 30.2093 335.704 30.4647C335.143 30.7202 334.501 30.9639 333.764 31.2077C333.425 31.3238 333.098 31.3934 332.759 31.4165C332.42 31.4397 332.081 31.4744 331.707 31.5324C331.438 31.5904 331.157 31.6484 330.889 31.7181C330.62 31.7761 330.339 31.8108 330.07 31.8108C329.801 31.8107 329.486 31.7874 329.158 31.7408C328.819 31.6942 328.527 31.6012 328.246 31.4617C327.965 31.3222 327.742 31.1479 327.555 30.9155C327.368 30.6948 327.285 30.4159 327.285 30.079C327.284 29.4168 328.007 28.325 329.467 26.8152C329.712 26.6061 329.934 26.3506 330.132 26.0719C330.331 25.7931 330.564 25.526 330.833 25.2821C331.288 24.864 331.778 24.4343 332.292 24.0162C332.806 23.5981 333.355 23.1452 333.927 22.6575C334.196 22.4484 334.453 22.2278 334.698 21.9955C334.943 21.7632 335.212 21.531 335.516 21.2987C335.761 21.0897 336.018 20.9038 336.31 20.7297C336.602 20.5555 336.882 20.3581 337.151 20.1142C337.7 19.6961 338.237 19.2664 338.786 18.8484C339.335 18.4303 339.861 18.0239 340.374 17.629C340.678 17.42 340.97 17.2342 341.262 17.06C341.554 16.8858 341.835 16.7001 342.103 16.491C342.442 16.2471 342.792 15.9684 343.154 15.6316C343.516 15.2948 343.855 15.1323 344.159 15.1324C344.557 15.1325 344.849 15.272 345.025 15.5392L344.978 15.5857C345.072 15.7716 345.119 15.9342 345.119 16.0852C345.12 16.2711 345.05 16.4338 344.898 16.608C344.746 16.7822 344.559 16.9332 344.326 17.0841C344.092 17.2351 343.859 17.386 343.602 17.537C343.345 17.6879 343.111 17.8273 342.901 17.9434C342.293 18.3614 341.721 18.8144 341.172 19.3021C340.623 19.7899 340.063 20.2312 339.49 20.6609C339.151 20.9047 338.836 21.1021 338.509 21.2531C338.193 21.404 337.89 21.6014 337.621 21.8453C337.317 22.0892 337.037 22.3331 336.78 22.5653C336.523 22.8092 336.255 23.0531 335.986 23.2854C335.718 23.5525 335.414 23.7848 335.075 23.9589C334.736 24.1447 334.456 24.3421 334.211 24.5512C333.755 24.946 333.312 25.3525 332.868 25.7706C332.424 26.1887 332.039 26.6068 331.689 26.9901C331.338 27.3849 331.047 27.7334 330.825 28.0586C330.603 28.3722 330.487 28.6394 330.487 28.8485C330.487 29.0924 330.569 29.3132 330.733 29.5223C330.897 29.7315 331.131 29.8361 331.447 29.8362C331.716 29.8363 332.02 29.7783 332.359 29.6506C332.698 29.5229 333.025 29.4301 333.364 29.3372C333.609 29.2443 333.878 29.1747 334.182 29.1283C334.486 29.0819 334.755 29.0007 335 28.8846C335.76 28.6176 336.414 28.2925 336.963 27.9093C337.512 27.5377 338.12 27.1661 338.786 26.8062C339.393 26.4694 340.001 26.1211 340.608 25.7611C341.216 25.4012 341.823 24.9831 342.431 24.4954C342.676 24.3096 342.933 24.0889 343.201 23.8334C343.47 23.5779 343.727 23.334 343.972 23.0901C344.276 22.9043 344.591 22.7185 344.907 22.5211C345.222 22.3237 345.526 22.1147 345.794 21.9057C346.589 21.2089 347.371 20.5004 348.165 19.7571C348.947 19.0139 349.741 18.2822 350.535 17.5622C350.781 17.3183 351.002 17.0511 351.212 16.7491C351.422 16.4471 351.656 16.1916 351.901 15.9826L354.855 13.0791C355.065 12.8701 355.311 12.661 355.579 12.4636C355.848 12.2662 356.105 12.0688 356.35 11.8481C356.841 11.3952 357.308 10.9306 357.763 10.4428C358.218 9.95502 358.697 9.49047 359.222 9.03754C360.285 8.07361 361.383 7.08646 362.515 6.07608C363.66 5.0657 364.629 4.00881 365.446 2.92863C365.691 2.66151 365.889 2.35951 366.041 2.02265C366.192 1.68579 366.391 1.39542 366.636 1.11667C366.788 1.00054 366.916 0.907643 367.021 0.87282C367.127 0.837998 367.302 0.803198 367.547 0.803267C367.641 0.803293 367.699 0.814928 367.735 0.849789C367.98 0.942796 368.132 1.09386 368.215 1.30299C368.285 1.51212 368.332 1.72125 368.332 1.93036C368.333 2.17432 368.205 2.5228 367.972 2.99904C367.738 3.47528 367.295 3.99793 366.653 4.60184C366.501 4.78768 366.302 4.95027 366.057 5.12446C365.812 5.29865 365.566 5.49607 365.333 5.73997C364.995 6.37882 364.598 6.97119 364.131 7.52868C363.664 8.08618 363.221 8.6553 362.789 9.22442C362.544 9.49155 362.334 9.78192 362.147 10.0839C361.961 10.3859 361.75 10.6763 361.517 10.9434C361.307 11.2802 361.062 11.559 360.793 11.7796C360.525 12.0003 360.279 12.2558 360.069 12.5229C359.101 13.847 358.086 15.2524 357.047 16.7275C355.997 18.2026 354.947 19.6893 353.885 21.1644C353.64 21.5245 353.348 21.931 352.998 22.3608C352.648 22.8021 352.473 23.1506 352.473 23.4294C352.474 23.7663 352.591 24.0451 352.814 24.2659C353.036 24.4983 353.293 24.603 353.562 24.603C353.925 24.6031 354.31 24.4057 354.696 24.0109C355.093 23.616 355.455 23.3024 355.793 23.0586L356.705 22.5128C357.008 22.327 357.3 22.1296 357.569 21.9206C358.141 21.5258 358.725 21.1309 359.298 20.7245C359.87 20.3181 360.431 19.9 360.98 19.4819C361.248 19.238 361.529 19.029 361.821 18.8548C362.113 18.669 362.393 18.46 362.662 18.2161C362.942 18.0071 363.199 17.7748 363.456 17.5193C363.713 17.2638 363.981 17.0199 364.25 16.776C364.799 16.358 365.348 15.9283 365.908 15.5102C366.469 15.0921 367.03 14.6508 367.567 14.1979C367.836 13.9889 368.092 13.7566 368.338 13.5011C368.583 13.2456 368.84 12.9901 369.108 12.7578C369.447 12.4907 369.809 12.1423 370.229 11.7358C370.638 11.3293 371.012 11.1203 371.339 11.1204C371.643 11.1205 371.901 11.2251 372.111 11.4343L372.111 11.4808C372.264 11.6318 372.334 11.8642 372.335 12.1662C372.335 12.3754 372.265 12.5612 372.113 12.7354C371.961 12.898 371.786 13.0722 371.588 13.2348C371.389 13.3974 371.179 13.5484 370.957 13.6877C370.735 13.8271 370.536 13.9664 370.385 14.1174C370.116 14.3613 369.848 14.6168 369.591 14.8839C369.334 15.151 369.089 15.4182 368.844 15.6504C368.575 15.8595 368.283 16.0569 368.002 16.2427C367.722 16.4285 367.43 16.6375 367.162 16.8698C366.648 17.3576 366.146 17.8337 365.655 18.3215C365.165 18.8093 364.663 19.3087 364.149 19.8197C363.904 20.0636 363.635 20.2843 363.332 20.47C363.028 20.6674 362.747 20.8881 362.514 21.132C362.28 21.3759 362.047 21.6314 361.837 21.9218C361.627 22.2121 361.393 22.4793 361.16 22.7116C360.646 23.2226 360.132 23.7104 359.63 24.1749C359.128 24.6394 358.661 25.1156 358.241 25.6034C357.786 26.1145 357.319 26.6487 356.828 27.2062C356.338 27.7637 355.965 28.3561 355.697 28.9949C355.335 29.75 355.359 30.2147 355.769 30.4006C356.178 30.5866 356.822 30.6449 357.71 30.5871C358.377 30.5292 359.055 30.4364 359.756 30.3204C360.458 30.2045 361.147 30.0653 361.849 29.9144C362.188 29.8564 362.632 29.7636 363.193 29.636C363.754 29.52 364.198 29.3923 364.537 29.2762C365.203 29.0905 365.717 28.9397 366.091 28.8004C366.454 28.6611 366.769 28.5333 367.026 28.4172C367.283 28.3011 367.529 28.1734 367.751 28.0573C367.973 27.9296 368.276 27.7787 368.639 27.6045C369.153 27.3607 369.585 27.0471 369.935 26.6522C370.285 26.2574 370.624 26.06 370.963 26.0601L370.893 26.1065Z" fill="#242321"/>
<path d="M388.592 22.1329C388.627 22.1909 388.627 22.249 388.616 22.3187C388.604 22.3768 388.593 22.4465 388.593 22.5046C388.593 22.7834 388.523 23.0041 388.371 23.1899C388.22 23.3757 388.033 23.5266 387.799 23.6427C387.565 23.7588 387.32 23.8633 387.051 23.9329C386.782 24.0026 386.525 24.0954 386.28 24.1767C385.941 24.3276 385.579 24.4669 385.181 24.5829C384.784 24.699 384.422 24.8267 384.094 24.9427C382.692 25.3954 381.441 25.7087 380.307 25.871C379.185 26.0333 378.168 26.1143 377.256 26.1141C376.613 26.1139 376.086 25.9976 375.665 25.7768C375.244 25.5559 374.893 25.277 374.612 24.9401C374.342 24.6031 374.143 24.2314 374.014 23.8015C373.896 23.3833 373.825 22.9535 373.825 22.5353C373.824 21.9661 373.893 21.4666 374.045 21.0485C374.196 20.6884 374.429 20.3052 374.745 19.8987C375.06 19.4922 375.445 19.1206 375.889 18.7606C376.333 18.4122 376.788 18.122 377.279 17.8782C377.77 17.6343 378.249 17.5183 378.74 17.5185C379.313 17.5186 379.875 17.7279 380.401 18.1462C380.928 18.5761 381.198 19.0873 381.199 19.6914C381.2 20.2954 380.943 20.8297 380.429 21.271C379.915 21.7239 379.168 22.0954 378.198 22.3971C378.011 22.4552 377.8 22.5132 377.543 22.5596C377.286 22.606 377.04 22.6524 376.818 22.722C376.585 22.78 376.398 22.8729 376.246 22.989C376.094 23.1051 376.024 23.2794 376.024 23.4885C376.025 23.8253 376.212 24.0577 376.575 24.1856C376.938 24.3251 377.335 24.3949 377.756 24.395C378.306 24.3952 378.914 24.3373 379.58 24.2097C380.246 24.0937 380.924 23.9429 381.602 23.7572C382.292 23.5715 382.981 23.3858 383.671 23.1653C384.372 22.9564 385.027 22.7475 385.634 22.527C385.938 22.3761 386.347 22.1787 386.838 21.9349C387.329 21.6911 387.726 21.575 387.995 21.5751C388.182 21.5752 388.299 21.6333 388.358 21.7378C388.416 21.8424 388.498 21.9702 388.58 22.1212L388.592 22.1329ZM376.593 20.3987C376.593 20.3987 376.546 20.5032 376.546 20.6194C376.547 20.8052 376.64 20.8982 376.827 20.8983L376.921 20.8983C377.739 20.6546 378.288 20.3992 378.557 20.1321C378.825 19.865 378.965 19.6211 378.965 19.412C378.965 19.2958 378.871 19.2261 378.696 19.226C378.415 19.226 378.088 19.3536 377.691 19.6091C377.294 19.8645 376.931 20.1432 376.593 20.4452L376.593 20.3987Z" fill="#242321"/>
<path d="M411.47 5.28569C411.587 5.37866 411.692 5.49487 411.786 5.62269C411.88 5.75052 411.927 5.90156 411.927 6.05259C411.927 6.29656 411.811 6.62184 411.589 7.0284C411.368 7.43496 411.064 7.86474 410.679 8.31773C410.306 8.77072 409.85 9.22368 409.337 9.69987C408.823 10.1644 408.274 10.5942 407.701 10.989C406.977 11.5 406.346 11.9878 405.809 12.4639C405.272 12.9285 404.805 13.3699 404.373 13.7764C403.953 14.1829 403.532 14.5778 403.147 14.9727C402.75 15.3675 402.33 15.7392 401.874 16.1108C401.629 16.2618 401.337 16.4476 401.01 16.6799C400.683 16.9121 400.484 17.0864 400.414 17.2025C399.352 18.2246 398.546 19.0492 397.986 19.6648C397.425 20.2804 397.005 20.7799 396.737 21.1399C396.468 21.5 396.305 21.7788 396.258 21.9763C396.212 22.1738 396.189 22.3597 396.189 22.5456C396.19 22.8825 396.354 23.1033 396.693 23.2311C397.032 23.359 397.418 23.4172 397.874 23.4174C398.143 23.4174 398.494 23.3827 398.903 23.3015C399.312 23.2203 399.756 23.1275 400.224 23.0114C400.691 22.8954 401.159 22.7677 401.638 22.6284C402.105 22.4891 402.526 22.3614 402.889 22.2454C403.227 22.1293 403.543 21.9783 403.847 21.8158C404.151 21.6532 404.443 21.572 404.712 21.572C404.899 21.5721 405.016 21.6767 405.075 21.8858C405.133 22.095 405.169 22.3273 405.169 22.5597C405.17 22.8385 404.878 23.1289 404.305 23.4424C403.733 23.7559 403.055 24.0346 402.284 24.2783C401.512 24.5221 400.706 24.7194 399.876 24.8934C399.034 25.0558 398.379 25.137 397.888 25.1368C397.549 25.1367 397.198 25.1018 396.812 25.0436C396.426 24.9854 396.075 24.8691 395.736 24.7064C395.397 24.5436 395.116 24.3112 394.893 23.9974C394.671 23.6953 394.541 23.3003 394.506 22.8239C393.326 23.7879 392.298 24.5311 391.434 25.0653C390.569 25.5879 389.751 25.8548 389.003 25.8546C388.36 25.8545 387.857 25.7033 387.47 25.4011C387.084 25.0989 386.885 24.6806 386.849 24.1346C386.848 23.5653 387.023 22.9496 387.372 22.2759C387.722 21.6137 388.166 20.9981 388.714 20.4174C389.263 19.8483 389.87 19.3721 390.56 18.9889C391.237 18.6057 391.927 18.42 392.628 18.4202C392.991 18.4203 393.353 18.4553 393.693 18.5135C394.044 18.5716 394.383 18.6763 394.722 18.8274C394.991 19.0134 395.272 19.1064 395.541 19.1065C395.81 19.1066 396.102 19.0021 396.406 18.793C396.709 18.584 397.025 18.3053 397.34 17.9801C397.655 17.6548 397.982 17.2948 398.297 16.9115C398.612 16.5398 398.928 16.1797 399.231 15.8545C399.838 15.3667 400.469 14.786 401.123 14.1124C401.777 13.4387 402.407 12.7534 403.038 12.0798C403.656 11.3945 404.252 10.7441 404.812 10.1052C405.372 9.46641 405.863 8.94374 406.295 8.52562C407.054 7.82876 407.696 7.25967 408.21 6.82995C408.724 6.40023 409.167 6.05182 409.53 5.80794C409.892 5.56407 410.184 5.4015 410.418 5.30862C410.651 5.21575 410.838 5.16933 410.99 5.16938C411.142 5.16942 411.259 5.18106 411.329 5.21593C411.4 5.25081 411.47 5.27406 411.54 5.30894L411.493 5.30892L411.47 5.28569ZM393.486 21.2668C393.638 21.2088 393.708 21.0462 393.708 20.7673C393.707 20.4885 393.59 20.3258 393.344 20.2444C393.099 20.163 392.841 20.1281 392.572 20.128C392.304 20.1279 391.953 20.2208 391.521 20.3949C391.088 20.5691 390.679 20.8013 390.294 21.08C389.908 21.3588 389.558 21.6491 389.266 21.9627C388.974 22.2763 388.834 22.59 388.835 22.892C388.835 23.136 388.929 23.3568 389.128 23.5427C389.327 23.7287 389.561 23.8333 389.83 23.8334C390.228 23.8335 390.742 23.5664 391.396 23.0438C392.05 22.5212 392.774 21.9172 393.556 21.2552L393.463 21.2552L393.486 21.2668Z" fill="#242321"/>
<path d="M414.329 21.5849C414.633 21.585 414.82 21.678 414.879 21.8523C414.937 22.0266 414.973 22.2822 414.973 22.5727C414.974 22.7586 414.915 22.9212 414.787 23.0722C414.659 23.2232 414.53 23.3278 414.378 23.3858C413.747 23.6529 413.128 23.9315 412.532 24.1986C411.936 24.4773 411.375 24.7327 410.826 24.9649C409.575 25.4758 408.524 25.8357 407.659 26.0445C406.794 26.2534 406.022 26.3578 405.356 26.3576C404.771 26.3574 404.256 26.2063 403.788 25.9273C403.32 25.6483 403.074 25.1486 403.073 24.4632C403.072 24.1843 403.13 23.8241 403.235 23.3711C403.339 22.918 403.538 22.4997 403.806 22.1048C403.993 21.919 404.18 21.7331 404.378 21.5124C404.577 21.2917 404.775 21.0943 404.997 20.8852C405.09 20.7923 405.195 20.6761 405.312 20.5483C405.429 20.409 405.581 20.2696 405.744 20.1186C405.908 19.9676 406.083 19.8398 406.246 19.7353C406.41 19.6308 406.573 19.5727 406.726 19.5728C406.971 19.5729 407.217 19.6426 407.451 19.7821C407.697 19.9216 407.814 20.1075 407.814 20.3515C407.815 20.6885 407.745 20.9441 407.593 21.1183C406.986 21.7223 406.414 22.3147 405.888 22.8838C405.351 23.453 405.095 23.906 405.095 24.243C405.096 24.545 405.306 24.6961 405.739 24.6963C406.008 24.6963 406.417 24.6267 406.966 24.4759C407.516 24.325 408.124 24.1392 408.79 23.9071C409.456 23.6865 410.134 23.4195 410.823 23.1408C411.501 22.8505 412.12 22.5951 412.669 22.3513C413.008 22.2003 413.3 22.0378 413.557 21.8519C413.814 21.6661 414.083 21.5849 414.352 21.5849L414.329 21.5849ZM410.769 17.7847C410.43 17.7846 410.125 17.6451 409.833 17.3545C409.54 17.064 409.399 16.7619 409.399 16.4249C409.398 16.2158 409.48 16.0067 409.643 15.7976C409.807 15.5885 409.993 15.4027 410.215 15.2285C410.426 15.0659 410.636 14.9381 410.858 14.8452C411.068 14.7523 411.22 14.7059 411.314 14.7059C411.653 14.706 411.945 14.8455 412.226 15.1361C412.496 15.4266 412.637 15.7636 412.637 16.1586C412.638 16.5769 412.416 16.9602 411.972 17.297C411.528 17.6338 411.131 17.7964 410.769 17.7963L410.769 17.7847Z" fill="#242321"/>
<path d="M426.328 22.6297C426.328 22.8155 426.212 23.0013 425.966 23.1987C425.721 23.3961 425.417 23.5819 425.055 23.7676C424.693 23.9534 424.307 24.1275 423.898 24.3132C423.489 24.499 423.115 24.6499 422.788 24.7659C422.449 24.9169 422.11 25.0213 421.76 25.1025C421.409 25.1837 421.07 25.2649 420.731 25.3926C419.913 25.6595 419.165 25.8568 418.475 26.0076C417.797 26.1584 417.119 26.2279 416.453 26.2278C415.424 26.2275 414.617 26.0066 414.043 25.5766C413.47 25.1467 413.176 24.5426 413.175 23.7876C413.175 23.3694 413.291 22.8932 413.536 22.3822C413.781 21.8712 414.096 21.395 414.493 20.9537C414.889 20.5124 415.357 20.1409 415.882 19.839C416.408 19.5372 416.981 19.3863 417.589 19.3865C418.01 19.3866 418.384 19.4448 418.712 19.5726C419.027 19.7005 419.192 19.9212 419.192 20.2581C419.192 20.502 419.111 20.7227 418.947 20.9201C418.784 21.1175 418.562 21.222 418.281 21.2219C418.223 21.2219 418.141 21.2219 418.059 21.1986C417.977 21.1754 417.895 21.1754 417.837 21.1754C417.533 21.1404 417.229 21.2216 416.925 21.4074C416.622 21.5932 416.341 21.8138 416.108 22.0925C415.874 22.3712 415.664 22.6499 415.513 22.9403C415.361 23.2306 415.291 23.4629 415.292 23.6488C415.292 23.8346 415.386 24.0437 415.561 24.2877C415.737 24.5317 416.135 24.6596 416.743 24.6597C417.316 24.6599 417.959 24.5671 418.66 24.3583C419.361 24.161 420.074 23.9289 420.799 23.6619C421.103 23.5458 421.43 23.4065 421.804 23.2556C422.178 23.1047 422.528 22.9655 422.902 22.8262C423.276 22.6869 423.604 22.5476 423.931 22.4199C424.246 22.2806 424.515 22.1761 424.725 22.0833C424.971 21.9904 425.134 21.8975 425.228 21.793C425.321 21.6885 425.485 21.6305 425.73 21.6305C426.163 21.6307 426.374 21.8514 426.374 22.3044L426.375 22.6645L426.328 22.6297Z" fill="#242321"/>
<path d="M435.391 21.5849C435.695 21.585 435.883 21.678 435.941 21.8523C436 22.0266 436.036 22.2822 436.036 22.5727C436.036 22.7586 435.978 22.9212 435.85 23.0722C435.721 23.2232 435.593 23.3278 435.441 23.3858C434.81 23.6529 434.191 23.9315 433.595 24.1986C432.999 24.4773 432.438 24.7327 431.889 24.9649C430.638 25.4758 429.586 25.8357 428.721 26.0445C427.856 26.2534 427.085 26.3578 426.418 26.3576C425.834 26.3574 425.319 26.2063 424.851 25.9273C424.383 25.6483 424.136 25.1486 424.136 24.4632C424.135 24.1843 424.193 23.8241 424.298 23.3711C424.402 22.918 424.6 22.4997 424.869 22.1048C425.056 21.919 425.242 21.7331 425.441 21.5124C425.639 21.2917 425.838 21.0943 426.06 20.8852C426.153 20.7923 426.258 20.6761 426.375 20.5483C426.492 20.409 426.643 20.2696 426.807 20.1186C426.97 19.9676 427.146 19.8398 427.309 19.7353C427.473 19.6308 427.636 19.5727 427.788 19.5728C428.034 19.5729 428.279 19.6426 428.513 19.7821C428.759 19.9216 428.876 20.1075 428.877 20.3515C428.877 20.6885 428.807 20.9441 428.656 21.1183C428.049 21.7223 427.477 22.3147 426.951 22.8838C426.414 23.453 426.158 23.906 426.158 24.243C426.159 24.545 426.369 24.6961 426.802 24.6963C427.071 24.6963 427.48 24.6267 428.029 24.4759C428.579 24.325 429.186 24.1392 429.852 23.9071C430.519 23.6865 431.196 23.4195 431.886 23.1408C432.564 22.8505 433.183 22.5951 433.732 22.3513C434.071 22.2003 434.363 22.0378 434.62 21.8519C434.877 21.6661 435.146 21.5849 435.415 21.5849L435.391 21.5849ZM431.843 17.7847C431.504 17.7846 431.2 17.6451 430.907 17.3545C430.614 17.064 430.473 16.7619 430.473 16.4249C430.473 16.2158 430.554 16.0067 430.718 15.7976C430.881 15.5885 431.068 15.4027 431.29 15.2285C431.5 15.0659 431.71 14.9381 431.932 14.8452C432.143 14.7523 432.295 14.7059 432.388 14.7059C432.727 14.706 433.02 14.8455 433.301 15.1361C433.57 15.4266 433.711 15.7636 433.712 16.1586C433.712 16.5769 433.491 16.9602 433.047 17.297C432.603 17.6338 432.206 17.7964 431.843 17.7963L431.843 17.7847Z" fill="#242321"/>
<path d="M453.667 21.5339C454.006 21.534 454.182 21.6618 454.217 21.9173C454.252 22.1729 454.229 22.4051 454.171 22.6258C454.136 22.8348 454.031 23.0206 453.833 23.1948C453.634 23.3689 453.412 23.5082 453.155 23.6475C452.898 23.7868 452.63 23.8913 452.361 23.9841C452.092 24.077 451.858 24.1698 451.683 24.2511C450.281 24.8895 449.147 25.3421 448.271 25.609C447.394 25.8759 446.786 26.0151 446.447 26.015C446.026 26.0149 445.699 25.9102 445.488 25.7011C445.277 25.492 445.171 25.2365 445.171 24.9345C445.171 24.6906 445.264 24.4351 445.462 24.1448C445.661 23.8545 445.754 23.5758 445.753 23.3087C445.753 23.1926 445.695 23.1229 445.566 23.1228C445.356 23.1228 445.028 23.1924 444.584 23.3316C444.14 23.4709 443.778 23.6101 443.474 23.761C440.319 24.968 438.332 25.5714 437.502 25.5712C437.291 25.5711 437.081 25.513 436.882 25.3852C436.683 25.2574 436.589 24.9902 436.588 24.5721C436.588 24.3631 436.716 24.0147 436.972 23.5502C437.229 23.0857 437.602 22.598 438.093 22.0755C438.245 21.9246 438.443 21.7504 438.688 21.553C438.934 21.3557 439.156 21.1583 439.366 20.9609C439.576 20.7635 439.763 20.5894 439.915 20.4384C440.066 20.2875 440.136 20.1714 440.136 20.0785L440.089 20.0784C439.996 20.0784 439.902 20.1132 439.821 20.1713C439.33 20.508 438.863 20.8446 438.407 21.1929C437.952 21.5412 437.52 21.8663 437.111 22.1682C436.702 22.47 436.34 22.7254 436.048 22.9112C435.744 23.1085 435.499 23.2014 435.323 23.2013C434.809 23.2012 434.551 22.8991 434.55 22.2952C434.55 22.1094 434.667 21.9004 434.912 21.6449C435.157 21.3895 435.484 21.1108 435.893 20.809C436.302 20.5071 436.769 20.1705 437.283 19.8106C437.797 19.4507 438.334 19.0908 438.871 18.7193C439.292 18.4174 439.724 18.2201 440.145 18.1041C440.566 17.9997 440.928 17.9417 441.232 17.9418C442.39 17.9421 442.963 18.4533 442.965 19.4869C442.965 19.7308 442.896 20.0095 442.744 20.3463C442.592 20.6831 442.301 20.9849 441.88 21.252L441.471 21.519C441.284 21.6351 441.097 21.7628 440.899 21.9021C440.7 22.0414 440.525 22.1691 440.373 22.2852C440.221 22.4129 440.151 22.5058 440.151 22.5987C440.152 22.7148 440.339 22.7846 440.701 22.7847C440.853 22.7847 441.017 22.7383 441.204 22.6455C442.992 21.9839 444.359 21.5198 445.306 21.2645C446.241 21.0093 447.036 20.8817 447.679 20.8819C448.17 20.882 448.533 20.9867 448.79 21.1958C449.048 21.4049 449.177 21.6604 449.177 21.9624C449.178 22.1715 449.131 22.3689 449.038 22.5547C448.945 22.7405 448.828 22.9147 448.676 23.1004C448.641 23.1353 448.63 23.1934 448.63 23.2863C448.63 23.3443 448.7 23.3792 448.864 23.3792C449.378 23.1703 449.892 22.9498 450.406 22.7293C450.92 22.4971 451.411 22.2998 451.867 22.1141C452.323 21.9284 452.708 21.7892 453.024 21.6847C453.339 21.5803 453.562 21.5223 453.678 21.5223L453.667 21.5339Z" fill="#242321"/>
<path d="M467.975 22.1329C468.01 22.1909 468.01 22.249 467.999 22.3187C467.987 22.3768 467.975 22.4465 467.975 22.5046C467.976 22.7834 467.906 23.0041 467.754 23.1899C467.603 23.3757 467.416 23.5266 467.182 23.6427C466.948 23.7588 466.703 23.8633 466.434 23.9329C466.165 24.0026 465.908 24.0954 465.663 24.1767C465.324 24.3276 464.962 24.4669 464.564 24.5829C464.167 24.699 463.804 24.8267 463.477 24.9427C462.075 25.3954 460.824 25.7087 459.69 25.871C458.568 26.0333 457.551 26.1143 456.639 26.1141C455.996 26.1139 455.469 25.9976 455.048 25.7768C454.627 25.5559 454.276 25.277 453.994 24.9401C453.725 24.6031 453.526 24.2314 453.396 23.8015C453.279 23.3833 453.208 22.9535 453.207 22.5353C453.207 21.9661 453.276 21.4666 453.427 21.0485C453.579 20.6884 453.812 20.3052 454.127 19.8987C454.443 19.4922 454.828 19.1206 455.272 18.7606C455.715 18.4122 456.171 18.122 456.662 17.8782C457.153 17.6343 457.632 17.5183 458.123 17.5185C458.696 17.5186 459.257 17.7279 459.784 18.1462C460.311 18.5761 460.581 19.0873 460.581 19.6914C460.582 20.2954 460.326 20.8297 459.812 21.271C459.298 21.7239 458.55 22.0954 457.58 22.3971C457.393 22.4552 457.183 22.5132 456.926 22.5596C456.669 22.606 456.423 22.6524 456.201 22.722C455.967 22.78 455.78 22.8729 455.629 22.989C455.477 23.1051 455.407 23.2794 455.407 23.4885C455.408 23.8253 455.595 24.0577 455.958 24.1856C456.32 24.3251 456.718 24.3949 457.139 24.395C457.689 24.3952 458.296 24.3373 458.963 24.2097C459.629 24.0937 460.307 23.9429 460.985 23.7572C461.675 23.5715 462.364 23.3858 463.054 23.1653C463.755 22.9564 464.41 22.7475 465.017 22.527C465.321 22.3761 465.73 22.1787 466.221 21.9349C466.711 21.6911 467.109 21.575 467.378 21.5751C467.565 21.5752 467.682 21.6333 467.74 21.7378C467.799 21.8424 467.881 21.9702 467.963 22.1212L467.975 22.1329ZM455.987 20.3987C455.987 20.3987 455.941 20.5032 455.941 20.6194C455.941 20.8052 456.035 20.8982 456.222 20.8983L456.315 20.8983C457.134 20.6546 457.683 20.3992 457.951 20.1321C458.22 19.865 458.36 19.6211 458.359 19.412C458.359 19.2958 458.266 19.2261 458.09 19.226C457.81 19.226 457.482 19.3537 457.085 19.6091C456.688 19.8645 456.326 20.1432 455.987 20.4452L455.987 20.3987Z" fill="#242321"/>
</svg>
